M48
; DRILL file KiCad 10.0.6-10.0.6~ubuntu24.04.1 date 2026-09-20T13:17:03
; FORMAT={-:-/ absolute / metric / decimal}
; #@! TF.CreationDate,2026-09-20T13:17:03+02:00
; #@! TF.GenerationSoftware,Kicad,Pcbnew,10.0.6-10.0.6~ubuntu24.04.1
; #@! TF.FileFunction,Plated,1,2,PTH
FMAT,2
METRIC
; #@! TA.AperFunction,Plated,PTH,ComponentDrill
T1C0.500
; #@! TA.AperFunction,Plated,PTH,ComponentDrill
T2C1.800
%
G90
G05
T1
X147.325Y-41.75
X147.325Y-146.75
X147.855Y-40.48
X147.855Y-43.02
X147.855Y-145.48
X147.855Y-148.02
X149.125Y-39.95
X149.125Y-43.55
X149.125Y-144.95
X149.125Y-148.55
X150.395Y-40.48
X150.395Y-43.02
X150.395Y-145.48
X150.395Y-148.02
X150.925Y-41.75
X150.925Y-146.75
X156.2Y-41.75
X156.2Y-146.75
X156.73Y-40.48
X156.73Y-43.02
X156.73Y-145.48
X156.73Y-148.02
X158.0Y-39.95
X158.0Y-43.55
X158.0Y-144.95
X158.0Y-148.55
X159.27Y-40.48
X159.27Y-43.02
X159.27Y-145.48
X159.27Y-148.02
X159.8Y-41.75
X159.8Y-146.75
X165.075Y-41.75
X165.075Y-146.75
X165.605Y-40.48
X165.605Y-43.02
X165.605Y-145.48
X165.605Y-148.02
X166.875Y-39.95
X166.875Y-43.55
X166.875Y-144.95
X166.875Y-148.55
X168.145Y-40.48
X168.145Y-43.02
X168.145Y-145.48
X168.145Y-148.02
X168.675Y-41.75
X168.675Y-146.75
T2
X149.125Y-41.75
X149.125Y-146.75
X158.0Y-41.75
X158.0Y-146.75
X166.875Y-41.75
X166.875Y-146.75
M30
