%TF.GenerationSoftware,KiCad,Pcbnew,10.0.6-10.0.6~ubuntu24.04.1*%
%TF.CreationDate,2026-09-21T13:30:54+02:00*%
%TF.ProjectId,EEZ DIB DCP405plus,45455a20-4449-4422-9044-435034303570,r4B5*%
%TF.SameCoordinates,Original*%
%TF.FileFunction,Copper,L3,Inr*%
%TF.FilePolarity,Positive*%
%FSLAX46Y46*%
G04 Gerber Fmt 4.6, Leading zero omitted, Abs format (unit mm)*
G04 Created by KiCad (PCBNEW 10.0.6-10.0.6~ubuntu24.04.1) date 2026-09-21 13:30:54*
%MOMM*%
%LPD*%
G01*
G04 APERTURE LIST*
G04 Aperture macros list*
%AMRoundRect*
0 Rectangle with rounded corners*
0 $1 Rounding radius*
0 $2 $3 $4 $5 $6 $7 $8 $9 X,Y pos of 4 corners*
0 Add a 4 corners polygon primitive as box body*
4,1,4,$2,$3,$4,$5,$6,$7,$8,$9,$2,$3,0*
0 Add four circle primitives for the rounded corners*
1,1,$1+$1,$2,$3*
1,1,$1+$1,$4,$5*
1,1,$1+$1,$6,$7*
1,1,$1+$1,$8,$9*
0 Add four rect primitives between the rounded corners*
20,1,$1+$1,$2,$3,$4,$5,0*
20,1,$1+$1,$4,$5,$6,$7,0*
20,1,$1+$1,$6,$7,$8,$9,0*
20,1,$1+$1,$8,$9,$2,$3,0*%
%AMOutline5P*
0 Free polygon, 5 corners , with rotation*
0 The origin of the aperture is its center*
0 number of corners: always 5*
0 $1 to $10 corner X, Y*
0 $11 Rotation angle, in degrees counterclockwise*
0 create outline with 5 corners*
4,1,5,$1,$2,$3,$4,$5,$6,$7,$8,$9,$10,$1,$2,$11*%
%AMOutline6P*
0 Free polygon, 6 corners , with rotation*
0 The origin of the aperture is its center*
0 number of corners: always 6*
0 $1 to $12 corner X, Y*
0 $13 Rotation angle, in degrees counterclockwise*
0 create outline with 6 corners*
4,1,6,$1,$2,$3,$4,$5,$6,$7,$8,$9,$10,$11,$12,$1,$2,$13*%
%AMOutline7P*
0 Free polygon, 7 corners , with rotation*
0 The origin of the aperture is its center*
0 number of corners: always 7*
0 $1 to $14 corner X, Y*
0 $15 Rotation angle, in degrees counterclockwise*
0 create outline with 7 corners*
4,1,7,$1,$2,$3,$4,$5,$6,$7,$8,$9,$10,$11,$12,$13,$14,$1,$2,$15*%
%AMOutline8P*
0 Free polygon, 8 corners , with rotation*
0 The origin of the aperture is its center*
0 number of corners: always 8*
0 $1 to $16 corner X, Y*
0 $17 Rotation angle, in degrees counterclockwise*
0 create outline with 8 corners*
4,1,8,$1,$2,$3,$4,$5,$6,$7,$8,$9,$10,$11,$12,$13,$14,$15,$16,$1,$2,$17*%
G04 Aperture macros list end*
%ADD10C,0.101600*%
%TA.AperFunction,NonConductor*%
%ADD11C,0.101600*%
%TD*%
%TA.AperFunction,ComponentPad*%
%ADD12O,1.524000X3.048000*%
%TD*%
%TA.AperFunction,ComponentPad*%
%ADD13C,1.270000*%
%TD*%
%TA.AperFunction,ComponentPad*%
%ADD14Outline8P,-0.750000X0.310660X-0.310660X0.750000X0.310660X0.750000X0.750000X0.310660X0.750000X-0.310660X0.310660X-0.750000X-0.310660X-0.750000X-0.750000X-0.310660X0.000000*%
%TD*%
%TA.AperFunction,ComponentPad*%
%ADD15O,3.500000X2.640000*%
%TD*%
%TA.AperFunction,ComponentPad*%
%ADD16O,4.500000X2.640000*%
%TD*%
%TA.AperFunction,ComponentPad*%
%ADD17RoundRect,0.250000X0.675000X0.675000X-0.675000X0.675000X-0.675000X-0.675000X0.675000X-0.675000X0*%
%TD*%
%TA.AperFunction,ComponentPad*%
%ADD18C,1.850000*%
%TD*%
%TA.AperFunction,ComponentPad*%
%ADD19R,1.500000X1.500000*%
%TD*%
%TA.AperFunction,ComponentPad*%
%ADD20Outline8P,-0.750000X0.310660X-0.310660X0.750000X0.310660X0.750000X0.750000X0.310660X0.750000X-0.310660X0.310660X-0.750000X-0.310660X-0.750000X-0.750000X-0.310660X180.000000*%
%TD*%
%TA.AperFunction,ComponentPad*%
%ADD21R,2.100000X2.100000*%
%TD*%
%TA.AperFunction,ComponentPad*%
%ADD22C,2.100000*%
%TD*%
%TA.AperFunction,ComponentPad*%
%ADD23Outline8P,-0.675000X0.279594X-0.279594X0.675000X0.279594X0.675000X0.675000X0.279594X0.675000X-0.279594X0.279594X-0.675000X-0.279594X-0.675000X-0.675000X-0.279594X180.000000*%
%TD*%
%TA.AperFunction,ComponentPad*%
%ADD24C,5.500000*%
%TD*%
%TA.AperFunction,ComponentPad*%
%ADD25R,2.710000X2.710000*%
%TD*%
%TA.AperFunction,ComponentPad*%
%ADD26C,2.710000*%
%TD*%
%TA.AperFunction,ComponentPad*%
%ADD27R,1.358000X1.358000*%
%TD*%
%TA.AperFunction,ComponentPad*%
%ADD28C,1.358000*%
%TD*%
%TA.AperFunction,ComponentPad*%
%ADD29Outline8P,-1.270000X0.526051X-0.526051X1.270000X0.526051X1.270000X1.270000X0.526051X1.270000X-0.526051X0.526051X-1.270000X-0.526051X-1.270000X-1.270000X-0.526051X0.000000*%
%TD*%
%TA.AperFunction,ComponentPad*%
%ADD30C,2.540000*%
%TD*%
%TA.AperFunction,ComponentPad*%
%ADD31C,4.000000*%
%TD*%
%TA.AperFunction,ComponentPad*%
%ADD32O,2.400000X4.000000*%
%TD*%
%TA.AperFunction,ViaPad*%
%ADD33C,0.600000*%
%TD*%
%TA.AperFunction,ViaPad*%
%ADD34C,0.806400*%
%TD*%
%TA.AperFunction,Conductor*%
%ADD35C,0.203200*%
%TD*%
%TA.AperFunction,Conductor*%
%ADD36C,0.812800*%
%TD*%
%TA.AperFunction,Conductor*%
%ADD37C,1.270000*%
%TD*%
%TA.AperFunction,Conductor*%
%ADD38C,0.406400*%
%TD*%
%TA.AperFunction,Conductor*%
%ADD39C,0.254000*%
%TD*%
%TA.AperFunction,Conductor*%
%ADD40C,1.676400*%
%TD*%
%TA.AperFunction,Conductor*%
%ADD41C,1.016000*%
%TD*%
%TA.AperFunction,Conductor*%
%ADD42C,0.304800*%
%TD*%
%TA.AperFunction,Conductor*%
%ADD43C,0.200000*%
%TD*%
%TA.AperFunction,Conductor*%
%ADD44C,1.524000*%
%TD*%
%TA.AperFunction,Conductor*%
%ADD45C,0.609600*%
%TD*%
%TA.AperFunction,Conductor*%
%ADD46C,0.508000*%
%TD*%
G04 APERTURE END LIST*
D10*
D11*
X67773550Y-56734360D02*
X68339607Y-56734360D01*
X68339607Y-56734360D02*
X68034807Y-57082703D01*
X68034807Y-57082703D02*
X68165436Y-57082703D01*
X68165436Y-57082703D02*
X68252522Y-57126246D01*
X68252522Y-57126246D02*
X68296064Y-57169789D01*
X68296064Y-57169789D02*
X68339607Y-57256875D01*
X68339607Y-57256875D02*
X68339607Y-57474589D01*
X68339607Y-57474589D02*
X68296064Y-57561675D01*
X68296064Y-57561675D02*
X68252522Y-57605218D01*
X68252522Y-57605218D02*
X68165436Y-57648760D01*
X68165436Y-57648760D02*
X67904179Y-57648760D01*
X67904179Y-57648760D02*
X67817093Y-57605218D01*
X67817093Y-57605218D02*
X67773550Y-57561675D01*
D12*
%TO.N,Net-(Q15-S)*%
%TO.C,R70*%
X134726100Y-60697500D03*
%TO.N,POST_OUT+*%
X129646100Y-60697500D03*
%TD*%
D13*
%TO.N,+VREF*%
%TO.C,TP7*%
X147900000Y-100160000D03*
%TD*%
%TO.N,Net-(IC5-PC13)*%
%TO.C,TP4*%
X191480000Y-135810000D03*
%TD*%
%TO.N,PREG_OUT+*%
%TO.C,TP12*%
X193040000Y-60452000D03*
%TD*%
D14*
%TO.N,Net-(IC17A-O)*%
%TO.C,LED3*%
X65470000Y-79730000D03*
%TO.N,Net-(LED3-PadGC)*%
X65470000Y-82270000D03*
%TO.N,Net-(IC17B-O)*%
X62930000Y-79730000D03*
%TO.N,Net-(LED3-PadGC)*%
X62930000Y-82270000D03*
%TO.N,+VLED*%
X68010000Y-79730000D03*
%TO.N,Net-(LED3-PadYC)*%
X68010000Y-82270000D03*
%TD*%
D13*
%TO.N,-12V*%
%TO.C,TP15*%
X199390000Y-100970000D03*
%TD*%
%TO.N,Net-(IC26-Vout)*%
%TO.C,TP17*%
X192278000Y-104140000D03*
%TD*%
D15*
%TO.N,Net-(Q12-G)*%
%TO.C,Q12*%
X164098000Y-60212900D03*
D16*
%TO.N,PREG_OUT+*%
X158648000Y-60212900D03*
D15*
%TO.N,POST_OUT+*%
X153198000Y-60212900D03*
%TD*%
D13*
%TO.N,/DIB isolators\u002C EEPROM\u002C ADC\u002C MCU/DIB_SYNC*%
%TO.C,TP1*%
X151580000Y-133170000D03*
%TD*%
D17*
%TO.N,unconnected-(X2-VCC-Pad1)*%
%TO.C,X2*%
X187020000Y-126870000D03*
D18*
%TO.N,/DIB isolators\u002C EEPROM\u002C ADC\u002C MCU/SWDIO*%
X188290000Y-124330000D03*
%TO.N,/DIB isolators\u002C EEPROM\u002C ADC\u002C MCU/~{DIB_RESET}*%
X189560000Y-126870000D03*
%TO.N,/DIB isolators\u002C EEPROM\u002C ADC\u002C MCU/SWCLK*%
X190830000Y-124330000D03*
%TO.N,DIB_GND*%
X192100000Y-126870000D03*
%TO.N,/DIB isolators\u002C EEPROM\u002C ADC\u002C MCU/SWO*%
X193370000Y-124330000D03*
%TD*%
D13*
%TO.N,GND*%
%TO.C,TP9*%
X213868000Y-115824000D03*
%TD*%
D19*
%TO.N,/Rsense protection\u002C power output\u002C Rprog/OUTC+*%
%TO.C,X5*%
X76140000Y-142540000D03*
D20*
X76140000Y-140000000D03*
X78680000Y-142540000D03*
X78680000Y-140000000D03*
X81220000Y-142540000D03*
%TO.N,Net-(F1-Pad2)*%
X81220000Y-140000000D03*
X83760000Y-142540000D03*
X83760000Y-140000000D03*
X86300000Y-142540000D03*
X86300000Y-140000000D03*
%TO.N,POST_OUT-*%
X88840000Y-142540000D03*
X88840000Y-140000000D03*
X91380000Y-142540000D03*
X91380000Y-140000000D03*
%TO.N,/Rsense protection\u002C power output\u002C Rprog/OUTC-*%
X93920000Y-142540000D03*
X93920000Y-140000000D03*
X96460000Y-142540000D03*
X96460000Y-140000000D03*
%TO.N,/Rsense protection\u002C power output\u002C Rprog/SENSE_IN-*%
X99000000Y-142540000D03*
%TO.N,/Rsense protection\u002C power output\u002C Rprog/SENSE_IN+*%
X99000000Y-140000000D03*
%TD*%
D21*
%TO.N,Net-(TP13-P$1)*%
%TO.C,X4*%
X64800000Y-87000000D03*
D22*
%TO.N,Net-(TP14-P$1)*%
X64800000Y-90500000D03*
%TO.N,PE*%
X64800000Y-94000000D03*
%TD*%
D13*
%TO.N,Net-(TP13-P$1)*%
%TO.C,TP13*%
X68580000Y-85090000D03*
%TD*%
%TO.N,GND*%
%TO.C,TP8*%
X103730000Y-81990000D03*
%TD*%
%TO.N,+VNR*%
%TO.C,TP16*%
X192278000Y-115824000D03*
%TD*%
%TO.N,Net-(IC25-Vout)*%
%TO.C,TP18*%
X199390000Y-104140000D03*
%TD*%
D12*
%TO.N,Net-(Q15-G)*%
%TO.C,Q15*%
X147172100Y-60240300D03*
%TO.N,PREG_OUT-*%
X144632100Y-60240300D03*
%TO.N,Net-(Q15-S)*%
X142092100Y-60240300D03*
%TD*%
D23*
%TO.N,Net-(LED2-C)*%
%TO.C,LED2*%
X66445000Y-101000000D03*
%TO.N,/DAC\u002C OE\u002C Vref\u002C IOEXP\u002C Temp/~{OE_LED_GREEN}*%
X68350000Y-101000000D03*
%TO.N,/DAC\u002C OE\u002C Vref\u002C IOEXP\u002C Temp/~{OE_LED_RED}*%
X64540000Y-101000000D03*
%TD*%
D24*
%TO.N,*%
%TO.C,KK9*%
X69500000Y-63000000D03*
%TD*%
D25*
%TO.N,/Power pre-regulator/DC-*%
%TO.C,X3*%
X222686400Y-140960000D03*
D26*
%TO.N,unconnected-(X3-Pin_2-Pad2)*%
X222686400Y-137000000D03*
%TO.N,unconnected-(X3-Pin_3-Pad3)*%
X222686400Y-133040000D03*
%TO.N,/Power pre-regulator/DC+*%
X222686400Y-129080000D03*
%TD*%
D13*
%TO.N,+3V3*%
%TO.C,TP19*%
X186940000Y-115870000D03*
%TD*%
%TO.N,DIB_GND*%
%TO.C,TP3*%
X173990000Y-137990000D03*
%TD*%
%TO.N,~{POST_OE}*%
%TO.C,TP6*%
X176330000Y-74000000D03*
%TD*%
D14*
%TO.N,+VLED*%
%TO.C,LED4*%
X62930000Y-72730000D03*
%TO.N,Net-(LED4B-C)*%
X62930000Y-75270000D03*
%TO.N,+VLED*%
X65470000Y-72730000D03*
%TO.N,Net-(LED4A-C)*%
X65470000Y-75270000D03*
%TD*%
D27*
%TO.N,+3V3*%
%TO.C,JP6*%
X191430000Y-78640000D03*
D28*
%TO.N,OE_TRIG*%
X189430000Y-78640000D03*
%TD*%
D27*
%TO.N,+3V3*%
%TO.C,JP8*%
X191420000Y-76130000D03*
D28*
%TO.N,PREG_OE*%
X189420000Y-76130000D03*
%TD*%
D13*
%TO.N,/DIB isolators\u002C EEPROM\u002C ADC\u002C MCU/ADC_IRQ*%
%TO.C,TP2*%
X162980000Y-134030000D03*
%TD*%
D24*
%TO.N,*%
%TO.C,KK10*%
X69500000Y-147000000D03*
%TD*%
D29*
%TO.N,POST_OUT+*%
%TO.C,F1*%
X106362500Y-111360000D03*
%TO.N,Net-(F1-Pad2)*%
X106362500Y-133860000D03*
%TD*%
D13*
%TO.N,Net-(TP14-P$1)*%
%TO.C,TP14*%
X68580000Y-92710000D03*
%TD*%
D30*
%TO.N,/Power pre-regulator/DC+*%
%TO.C,L1*%
X223803200Y-120149000D03*
%TO.N,DC_OUT*%
X223803200Y-105149000D03*
%TO.N,/Power pre-regulator/DC-*%
X233803200Y-120149000D03*
%TO.N,PREG_OUT-*%
X233803200Y-105149000D03*
%TD*%
D13*
%TO.N,DUTY_100*%
%TO.C,TP11*%
X211610000Y-57620000D03*
%TD*%
D31*
%TO.N,/Rsense protection\u002C power output\u002C Rprog/OUTC+*%
%TO.C,J1*%
X75900000Y-111950000D03*
D32*
X60600000Y-111950000D03*
D31*
%TO.N,/Rsense protection\u002C power output\u002C Rprog/SENSE_IN+*%
X83500000Y-111950000D03*
%TD*%
D27*
%TO.N,Net-(JP9-Pad1)*%
%TO.C,JP9*%
X195730000Y-78130000D03*
D28*
%TO.N,POST_OUT+*%
X195730000Y-76130000D03*
%TD*%
D13*
%TO.N,DC_OUT*%
%TO.C,TP10*%
X213868000Y-109220000D03*
%TD*%
D27*
%TO.N,+3V3*%
%TO.C,JP7*%
X191420000Y-81160000D03*
D28*
%TO.N,ISO_SYNC*%
X189420000Y-81160000D03*
%TD*%
D31*
%TO.N,/Rsense protection\u002C power output\u002C Rprog/OUTC-*%
%TO.C,J2*%
X75900000Y-131000000D03*
D32*
X60600000Y-131000000D03*
D31*
%TO.N,/Rsense protection\u002C power output\u002C Rprog/SENSE_IN-*%
X83500000Y-131000000D03*
%TD*%
D33*
%TO.N,/DIB isolators\u002C EEPROM\u002C ADC\u002C MCU/DIB_SYNC*%
X155140000Y-134600000D03*
X179260000Y-133400000D03*
%TO.N,DIB_GND*%
X193380000Y-136800000D03*
D34*
%TO.N,V+*%
X110850100Y-84383000D03*
X84391500Y-86169500D03*
X162221600Y-96206700D03*
D33*
X144907000Y-114930000D03*
D34*
X79000000Y-70750000D03*
D33*
X190268800Y-89260000D03*
D34*
X194564000Y-101650800D03*
X165070000Y-103990000D03*
X112253450Y-71238500D03*
X166603100Y-96206700D03*
X119809950Y-84383000D03*
X145440000Y-96117800D03*
D33*
X194564000Y-88011000D03*
D34*
%TO.N,GND*%
X78280000Y-73020000D03*
D33*
X180530000Y-100520000D03*
D34*
X142539135Y-122038433D03*
X195697000Y-111932800D03*
X84292500Y-75989000D03*
D33*
X139325000Y-106600000D03*
D34*
X210164100Y-132960500D03*
D33*
X186300000Y-92730313D03*
D34*
X73600000Y-79240000D03*
D33*
X200998600Y-74799300D03*
X191900000Y-87254600D03*
X182497200Y-104728581D03*
D34*
X112400000Y-81940000D03*
X110340000Y-71180000D03*
D33*
X182570000Y-76860000D03*
X176380000Y-93550000D03*
X175440000Y-116180000D03*
D34*
X205028800Y-107238800D03*
X85982900Y-92903400D03*
X86445300Y-86423500D03*
X209362200Y-113331800D03*
X195697000Y-109583300D03*
X164579300Y-94691200D03*
X201845600Y-126039000D03*
D33*
X179780000Y-118940000D03*
X151170000Y-115500000D03*
X186137400Y-103191083D03*
D34*
X181254000Y-74246400D03*
X92928500Y-76624000D03*
X132402000Y-116793400D03*
X201083600Y-126039000D03*
D33*
X180910000Y-89450000D03*
X153225500Y-112877600D03*
X190210000Y-90185400D03*
D34*
X143108100Y-95419300D03*
D33*
X190210000Y-87260000D03*
X191055000Y-90175400D03*
D34*
X162330000Y-99650000D03*
X130478100Y-106277800D03*
X201830000Y-117510000D03*
D33*
X181254000Y-77738900D03*
D34*
X122318000Y-59671350D03*
D33*
X151961008Y-114861782D03*
D34*
X198110000Y-113139300D03*
X112340000Y-79170000D03*
D33*
X161074100Y-116840000D03*
D34*
X198110000Y-109583300D03*
X204200000Y-117025000D03*
D33*
X169976800Y-119634000D03*
X154863800Y-111150400D03*
D34*
X77766400Y-75519738D03*
D33*
X154863800Y-112826800D03*
D34*
X127812800Y-121202800D03*
D33*
X186450000Y-104940000D03*
D34*
X195697000Y-113075800D03*
D33*
X166268000Y-87073400D03*
D34*
X141690000Y-117990000D03*
X147153200Y-88154900D03*
D33*
X141490000Y-99020000D03*
D34*
X105791000Y-81335000D03*
D33*
X119214500Y-124601900D03*
D34*
X198120000Y-107061000D03*
X136150000Y-117052200D03*
X115301600Y-87202400D03*
X119278000Y-76913400D03*
X90083700Y-94581800D03*
X121190000Y-81660000D03*
D33*
X180350000Y-104110000D03*
X172068527Y-102184195D03*
X153225500Y-111163100D03*
D34*
X154703200Y-103770000D03*
X207284300Y-113331800D03*
X173056152Y-59323900D03*
X73304400Y-103555800D03*
D33*
X149017900Y-117462300D03*
X144800000Y-98760000D03*
D34*
X210926100Y-133722500D03*
X137725952Y-102444772D03*
X108330000Y-60350000D03*
D33*
X202930000Y-82690000D03*
X179270000Y-95340000D03*
D34*
X120820000Y-60240000D03*
X210164100Y-133722500D03*
X89550000Y-69540000D03*
X110285100Y-69143000D03*
X89471500Y-79629000D03*
X198110000Y-110726300D03*
X75847000Y-92880000D03*
X200321600Y-126039000D03*
D33*
X180070000Y-90570000D03*
D34*
X215493600Y-123901200D03*
X110271400Y-53459500D03*
X77840000Y-78550000D03*
D33*
X142000000Y-113450000D03*
D34*
X215493600Y-123088400D03*
X83248500Y-120904000D03*
X130610000Y-103270000D03*
X196265800Y-107289600D03*
X135466400Y-123503300D03*
X198110000Y-111932800D03*
X110351054Y-67750000D03*
X195697000Y-110726300D03*
X208775000Y-118950000D03*
X137101400Y-120829800D03*
X215493600Y-122288300D03*
D33*
X145973800Y-101828600D03*
D34*
X184198500Y-60547450D03*
D33*
X177420000Y-101235805D03*
X191055000Y-87250000D03*
X177150000Y-102635805D03*
X181520000Y-92750313D03*
D34*
X124290000Y-59650000D03*
D33*
X145718993Y-105699023D03*
X176400000Y-91420000D03*
D34*
X206933800Y-105232200D03*
D33*
X191900000Y-90180000D03*
D34*
X79886900Y-96205400D03*
D33*
X159049566Y-121862972D03*
D34*
X210926100Y-132960500D03*
%TO.N,Net-(C62-Pad1)*%
X230063088Y-87622782D03*
X230063088Y-84320782D03*
X230063088Y-83495282D03*
D33*
X201610000Y-61180000D03*
D34*
X230634588Y-77843782D03*
X230063088Y-85971782D03*
X230063088Y-85146282D03*
X230063088Y-81844282D03*
X230063088Y-82669782D03*
X230063088Y-86797282D03*
X230634588Y-76256282D03*
X230634588Y-75430782D03*
X230063088Y-81018782D03*
X230063088Y-88448282D03*
X230063088Y-89273782D03*
X230634588Y-77081782D03*
%TO.N,PREG_OUT-*%
X218188588Y-94544282D03*
X143876450Y-50855000D03*
X229384588Y-66797379D03*
X222760588Y-73525782D03*
X229384588Y-65971879D03*
X213299088Y-73081282D03*
X145400450Y-50855000D03*
X220835588Y-87366186D03*
D33*
X172300500Y-82691900D03*
D34*
X228602588Y-64191282D03*
D33*
X212519488Y-78883182D03*
D34*
X213299088Y-71430282D03*
X218188588Y-90416782D03*
X216789000Y-123926600D03*
X224665588Y-85146282D03*
X218188588Y-95369782D03*
X220073588Y-88064686D03*
X221236588Y-73525782D03*
X228622588Y-66797379D03*
X224475088Y-94163282D03*
X225300588Y-96449282D03*
X221998588Y-73525782D03*
X224665588Y-83495282D03*
X216789000Y-123090400D03*
X224665588Y-88448282D03*
X221597588Y-88064686D03*
X218188588Y-88765782D03*
X218188588Y-97020782D03*
X219311588Y-88064686D03*
X229384588Y-64193879D03*
X216156588Y-71112782D03*
X224665588Y-84320782D03*
X224475088Y-96449282D03*
X144638450Y-50855000D03*
X218125088Y-86606782D03*
X224665588Y-80256782D03*
X224665588Y-89273782D03*
X143114450Y-50855000D03*
X220073588Y-87366186D03*
X208709488Y-74882682D03*
X227860588Y-66797379D03*
X219311588Y-87366186D03*
X218188588Y-89591282D03*
X218188588Y-91242282D03*
X218188588Y-92067782D03*
X218950588Y-71430282D03*
X224665588Y-82669782D03*
X146162450Y-50855000D03*
X218125088Y-87368782D03*
X220835588Y-88064686D03*
X222359588Y-87366186D03*
X224665588Y-81844282D03*
X218188588Y-92893282D03*
X227860588Y-65971879D03*
X216156588Y-71938282D03*
X221597588Y-87366186D03*
X216982088Y-71112782D03*
X208727088Y-72636782D03*
X224665588Y-85971782D03*
X224665588Y-87622782D03*
X223522588Y-73525782D03*
D33*
X170040000Y-95100000D03*
D34*
X227860588Y-64193879D03*
X224665588Y-86797282D03*
X225300588Y-94163282D03*
X218188588Y-96195282D03*
X224665588Y-81018782D03*
X215331088Y-71938282D03*
X216789000Y-122275600D03*
D33*
X231546400Y-123008600D03*
D34*
X222359588Y-88064686D03*
X216982088Y-71938282D03*
X124001100Y-53712500D03*
X218188588Y-93718782D03*
X215331088Y-71112782D03*
X228622588Y-65971879D03*
D33*
%TO.N,ISO_SYNC*%
X183340000Y-113930000D03*
X153210000Y-117050000D03*
%TO.N,OE_TRIG*%
X188632800Y-105559221D03*
D34*
%TO.N,~{POST_OE}*%
X159300600Y-73118100D03*
D33*
%TO.N,OE_ACTIVE*%
X149867946Y-112944594D03*
X177100000Y-75110000D03*
X155050000Y-79870000D03*
%TO.N,+3V3*%
X172681001Y-117259999D03*
X175510000Y-88690000D03*
D34*
X110090000Y-81790000D03*
D33*
X182632000Y-80492600D03*
X202907500Y-80086200D03*
X176080000Y-117259999D03*
X178962100Y-78437400D03*
X182330000Y-105750000D03*
X159240000Y-118550772D03*
X182680000Y-98230000D03*
D34*
X95102100Y-97487400D03*
X109245000Y-97487400D03*
X134599100Y-103090100D03*
D33*
X161660000Y-118550772D03*
X182680000Y-97540000D03*
X182650000Y-87630000D03*
X149085300Y-119024400D03*
X152146000Y-118550772D03*
X185830000Y-95140000D03*
X185258232Y-105885614D03*
D34*
X134611800Y-106481000D03*
D33*
X182650000Y-87070000D03*
X169633500Y-89295900D03*
D34*
X71687175Y-94525789D03*
D33*
X178400000Y-91490000D03*
X142958000Y-100421400D03*
D34*
X134581500Y-97487400D03*
D33*
%TO.N,DIB_GND*%
X175496518Y-136054359D03*
X143280000Y-146290000D03*
X176050000Y-130470000D03*
X169660000Y-138230000D03*
X191420000Y-129800000D03*
X180450000Y-141390000D03*
X188880000Y-140940000D03*
X185521600Y-135534400D03*
X160346112Y-133709556D03*
X122220000Y-146290000D03*
X179110000Y-127330000D03*
X169890376Y-131283800D03*
X185510000Y-131420000D03*
X137578400Y-146349998D03*
X149710000Y-134140000D03*
X118220000Y-146300000D03*
X162871400Y-137550000D03*
X179040000Y-141380000D03*
X129190000Y-146290000D03*
X175540000Y-127740000D03*
X172890000Y-128240000D03*
X191480000Y-134530000D03*
X179820000Y-124220000D03*
X171650196Y-137215408D03*
X186060000Y-139500000D03*
X180839200Y-136543494D03*
X126210000Y-146330000D03*
X148200000Y-146290000D03*
X159156400Y-130848950D03*
X186300000Y-137800000D03*
X192754080Y-139633399D03*
%TO.N,DIB_3V3*%
X185790000Y-141560000D03*
X191160000Y-132820000D03*
X161747200Y-131860200D03*
X174762614Y-125829232D03*
X174400000Y-128190000D03*
X180660000Y-125080000D03*
X170519149Y-136934005D03*
X184410000Y-137790000D03*
X181190900Y-139979400D03*
X120070000Y-141090000D03*
X119370000Y-141090000D03*
X150305376Y-131547600D03*
D34*
%TO.N,I_SET_OUT*%
X126136003Y-76889994D03*
D33*
X141630000Y-107670000D03*
D34*
X133604000Y-107569000D03*
D33*
%TO.N,~{OVP_FAULT}*%
X153678421Y-88675300D03*
X133883400Y-117576600D03*
X149760000Y-112190000D03*
X177190000Y-87460000D03*
X133880000Y-111380000D03*
D34*
%TO.N,Net-(C75-Pad1)*%
X186397500Y-61863900D03*
X156730000Y-73240000D03*
%TO.N,Net-(Q11-PadB)*%
X171094000Y-61612400D03*
X172427500Y-75325900D03*
%TO.N,POST_OUT+*%
X92798900Y-110439200D03*
X104423900Y-102489000D03*
X146219600Y-55236500D03*
D33*
X129755500Y-56593400D03*
D34*
X195152700Y-59872000D03*
X88074500Y-113919000D03*
X93624400Y-110439200D03*
X91973400Y-110439200D03*
D33*
X129057000Y-56593400D03*
D34*
X169316000Y-59265400D03*
X102988800Y-73143500D03*
X92583000Y-128143000D03*
D33*
X128358500Y-56593400D03*
D34*
%TO.N,SENSE_PROT*%
X162183500Y-83027600D03*
X178332998Y-61165400D03*
X174096100Y-75632700D03*
X90376766Y-83352136D03*
%TO.N,Net-(IC13A--IN)*%
X118413100Y-64634500D03*
X118413100Y-66603000D03*
%TO.N,V-*%
X85341550Y-85643371D03*
X123486600Y-62376100D03*
X193065000Y-99455894D03*
X148855000Y-88015200D03*
X167847700Y-86910300D03*
X123486600Y-85907000D03*
X113402800Y-85907000D03*
X113409150Y-76178800D03*
%TO.N,I_MON*%
X108516000Y-82401800D03*
X147383500Y-95097600D03*
X128401500Y-82363700D03*
X116940000Y-70171700D03*
D33*
%TO.N,+VREF*%
X137395745Y-107151339D03*
X182532253Y-100080000D03*
D34*
X140088200Y-100326700D03*
D33*
X175750000Y-99250000D03*
D34*
X140081000Y-96037400D03*
X118063700Y-92218900D03*
D33*
%TO.N,/DIB isolators\u002C EEPROM\u002C ADC\u002C MCU/~{ISO_ADC_CS}*%
X162750000Y-117462300D03*
X188825751Y-108955751D03*
X190190000Y-96420000D03*
X171704000Y-116814600D03*
%TO.N,Net-(IC1-~{DONE})*%
X187088604Y-95816700D03*
X187703114Y-100606017D03*
%TO.N,DC_OUT*%
X224550522Y-57790157D03*
D34*
X212854588Y-95369782D03*
D33*
X223936200Y-56510000D03*
D34*
X210965200Y-81209282D03*
D33*
X225167422Y-57788357D03*
X225170000Y-56508200D03*
D34*
X191012500Y-72076700D03*
X220411088Y-72192282D03*
X210965200Y-83685782D03*
X214061088Y-86606782D03*
X210965200Y-82860282D03*
X212854588Y-88765782D03*
X213934088Y-103053282D03*
X210965200Y-80383782D03*
X212854588Y-94544282D03*
X210965200Y-84511282D03*
X210965200Y-86162282D03*
X209252400Y-82860282D03*
X209252400Y-83685782D03*
D33*
X225958400Y-123008600D03*
D34*
X212854588Y-96195282D03*
X210965200Y-85336782D03*
X209252400Y-85336782D03*
D33*
X223933622Y-57790157D03*
D34*
X209252400Y-84511282D03*
X212854588Y-90416782D03*
X208068600Y-138441400D03*
X213045088Y-100894282D03*
X209252400Y-82034782D03*
X212854588Y-93718782D03*
X213934088Y-100894282D03*
X213045088Y-103053282D03*
D33*
X224553100Y-56510000D03*
D34*
X212854588Y-92893282D03*
X209252400Y-81209282D03*
X214061088Y-87368782D03*
X210965200Y-82034782D03*
X209252400Y-86162282D03*
X212854588Y-97020782D03*
X209252400Y-80383782D03*
X212854588Y-89591282D03*
X212854588Y-91242282D03*
X212854588Y-92067782D03*
X191012500Y-62081800D03*
%TO.N,SENSE-*%
X123659500Y-95025600D03*
D33*
X96560000Y-91400000D03*
D34*
X105346500Y-91884500D03*
D33*
X104150000Y-91010000D03*
X97870000Y-130290000D03*
%TO.N,POST_OUT-*%
X95072200Y-100304600D03*
X131025500Y-99709900D03*
X170150000Y-98690000D03*
X171900000Y-94060000D03*
X126111000Y-100482400D03*
D34*
X90805000Y-115722400D03*
%TO.N,SENSE+*%
X124040500Y-88256500D03*
X104020000Y-92860000D03*
D33*
X96020000Y-92470000D03*
D34*
X94805500Y-131381500D03*
X124040500Y-90860000D03*
%TO.N,Net-(K1A-C2)*%
X91440000Y-125158500D03*
X77266800Y-102108000D03*
X70040500Y-83840000D03*
X85471000Y-124079000D03*
D33*
%TO.N,+VLED*%
X117610000Y-126746000D03*
X181360000Y-118200000D03*
D34*
X94810000Y-120920000D03*
%TO.N,Net-(D14-PadC)*%
X134357800Y-76343900D03*
X149504000Y-62412000D03*
X143362100Y-62412000D03*
X134357800Y-75493000D03*
X134357800Y-74642100D03*
X134357800Y-78045700D03*
X143362100Y-72127500D03*
X134357800Y-77194800D03*
D33*
%TO.N,Net-(IC17A-O)*%
X130073000Y-101614900D03*
D34*
X92727200Y-99826200D03*
D33*
X91073000Y-75040000D03*
D34*
%TO.N,Net-(IC17B-O)*%
X92830000Y-98835600D03*
D33*
X91723000Y-74510000D03*
D34*
X132656000Y-105109400D03*
D33*
%TO.N,/Power pre-regulator/AGND*%
X213995000Y-59359800D03*
X211912200Y-64897000D03*
D34*
%TO.N,/Power pre-regulator/EN_ULVO*%
X219077588Y-70096782D03*
X201853800Y-73253600D03*
%TO.N,GCOM*%
X116260300Y-89704300D03*
X109791500Y-64507500D03*
X83689100Y-80129200D03*
X138320200Y-92892000D03*
X116260300Y-81081000D03*
%TO.N,/Power pre-regulator/LO*%
X223205088Y-85654282D03*
X214886588Y-75113282D03*
%TO.N,/Power pre-regulator/SW*%
X220347588Y-79939282D03*
X221173088Y-79939282D03*
X221173088Y-79113782D03*
X218696588Y-79113782D03*
X219522088Y-79939282D03*
X221998588Y-79113782D03*
X218696588Y-79939282D03*
X221998588Y-79939282D03*
X220347588Y-79113782D03*
X219522088Y-79113782D03*
%TO.N,CV_LED_OUT*%
X80329726Y-98849067D03*
X78858752Y-79890264D03*
D33*
X157522063Y-112328025D03*
%TO.N,/DIB isolators\u002C EEPROM\u002C ADC\u002C MCU/~{TEMP_CS}*%
X179170000Y-125730000D03*
X179570000Y-136120000D03*
%TO.N,~{ISO_TEMP_CS}*%
X186960000Y-107990000D03*
X178030000Y-116190000D03*
%TO.N,~{ISO_IOEXP_CS}*%
X176390000Y-113990000D03*
X150430000Y-113450000D03*
%TO.N,U_MON*%
X140022400Y-113450000D03*
X141757000Y-93115600D03*
X169870000Y-92810000D03*
D34*
%TO.N,-12V*%
X204235133Y-118946552D03*
D33*
X202971400Y-111302800D03*
D34*
X149851800Y-76216900D03*
X208408250Y-111397200D03*
D33*
%TO.N,PE*%
X228850200Y-123015600D03*
D34*
X72629500Y-122872500D03*
D33*
X116200000Y-142900000D03*
%TO.N,U_SET_OUT*%
X136550000Y-103966400D03*
X136050000Y-106975000D03*
D34*
%TO.N,U_SET*%
X117750165Y-95337600D03*
D33*
X138063201Y-113450000D03*
D34*
X129040000Y-104320000D03*
X91203200Y-93654000D03*
D33*
X170698527Y-101464195D03*
X139928598Y-104817300D03*
D34*
X131690800Y-104309300D03*
%TO.N,I_SET*%
X91698500Y-94644600D03*
D33*
X132461000Y-107162600D03*
D34*
X85835400Y-76966900D03*
X84286000Y-72750500D03*
D33*
X170590000Y-103930000D03*
X142367000Y-104546400D03*
D34*
X117035000Y-96117800D03*
D33*
%TO.N,~{ISO_DAC_CS}*%
X163626800Y-105781600D03*
X163614100Y-108160000D03*
%TO.N,ISO_SCLK1*%
X154292288Y-116307932D03*
X185660000Y-109100000D03*
X147680000Y-104388298D03*
X154406600Y-117602000D03*
%TO.N,ISO_MOSI1*%
X148450000Y-104660000D03*
X154917850Y-115732452D03*
X155530000Y-117010000D03*
%TO.N,/DAC\u002C OE\u002C Vref\u002C IOEXP\u002C Temp/~{SET_DP}*%
X155498800Y-87045800D03*
X159170000Y-111230000D03*
D34*
%TO.N,+VNR*%
X199570500Y-108757800D03*
X201752200Y-114935000D03*
X201218800Y-104749600D03*
D33*
%TO.N,/DIB isolators\u002C EEPROM\u002C ADC\u002C MCU/TYPE_ID*%
X189840000Y-134580000D03*
X181500000Y-134610000D03*
%TO.N,/DIB isolators\u002C EEPROM\u002C ADC\u002C MCU/~{DIB_RESET}*%
X150860001Y-138399999D03*
X189880000Y-132910000D03*
X176390000Y-139530000D03*
X183974967Y-133060449D03*
X130170000Y-138970000D03*
%TO.N,/DIB isolators\u002C EEPROM\u002C ADC\u002C MCU/DIB_MISO*%
X143184200Y-140201600D03*
X180390000Y-132760000D03*
%TO.N,/DIB isolators\u002C EEPROM\u002C ADC\u002C MCU/DIB_CSA*%
X180630751Y-131900751D03*
X142197300Y-140161600D03*
%TO.N,/DIB isolators\u002C EEPROM\u002C ADC\u002C MCU/DIB_SCLK*%
X168390000Y-140560000D03*
X138197300Y-144210000D03*
X177880000Y-133380000D03*
%TO.N,/DIB isolators\u002C EEPROM\u002C ADC\u002C MCU/MOSI1*%
X155067000Y-131292600D03*
X181460000Y-128890000D03*
%TO.N,/DIB isolators\u002C EEPROM\u002C ADC\u002C MCU/DIB_MOSI*%
X169914802Y-140618038D03*
X139197300Y-144230000D03*
X181028722Y-130569785D03*
%TO.N,/DIB isolators\u002C EEPROM\u002C ADC\u002C MCU/ADC_SCLK*%
X180213000Y-130530600D03*
X165018200Y-131298200D03*
%TO.N,/DIB isolators\u002C EEPROM\u002C ADC\u002C MCU/~{IOEXP_IRQ}*%
X179628800Y-128101000D03*
X157327600Y-131292600D03*
%TO.N,/DIB isolators\u002C EEPROM\u002C ADC\u002C MCU/ADC_MISO*%
X167436800Y-131292600D03*
X179374800Y-130606800D03*
%TO.N,/DIB isolators\u002C EEPROM\u002C ADC\u002C MCU/DIB_IRQ*%
X178792967Y-131780000D03*
X141269401Y-140161600D03*
%TO.N,/DIB isolators\u002C EEPROM\u002C ADC\u002C MCU/ADC_MOSI*%
X178238967Y-130404600D03*
X172790000Y-130670000D03*
%TO.N,/DIB isolators\u002C EEPROM\u002C ADC\u002C MCU/ADC_IRQ*%
X168732200Y-131292600D03*
X177825400Y-131038600D03*
%TO.N,/DIB isolators\u002C EEPROM\u002C ADC\u002C MCU/~{DIB_ALERT}*%
X165460000Y-132300000D03*
%TO.N,/DIB isolators\u002C EEPROM\u002C ADC\u002C MCU/DIB_UART_TX*%
X150490000Y-137190000D03*
X171636932Y-132001600D03*
%TO.N,/DIB isolators\u002C EEPROM\u002C ADC\u002C MCU/MISO1*%
X166640000Y-132820000D03*
X156032200Y-131292600D03*
%TO.N,/DIB isolators\u002C EEPROM\u002C ADC\u002C MCU/~{ADC_CS}*%
X164290000Y-131820000D03*
X162680000Y-131820000D03*
%TO.N,/DIB isolators\u002C EEPROM\u002C ADC\u002C MCU/~{DIB_FAULT}*%
X164810000Y-134310000D03*
X150460000Y-135000000D03*
%TO.N,/DIB isolators\u002C EEPROM\u002C ADC\u002C MCU/DIB_USB_D-*%
X172386098Y-134779641D03*
%TO.N,/DIB isolators\u002C EEPROM\u002C ADC\u002C MCU/DIB_USB_D+*%
X173139402Y-134846867D03*
%TO.N,/DIB isolators\u002C EEPROM\u002C ADC\u002C MCU/SWDIO*%
X175888400Y-135381002D03*
X186360000Y-130850000D03*
%TO.N,/DIB isolators\u002C EEPROM\u002C ADC\u002C MCU/SWCLK*%
X176615751Y-134695751D03*
%TO.N,/DIB isolators\u002C EEPROM\u002C ADC\u002C MCU/SWO*%
X176859001Y-136482241D03*
%TO.N,/DIB isolators\u002C EEPROM\u002C ADC\u002C MCU/AC_FREQ*%
X138709304Y-139639304D03*
X136790000Y-139670000D03*
%TO.N,/DIB isolators\u002C EEPROM\u002C ADC\u002C MCU/RESET_OUT*%
X177700000Y-136500000D03*
X155230000Y-138399999D03*
%TO.N,/DIB isolators\u002C EEPROM\u002C ADC\u002C MCU/SCL*%
X182050000Y-139090000D03*
X178040000Y-138860000D03*
%TO.N,/DIB isolators\u002C EEPROM\u002C ADC\u002C MCU/DIB_BOOT0*%
X165841400Y-138860000D03*
X165850000Y-141651200D03*
X178600000Y-136516019D03*
%TO.N,/DIB isolators\u002C EEPROM\u002C ADC\u002C MCU/~{ISO_ADC_IRQ}*%
X183470000Y-109060000D03*
X187130000Y-100040000D03*
%TO.N,/DIB isolators\u002C EEPROM\u002C ADC\u002C MCU/ISO_ADC_MISO*%
X182513790Y-108860272D03*
X186709249Y-98430751D03*
%TO.N,/DIB isolators\u002C EEPROM\u002C ADC\u002C MCU/ISO_ADC_MOSI*%
X186123200Y-98928458D03*
X180470000Y-108730000D03*
%TO.N,/DIB isolators\u002C EEPROM\u002C ADC\u002C MCU/ISO_ADC_SCLK*%
X186440000Y-97680000D03*
X183170000Y-108320000D03*
%TO.N,CV_ACTIVE*%
X170649500Y-87200400D03*
X149490000Y-111470000D03*
X152974425Y-88368350D03*
D34*
%TO.N,AUX_USET_SW*%
X94437223Y-104570681D03*
D33*
X157717344Y-114101600D03*
D34*
%TO.N,Net-(IC17B-I0)*%
X86254500Y-72052000D03*
X92840900Y-73154900D03*
D33*
%TO.N,AUX_ISET_SW*%
X156654500Y-114407790D03*
D34*
X95239800Y-105257600D03*
D33*
%TO.N,/Power pre-regulator/VCC*%
X210108800Y-70764400D03*
D34*
X205810000Y-97550000D03*
D33*
X215521588Y-74224282D03*
D34*
X211711588Y-76192782D03*
%TO.N,/Rsense protection\u002C power output\u002C Rprog/AUX_OUT*%
X118686000Y-94720800D03*
X90669800Y-92676100D03*
%TO.N,LOOP_CTRL*%
X151058300Y-88726400D03*
X164863200Y-76191500D03*
X156632546Y-89315956D03*
%TO.N,Net-(IC18B--IN)*%
X81746000Y-78170000D03*
X84522400Y-82870400D03*
X83016000Y-72750500D03*
%TO.N,Net-(IC19A-OUT)*%
X83255419Y-87890919D03*
X83270000Y-83418500D03*
D33*
%TO.N,CURR_LO*%
X157314900Y-109766100D03*
X108610574Y-102370800D03*
D34*
X107760000Y-61480000D03*
D33*
%TO.N,/Power pre-regulator/FB*%
X212900488Y-67490782D03*
X203796500Y-61165400D03*
D34*
%TO.N,/Power pre-regulator/HO*%
X217871088Y-74351282D03*
X217490088Y-80447282D03*
D33*
%TO.N,PREG_OE*%
X187050049Y-106238449D03*
D34*
%TO.N,/Rsense protection\u002C power output\u002C Rprog/SENSE_IN-*%
X97917000Y-133413500D03*
%TO.N,/Rsense protection\u002C power output\u002C Rprog/SENSE_IN+*%
X92519500Y-132588000D03*
D33*
%TO.N,RSENSE_ERR*%
X147137200Y-110502701D03*
D34*
X73661000Y-95402400D03*
%TO.N,Net-(C96-Pad2)*%
X82250700Y-94443381D03*
D33*
X112483500Y-96026900D03*
%TO.N,CC_ACTIVE*%
X169633500Y-87009900D03*
X149072600Y-110807500D03*
X152511600Y-87655400D03*
D34*
%TO.N,I_SERVO*%
X116882600Y-75010400D03*
X112229500Y-74627400D03*
D33*
%TO.N,Net-(IC3-INA)*%
X152845634Y-134578690D03*
X151310000Y-131420000D03*
%TO.N,/DIB isolators\u002C EEPROM\u002C ADC\u002C MCU/~{DIB_SHUTDOWN}*%
X125980000Y-138990000D03*
D34*
%TO.N,Net-(IC14B-+IN)*%
X133272100Y-88002500D03*
X133272100Y-92892000D03*
%TO.N,CURR_HI*%
X106990000Y-66010000D03*
D33*
X107619800Y-102514400D03*
X107167000Y-79840000D03*
X157637201Y-110450855D03*
D34*
X106652900Y-53471200D03*
D33*
%TO.N,RSENSE*%
X157581600Y-111201200D03*
D34*
X87147400Y-105460800D03*
%TO.N,Net-(IC24-PH)*%
X206354100Y-130611000D03*
X206354100Y-135119500D03*
%TO.N,CC_LED_OUT*%
X78866408Y-76463854D03*
X81434022Y-98491651D03*
D33*
X158315334Y-112428400D03*
%TO.N,Net-(C120-Pad1)*%
X213639400Y-126161800D03*
X201168000Y-120548400D03*
%TO.N,PWRGOOD*%
X212132600Y-130865000D03*
X150653026Y-110628400D03*
X186811600Y-83200000D03*
X183550000Y-110340000D03*
X188480000Y-110300000D03*
D34*
%TO.N,/DAC\u002C OE\u002C Vref\u002C IOEXP\u002C Temp/~{OE_LED_GREEN}*%
X80890000Y-102670000D03*
D33*
X146435704Y-107771500D03*
X146320000Y-112950800D03*
X154180692Y-107400957D03*
%TO.N,/DAC\u002C OE\u002C Vref\u002C IOEXP\u002C Temp/~{OE_LED_RED}*%
X146890000Y-113662000D03*
X147280000Y-107780000D03*
D34*
X79650000Y-101740000D03*
D33*
X154943900Y-107827800D03*
%TO.N,DUTY_100*%
X187786189Y-73343377D03*
X188020000Y-103980000D03*
X213817200Y-57607200D03*
X200177400Y-72999600D03*
%TO.N,ISO_MISO1*%
X150168167Y-116421071D03*
X186311600Y-108430000D03*
X156083000Y-119480000D03*
%TO.N,~{ISO_RESET}*%
X183391311Y-111197186D03*
X151141600Y-117150000D03*
X153691700Y-115722500D03*
X186750000Y-101290000D03*
%TD*%
%TO.N,/DIB isolators\u002C EEPROM\u002C ADC\u002C MCU/~{DIB_FAULT}*%
D35*
X150460000Y-135000000D02*
X150620000Y-135160000D01*
X150620000Y-135160000D02*
X163960000Y-135160000D01*
X163960000Y-135160000D02*
X164810000Y-134310000D01*
%TO.N,V+*%
D36*
X190743200Y-100713200D02*
X186236700Y-96206700D01*
X110850100Y-84383000D02*
X84391500Y-84383000D01*
X186156173Y-96206700D02*
X166522573Y-96206700D01*
X80291700Y-82298300D02*
X80291700Y-72041700D01*
D37*
X194564000Y-87062423D02*
X194564000Y-101650800D01*
X194564000Y-85904000D02*
X194564000Y-87062423D01*
X193043000Y-84383000D02*
X194564000Y-85904000D01*
X119809950Y-84383000D02*
X193043000Y-84383000D01*
D36*
X84391500Y-84383000D02*
X82376400Y-84383000D01*
D38*
X84391500Y-86169500D02*
X84391500Y-84383000D01*
D37*
X119809950Y-84383000D02*
X110850100Y-84383000D01*
D36*
X166603100Y-96206700D02*
X162221600Y-96206700D01*
X80291700Y-72041700D02*
X79000000Y-70750000D01*
X82376400Y-84383000D02*
X80291700Y-82298300D01*
X162221600Y-96206700D02*
X145528900Y-96206700D01*
X194045817Y-100713200D02*
X190743200Y-100713200D01*
X145528900Y-96206700D02*
X145440000Y-96117800D01*
%TO.N,Net-(C62-Pad1)*%
D39*
X201610000Y-63281600D02*
X201610000Y-61180000D01*
X225973688Y-73913132D02*
X220335756Y-68275200D01*
X220335756Y-68275200D02*
X206603600Y-68275200D01*
X206603600Y-68275200D02*
X201610000Y-63281600D01*
%TO.N,PREG_OUT-*%
X172237000Y-82564900D02*
X172237000Y-82628400D01*
X125880000Y-55194400D02*
X125880000Y-72794000D01*
X171919500Y-82247400D02*
X172237000Y-82564900D01*
X145400450Y-50855000D02*
X144638450Y-50855000D01*
X124001100Y-53712500D02*
X124398100Y-53712500D01*
X146162450Y-50855000D02*
X145400450Y-50855000D01*
X124398100Y-53712500D02*
X125880000Y-55194400D01*
X143876450Y-50855000D02*
X143114450Y-50855000D01*
D40*
X144632100Y-60240300D02*
X144632100Y-51312200D01*
D39*
X135333400Y-82247400D02*
X171919500Y-82247400D01*
X125880000Y-72794000D02*
X135333400Y-82247400D01*
X172237000Y-82628400D02*
X172300500Y-82691900D01*
X144638450Y-50855000D02*
X143876450Y-50855000D01*
%TO.N,ISO_SYNC*%
D35*
X183340000Y-113930000D02*
X181788900Y-115481100D01*
X153318400Y-116941600D02*
X153210000Y-117050000D01*
X156121100Y-115481100D02*
X154660600Y-116941600D01*
X154660600Y-116941600D02*
X153318400Y-116941600D01*
X181788900Y-115481100D02*
X156121100Y-115481100D01*
%TO.N,~{POST_OE}*%
D39*
X159300600Y-73118100D02*
X173248100Y-73118100D01*
X159300600Y-73118100D02*
X159315300Y-73103400D01*
X173248100Y-73118100D02*
X174130000Y-74000000D01*
X174130000Y-74000000D02*
X176330000Y-74000000D01*
%TO.N,OE_ACTIVE*%
D35*
X155050000Y-79870000D02*
X172340000Y-79870000D01*
X172340000Y-79870000D02*
X177100000Y-75110000D01*
%TO.N,+3V3*%
D39*
X191430000Y-78640000D02*
X191430000Y-80086200D01*
D41*
X184560000Y-105750000D02*
X184560000Y-114730000D01*
D38*
X95102100Y-97487400D02*
X78887400Y-97487400D01*
D39*
X191420000Y-80096200D02*
X191430000Y-80086200D01*
D38*
X142958000Y-97499400D02*
X142958000Y-100421400D01*
D36*
X172681001Y-117259999D02*
X171390228Y-118550772D01*
D35*
X186940000Y-115870000D02*
X185799999Y-114729999D01*
D36*
X171390228Y-118550772D02*
X161660000Y-118550772D01*
D38*
X182657400Y-80492600D02*
X182632000Y-80492600D01*
D36*
X182029999Y-117259999D02*
X172681001Y-117259999D01*
X149558928Y-118550772D02*
X149085300Y-119024400D01*
D41*
X184560000Y-100090000D02*
X182610000Y-98140000D01*
D36*
X152146000Y-118550772D02*
X149558928Y-118550772D01*
D38*
X184560000Y-105750000D02*
X185122618Y-105750000D01*
D37*
X144932000Y-97487400D02*
X182627400Y-97487400D01*
D39*
X191430000Y-76140000D02*
X191420000Y-76130000D01*
D37*
X144932000Y-97487400D02*
X139555481Y-97487400D01*
D38*
X134611800Y-103102800D02*
X134599100Y-103090100D01*
X185122618Y-105750000D02*
X185258232Y-105885614D01*
D35*
X185799999Y-114729999D02*
X184559999Y-114729999D01*
D38*
X183063800Y-80086200D02*
X182657400Y-80492600D01*
X191430000Y-80086200D02*
X183063800Y-80086200D01*
D39*
X191430000Y-78640000D02*
X191430000Y-76140000D01*
D35*
X169633500Y-89295900D02*
X174904100Y-89295900D01*
X174904100Y-89295900D02*
X175510000Y-88690000D01*
D36*
X159240000Y-118550772D02*
X161660000Y-118550772D01*
D38*
X142970000Y-97487400D02*
X142958000Y-97499400D01*
D36*
X159240000Y-118550772D02*
X152704800Y-118550772D01*
D37*
X182627400Y-97487400D02*
X182680000Y-97540000D01*
D38*
X202907500Y-80086200D02*
X191430000Y-80086200D01*
D37*
X139555481Y-97487400D02*
X95102100Y-97487400D01*
X182680000Y-98070000D02*
X182610000Y-98140000D01*
D36*
X152704800Y-118550772D02*
X152146000Y-118550772D01*
D38*
X75925789Y-94525789D02*
X71687175Y-94525789D01*
X182330000Y-105750000D02*
X184560000Y-105750000D01*
D37*
X182680000Y-97540000D02*
X182680000Y-98070000D01*
D38*
X78887400Y-97487400D02*
X75925789Y-94525789D01*
D41*
X184560000Y-105750000D02*
X184560000Y-100090000D01*
D36*
X184559999Y-114729999D02*
X182029999Y-117259999D01*
D39*
X191420000Y-81160000D02*
X191420000Y-80096200D01*
%TO.N,I_SET_OUT*%
D35*
X141410000Y-107890000D02*
X141630000Y-107670000D01*
X133925000Y-107890000D02*
X141410000Y-107890000D01*
X133604000Y-107569000D02*
X133925000Y-107890000D01*
%TO.N,~{OVP_FAULT}*%
X153678421Y-88509497D02*
X153678421Y-88675300D01*
X170307000Y-88493600D02*
X171340600Y-87460000D01*
X133997200Y-111497200D02*
X133880000Y-111380000D01*
X171340600Y-87460000D02*
X177190000Y-87460000D01*
X149760000Y-112190000D02*
X148974798Y-112190000D01*
X153694318Y-88493600D02*
X170307000Y-88493600D01*
X148974798Y-112190000D02*
X148281998Y-111497200D01*
X148281998Y-111497200D02*
X133997200Y-111497200D01*
%TO.N,Net-(C75-Pad1)*%
D42*
X183703100Y-64558300D02*
X165411700Y-64558300D01*
X165411700Y-64558300D02*
X156730000Y-73240000D01*
X186397500Y-61863900D02*
X183703100Y-64558300D01*
%TO.N,POST_OUT+*%
D39*
X188586800Y-58792500D02*
X194073200Y-58792500D01*
X195152700Y-60599900D02*
X191820800Y-63931800D01*
D43*
X88074500Y-123634500D02*
X88074500Y-114173000D01*
D39*
X191820800Y-70637400D02*
X195730000Y-74546600D01*
X195730000Y-74546600D02*
X195730000Y-76130000D01*
X155316900Y-58094000D02*
X153198000Y-60212900D01*
X169316000Y-58094000D02*
X187888300Y-58094000D01*
D43*
X92583000Y-128143000D02*
X88074500Y-123634500D01*
D39*
X187888300Y-58094000D02*
X188586800Y-58792500D01*
X194073200Y-58792500D02*
X195152700Y-59872000D01*
X169316000Y-58094000D02*
X169316000Y-58945400D01*
D44*
X92003000Y-110468800D02*
X105471300Y-110468800D01*
X105471300Y-110468800D02*
X106362500Y-111360000D01*
D39*
X191820800Y-63931800D02*
X191820800Y-70637400D01*
X195152700Y-59872000D02*
X195152700Y-60599900D01*
X169316000Y-58094000D02*
X155316900Y-58094000D01*
%TO.N,SENSE_PROT*%
X162021900Y-83189200D02*
X90539702Y-83189200D01*
X90539702Y-83189200D02*
X90376766Y-83352136D01*
X162183500Y-83027600D02*
X162021900Y-83189200D01*
%TO.N,Net-(IC13A--IN)*%
X118413100Y-66603000D02*
X118413100Y-64634500D01*
%TO.N,V-*%
D37*
X167517500Y-85907000D02*
X192277000Y-85907000D01*
D45*
X85341550Y-85634650D02*
X85544600Y-85431600D01*
D37*
X192277000Y-85907000D02*
X193065000Y-86695000D01*
X148670700Y-85907000D02*
X167517500Y-85907000D01*
D38*
X148867700Y-86104000D02*
X148670700Y-85907000D01*
D37*
X193065000Y-86695000D02*
X193065000Y-99455894D01*
D38*
X148855000Y-88015200D02*
X148867700Y-86104000D01*
D37*
X113402800Y-85907000D02*
X110608500Y-85907000D01*
D36*
X85544600Y-85431600D02*
X110133100Y-85431600D01*
D37*
X123486600Y-85907000D02*
X113402800Y-85907000D01*
D45*
X85341550Y-85643371D02*
X85341550Y-85634650D01*
D38*
X167847700Y-86910300D02*
X167847700Y-86237200D01*
X167847700Y-86237200D02*
X167517500Y-85907000D01*
D37*
X123486600Y-85907000D02*
X148670700Y-85907000D01*
D36*
X110133100Y-85431600D02*
X110608500Y-85907000D01*
%TO.N,I_MON*%
D39*
X108808100Y-82693900D02*
X108516000Y-82401800D01*
X117822400Y-82693900D02*
X117822400Y-71054100D01*
X128071300Y-82693900D02*
X128401500Y-82363700D01*
X117822400Y-82693900D02*
X108808100Y-82693900D01*
X117822400Y-71054100D02*
X116940000Y-70171700D01*
X117822400Y-82693900D02*
X128071300Y-82693900D01*
%TO.N,+VREF*%
D38*
X118063700Y-92218900D02*
X122125700Y-96280900D01*
X139837500Y-96280900D02*
X140081000Y-96037400D01*
X122125700Y-96280900D02*
X139837500Y-96280900D01*
%TO.N,/DIB isolators\u002C EEPROM\u002C ADC\u002C MCU/~{ISO_ADC_CS}*%
D35*
X171056300Y-117462300D02*
X162750000Y-117462300D01*
X171704000Y-116814600D02*
X171056300Y-117462300D01*
%TO.N,DC_OUT*%
D37*
X220400000Y-126110000D02*
X208068600Y-138441400D01*
X223803200Y-105149000D02*
X220400000Y-108552200D01*
X220400000Y-108552200D02*
X220400000Y-126110000D01*
%TO.N,SENSE-*%
D39*
X119989200Y-91355300D02*
X105875700Y-91355300D01*
X96560002Y-91400000D02*
X96950002Y-91010000D01*
X105875700Y-91355300D02*
X105346500Y-91884500D01*
X123659500Y-95025600D02*
X119989200Y-91355300D01*
X96950002Y-91010000D02*
X104150000Y-91010000D01*
D35*
X96560000Y-91400000D02*
X96560002Y-91400000D01*
%TO.N,POST_OUT-*%
D39*
X145019100Y-101106900D02*
X147436000Y-98690000D01*
X132422500Y-101106900D02*
X145019100Y-101106900D01*
D35*
X126111000Y-100482400D02*
X125933200Y-100304600D01*
D39*
X131025500Y-99709900D02*
X132422500Y-101106900D01*
X147436000Y-98690000D02*
X170150000Y-98690000D01*
D35*
X125933200Y-100304600D02*
X95072200Y-100304600D01*
%TO.N,SENSE+*%
D39*
X104020000Y-92046800D02*
X104020000Y-92860000D01*
X105206800Y-90860000D02*
X104020000Y-92046800D01*
X124040500Y-90860000D02*
X105206800Y-90860000D01*
X103630000Y-92470000D02*
X104020000Y-92860000D01*
X96020000Y-92470000D02*
X103630000Y-92470000D01*
%TO.N,Net-(K1A-C2)*%
X76479400Y-102108000D02*
X70040500Y-95669100D01*
X70040500Y-95669100D02*
X70040500Y-83840000D01*
X77266800Y-102108000D02*
X76479400Y-102108000D01*
%TO.N,+VLED*%
D38*
X77607000Y-104150000D02*
X80883600Y-104150000D01*
X173366600Y-118200000D02*
X181360000Y-118200000D01*
X66740000Y-93283000D02*
X77607000Y-104150000D01*
D43*
X65471100Y-72733600D02*
X68010000Y-75272500D01*
X62931100Y-72733600D02*
X65471100Y-72733600D01*
D38*
X139877800Y-126746000D02*
X117610000Y-126746000D01*
D43*
X68010000Y-75272500D02*
X68010000Y-79730000D01*
D38*
X94810000Y-118076400D02*
X94810000Y-120920000D01*
X173366600Y-118200000D02*
X170942000Y-120624600D01*
X170942000Y-120624600D02*
X145999200Y-120624600D01*
X80883600Y-104150000D02*
X94810000Y-118076400D01*
X68010000Y-79730000D02*
X66740000Y-81000000D01*
X145999200Y-120624600D02*
X139877800Y-126746000D01*
X66740000Y-81000000D02*
X66740000Y-93283000D01*
%TO.N,Net-(D14-PadC)*%
X143362100Y-72127500D02*
X143362100Y-62412000D01*
X143362100Y-62412000D02*
X149504000Y-62412000D01*
%TO.N,Net-(IC17A-O)*%
D36*
X65471100Y-79733600D02*
X65493500Y-79756000D01*
D39*
X127772100Y-99314000D02*
X130073000Y-101614900D01*
X92942770Y-99826200D02*
X93454970Y-99314000D01*
X93454970Y-99314000D02*
X127772100Y-99314000D01*
X92727200Y-99826200D02*
X92942770Y-99826200D01*
%TO.N,Net-(IC17B-O)*%
X132656000Y-105109400D02*
X132656000Y-102864400D01*
X132656000Y-102864400D02*
X128627200Y-98835600D01*
X128627200Y-98835600D02*
X92830000Y-98835600D01*
%TO.N,/Power pre-regulator/AGND*%
D35*
X211912200Y-64897000D02*
X211912200Y-61442600D01*
X211912200Y-61442600D02*
X213995000Y-59359800D01*
%TO.N,/Power pre-regulator/EN_ULVO*%
D39*
X205010618Y-70096782D02*
X201853800Y-73253600D01*
X219077588Y-70096782D02*
X205010618Y-70096782D01*
%TO.N,GCOM*%
D45*
X114710900Y-78330000D02*
X114670900Y-78290000D01*
X114710900Y-79531600D02*
X114710900Y-78676500D01*
X114710900Y-78676500D02*
X114710900Y-69426900D01*
X85528300Y-78290000D02*
X83689100Y-80129200D01*
X114710900Y-69426900D02*
X109791500Y-64507500D01*
X116260300Y-89704300D02*
X135132500Y-89704300D01*
X116260300Y-81081000D02*
X114710900Y-79531600D01*
X114670900Y-78290000D02*
X85528300Y-78290000D01*
X135132500Y-89704300D02*
X138320200Y-92892000D01*
%TO.N,/Power pre-regulator/LO*%
X214886588Y-75135788D02*
X216474088Y-76723288D01*
X216918588Y-85654282D02*
X223205088Y-85654282D01*
X216474088Y-76723288D02*
X216474088Y-85209782D01*
X216474088Y-85209782D02*
X216918588Y-85654282D01*
X214886588Y-75113282D02*
X214886588Y-75135788D01*
%TO.N,CV_LED_OUT*%
D35*
X157214300Y-108738400D02*
X158191200Y-109715300D01*
X123704180Y-101473000D02*
X130969580Y-108738400D01*
X158191200Y-111658888D02*
X157522063Y-112328025D01*
X90043000Y-99314000D02*
X92202000Y-101473000D01*
D39*
X80329726Y-98849067D02*
X80329726Y-98871726D01*
D35*
X92202000Y-101473000D02*
X123704180Y-101473000D01*
X158191200Y-109715300D02*
X158191200Y-111658888D01*
X80329726Y-98871726D02*
X80772000Y-99314000D01*
X80772000Y-99314000D02*
X90043000Y-99314000D01*
X130969580Y-108738400D02*
X157214300Y-108738400D01*
%TO.N,/DIB isolators\u002C EEPROM\u002C ADC\u002C MCU/~{TEMP_CS}*%
X182500000Y-132550000D02*
X182500000Y-128520000D01*
X182500000Y-128520000D02*
X179710000Y-125730000D01*
X179570000Y-136120000D02*
X179570000Y-135480000D01*
X179710000Y-125730000D02*
X179170000Y-125730000D01*
X179570000Y-135480000D02*
X182500000Y-132550000D01*
%TO.N,~{ISO_IOEXP_CS}*%
X175490000Y-113450000D02*
X175850000Y-113450000D01*
X175850000Y-113450000D02*
X176390000Y-113990000D01*
X175490000Y-113450000D02*
X150430000Y-113450000D01*
%TO.N,U_MON*%
D39*
X142022600Y-92850000D02*
X169830000Y-92850000D01*
X169830000Y-92850000D02*
X169870000Y-92810000D01*
X141757000Y-93115600D02*
X142022600Y-92850000D01*
%TO.N,-12V*%
D46*
X202590000Y-88899600D02*
X196180400Y-82490000D01*
D39*
X199390000Y-100970000D02*
X202570000Y-100970000D01*
D45*
X208408250Y-111397200D02*
X208408250Y-114773435D01*
D39*
X202570000Y-100970000D02*
X202590000Y-100950000D01*
D45*
X208408250Y-114773435D02*
X204235133Y-118946552D01*
D46*
X173981600Y-82490000D02*
X172850000Y-81358400D01*
X202590000Y-99060000D02*
X202590000Y-100950000D01*
X202590000Y-100950000D02*
X202590000Y-110921400D01*
X154993300Y-81358400D02*
X149851800Y-76216900D01*
X196180400Y-82490000D02*
X173981600Y-82490000D01*
X172850000Y-81358400D02*
X154993300Y-81358400D01*
X202590000Y-110921400D02*
X202971400Y-111302800D01*
X202590000Y-99060000D02*
X202590000Y-88899600D01*
%TO.N,PE*%
D45*
X227575800Y-124290000D02*
X224280000Y-124290000D01*
X228850200Y-123015600D02*
X227575800Y-124290000D01*
X71818500Y-142368500D02*
X75652400Y-146202400D01*
X71867500Y-122872500D02*
X72629500Y-122872500D01*
X106197600Y-146202400D02*
X109500000Y-142900000D01*
X64800000Y-94000000D02*
X71818500Y-101018500D01*
X75652400Y-146202400D02*
X106197600Y-146202400D01*
X205670000Y-142900000D02*
X116200000Y-142900000D01*
X71818500Y-101018500D02*
X71818500Y-142368500D01*
X109500000Y-142900000D02*
X116200000Y-142900000D01*
X224280000Y-124290000D02*
X205670000Y-142900000D01*
%TO.N,U_SET*%
D39*
X146096600Y-103583400D02*
X148190000Y-101490000D01*
X131680100Y-104320000D02*
X129040000Y-104320000D01*
X92308100Y-94136600D02*
X113856464Y-94136600D01*
X115050264Y-95330400D02*
X117742965Y-95330400D01*
X91203200Y-93654000D02*
X91825500Y-93654000D01*
X117742965Y-95330400D02*
X117750165Y-95337600D01*
X148190000Y-101490000D02*
X170672722Y-101490000D01*
X113856464Y-94136600D02*
X115050264Y-95330400D01*
X141162498Y-103583400D02*
X146096600Y-103583400D01*
X139928598Y-104817300D02*
X141162498Y-103583400D01*
X170672722Y-101490000D02*
X170698527Y-101464195D01*
X91825500Y-93654000D02*
X92308100Y-94136600D01*
%TO.N,I_SET*%
X148340000Y-102280000D02*
X168940000Y-102280000D01*
X117035000Y-96117800D02*
X115218600Y-96117800D01*
X113745400Y-94644600D02*
X91698500Y-94644600D01*
D35*
X132461000Y-107162600D02*
X133985000Y-105638600D01*
D39*
X84286000Y-72750500D02*
X85835400Y-74299900D01*
X85835400Y-74299900D02*
X85835400Y-76966900D01*
D35*
X133985000Y-105638600D02*
X141274800Y-105638600D01*
D39*
X115218600Y-96117800D02*
X113745400Y-94644600D01*
D35*
X141274800Y-105638600D02*
X142367000Y-104546400D01*
D39*
X168940000Y-102280000D02*
X170590000Y-103930000D01*
X146073600Y-104546400D02*
X148340000Y-102280000D01*
X142367000Y-104546400D02*
X146073600Y-104546400D01*
%TO.N,ISO_SCLK1*%
D35*
X154503094Y-117602000D02*
X154406600Y-117602000D01*
%TO.N,+VNR*%
D45*
X199570500Y-108757800D02*
X199570500Y-106397900D01*
D36*
X199570500Y-108757800D02*
X199570500Y-112753300D01*
X199570500Y-112753300D02*
X201752200Y-114935000D01*
D45*
X199570500Y-106397900D02*
X201218800Y-104749600D01*
%TO.N,/DIB isolators\u002C EEPROM\u002C ADC\u002C MCU/TYPE_ID*%
D35*
X181530000Y-134580000D02*
X189840000Y-134580000D01*
X181500000Y-134610000D02*
X181530000Y-134580000D01*
%TO.N,/DIB isolators\u002C EEPROM\u002C ADC\u002C MCU/~{DIB_RESET}*%
X184090000Y-132910000D02*
X190050000Y-132910000D01*
X183974967Y-133060449D02*
X183974967Y-133025033D01*
X183974967Y-133025033D02*
X184090000Y-132910000D01*
X183840000Y-133160000D02*
X183939551Y-133060449D01*
X183939551Y-133060449D02*
X183974967Y-133060449D01*
%TO.N,/DIB isolators\u002C EEPROM\u002C ADC\u002C MCU/DIB_MISO*%
X174056988Y-136278800D02*
X146821200Y-136278800D01*
X143184200Y-139915800D02*
X143184200Y-140201600D01*
X146821200Y-136278800D02*
X143184200Y-139915800D01*
X177575788Y-132760000D02*
X174056988Y-136278800D01*
X180390000Y-132760000D02*
X177575788Y-132760000D01*
%TO.N,/DIB isolators\u002C EEPROM\u002C ADC\u002C MCU/DIB_CSA*%
X177434092Y-132398800D02*
X179696728Y-132398800D01*
X173909692Y-135923200D02*
X177434092Y-132398800D01*
X142197300Y-140161600D02*
X142197300Y-140052700D01*
X179696728Y-132398800D02*
X180194777Y-131900751D01*
X146326800Y-135923200D02*
X173909692Y-135923200D01*
X180194777Y-131900751D02*
X180630751Y-131900751D01*
X142197300Y-140052700D02*
X146326800Y-135923200D01*
%TO.N,/DIB isolators\u002C EEPROM\u002C ADC\u002C MCU/ADC_MISO*%
X167436800Y-131394200D02*
X167436800Y-131343400D01*
%TO.N,/DIB isolators\u002C EEPROM\u002C ADC\u002C MCU/DIB_IRQ*%
X178792967Y-131780000D02*
X177550000Y-131780000D01*
X145872400Y-135567600D02*
X141278400Y-140161600D01*
X141278400Y-140161600D02*
X141269401Y-140161600D01*
X173762400Y-135567600D02*
X145872400Y-135567600D01*
X177550000Y-131780000D02*
X173762400Y-135567600D01*
%TO.N,/DIB isolators\u002C EEPROM\u002C ADC\u002C MCU/ADC_MOSI*%
X177474393Y-129898598D02*
X173561402Y-129898598D01*
X178238967Y-130404600D02*
X177980395Y-130404600D01*
X173561402Y-129898598D02*
X172790000Y-130670000D01*
X177980395Y-130404600D02*
X177474393Y-129898598D01*
%TO.N,/DIB isolators\u002C EEPROM\u002C ADC\u002C MCU/ADC_IRQ*%
X163550000Y-133460000D02*
X162980000Y-134030000D01*
X164970000Y-133470000D02*
X164960000Y-133460000D01*
X168732200Y-131947800D02*
X167210000Y-133470000D01*
X164960000Y-133460000D02*
X163550000Y-133460000D01*
X167210000Y-133470000D02*
X164970000Y-133470000D01*
X168732200Y-131292600D02*
X168732200Y-131947800D01*
%TO.N,/DIB isolators\u002C EEPROM\u002C ADC\u002C MCU/MISO1*%
X166500000Y-132960000D02*
X157699600Y-132960000D01*
X157699600Y-132960000D02*
X156032200Y-131292600D01*
X166640000Y-132820000D02*
X166500000Y-132960000D01*
%TO.N,/DIB isolators\u002C EEPROM\u002C ADC\u002C MCU/SWO*%
X176859001Y-136312787D02*
X176859001Y-136482241D01*
%TO.N,/DIB isolators\u002C EEPROM\u002C ADC\u002C MCU/RESET_OUT*%
X166096800Y-138246800D02*
X155383199Y-138246800D01*
X155383199Y-138246800D02*
X155230000Y-138399999D01*
X175290000Y-138910000D02*
X166760000Y-138910000D01*
X177700000Y-136500000D02*
X175290000Y-138910000D01*
X166760000Y-138910000D02*
X166096800Y-138246800D01*
%TO.N,/DIB isolators\u002C EEPROM\u002C ADC\u002C MCU/DIB_BOOT0*%
X178600000Y-136516019D02*
X175822419Y-139293600D01*
X166275000Y-139293600D02*
X165841400Y-138860000D01*
X175822419Y-139293600D02*
X166275000Y-139293600D01*
%TO.N,CV_ACTIVE*%
X153319075Y-88023700D02*
X152974425Y-88368350D01*
X170649500Y-87200400D02*
X169826200Y-88023700D01*
X169826200Y-88023700D02*
X153319075Y-88023700D01*
%TO.N,AUX_USET_SW*%
X148076894Y-111963200D02*
X131668494Y-111963200D01*
X124302494Y-104597200D02*
X94712800Y-104597200D01*
X157717344Y-114101600D02*
X157421344Y-113805600D01*
X157421344Y-113805600D02*
X151015902Y-113805600D01*
X150135294Y-114021600D02*
X148076894Y-111963200D01*
X150799902Y-114021600D02*
X150135294Y-114021600D01*
X151015902Y-113805600D02*
X150799902Y-114021600D01*
X94712800Y-104597200D02*
X94686281Y-104570681D01*
X131668494Y-111963200D02*
X124302494Y-104597200D01*
X94686281Y-104570681D02*
X94437223Y-104570681D01*
%TO.N,AUX_ISET_SW*%
X147929600Y-112318800D02*
X131521200Y-112318800D01*
X149988000Y-114377200D02*
X147929600Y-112318800D01*
X95869200Y-104978200D02*
X95589800Y-105257600D01*
X156407910Y-114161200D02*
X151163196Y-114161200D01*
X131521200Y-112318800D02*
X124180600Y-104978200D01*
X156654500Y-114407790D02*
X156407910Y-114161200D01*
X124180600Y-104978200D02*
X95869200Y-104978200D01*
X150947196Y-114377200D02*
X149988000Y-114377200D01*
X151163196Y-114161200D02*
X150947196Y-114377200D01*
X95589800Y-105257600D02*
X95239800Y-105257600D01*
%TO.N,/Power pre-regulator/VCC*%
D39*
X212600588Y-76192782D02*
X214569088Y-74224282D01*
D38*
X206273000Y-80028582D02*
X206273000Y-97087000D01*
X206273000Y-97087000D02*
X205810000Y-97550000D01*
D39*
X215521588Y-74224282D02*
X214569088Y-74224282D01*
X212600588Y-76192782D02*
X211203588Y-76192782D01*
D38*
X211203588Y-76192782D02*
X211711588Y-76192782D01*
X211203588Y-76192782D02*
X210108800Y-76192782D01*
D35*
X210108800Y-70764400D02*
X210108800Y-76192782D01*
D38*
X210108800Y-76192782D02*
X206273000Y-80028582D01*
%TO.N,/Rsense protection\u002C power output\u002C Rprog/AUX_OUT*%
D39*
X92536700Y-93628600D02*
X113923200Y-93628600D01*
X114852000Y-94557400D02*
X118522600Y-94557400D01*
X118522600Y-94557400D02*
X118686000Y-94720800D01*
X113923200Y-93628600D02*
X114852000Y-94557400D01*
X90822200Y-92828500D02*
X91736600Y-92828500D01*
X91736600Y-92828500D02*
X92536700Y-93628600D01*
X90669800Y-92676100D02*
X90822200Y-92828500D01*
%TO.N,LOOP_CTRL*%
X151058300Y-88726400D02*
X151647856Y-89315956D01*
X151647856Y-89315956D02*
X156632546Y-89315956D01*
%TO.N,Net-(IC18B--IN)*%
X81746000Y-80094000D02*
X81746000Y-78170000D01*
X84522400Y-82870400D02*
X81746000Y-80094000D01*
X83016000Y-72750500D02*
X83002300Y-72750500D01*
X83002300Y-72750500D02*
X81746000Y-74006800D01*
X81746000Y-74006800D02*
X81746000Y-78170000D01*
%TO.N,CURR_LO*%
D35*
X124388332Y-102660046D02*
X108899820Y-102660046D01*
X108899820Y-102660046D02*
X108610574Y-102370800D01*
X156642800Y-109094000D02*
X130822286Y-109094000D01*
X157314900Y-109766100D02*
X156642800Y-109094000D01*
X130822286Y-109094000D02*
X124388332Y-102660046D01*
%TO.N,/Power pre-regulator/FB*%
D39*
X203796500Y-64629900D02*
X203796500Y-61165400D01*
X206657382Y-67490782D02*
X203796500Y-64629900D01*
X212900488Y-67490782D02*
X206657382Y-67490782D01*
%TO.N,/Power pre-regulator/HO*%
D45*
X217481588Y-80438782D02*
X217490088Y-80447282D01*
X217481588Y-74740782D02*
X217481588Y-80438782D01*
X217481588Y-74740782D02*
X217871088Y-74351282D01*
%TO.N,/Rsense protection\u002C power output\u002C Rprog/SENSE_IN-*%
D43*
X83500000Y-131000000D02*
X85913500Y-133413500D01*
X85913500Y-133413500D02*
X97917000Y-133413500D01*
%TO.N,/Rsense protection\u002C power output\u002C Rprog/SENSE_IN+*%
X86614000Y-115064000D02*
X86614000Y-126682500D01*
X83500000Y-111950000D02*
X86614000Y-115064000D01*
X86614000Y-126682500D02*
X92519500Y-132588000D01*
%TO.N,RSENSE_ERR*%
D35*
X83204200Y-103454200D02*
X124176698Y-103454200D01*
X124176698Y-103454200D02*
X130823698Y-110101200D01*
X73661000Y-95402400D02*
X75152400Y-95402400D01*
X146735699Y-110101200D02*
X147137200Y-110502701D01*
X75152400Y-95402400D02*
X83204200Y-103454200D01*
X130823698Y-110101200D02*
X146735699Y-110101200D01*
%TO.N,Net-(C96-Pad2)*%
D39*
X112483500Y-96026900D02*
X83834900Y-96026900D01*
X83834900Y-96026900D02*
X82251381Y-94443381D01*
X82251381Y-94443381D02*
X82250700Y-94443381D01*
%TO.N,CC_ACTIVE*%
D35*
X152524300Y-87642700D02*
X152511600Y-87655400D01*
X169000700Y-87642700D02*
X152524300Y-87642700D01*
X169633500Y-87009900D02*
X169000700Y-87642700D01*
%TO.N,CURR_HI*%
X157637201Y-110450855D02*
X157604046Y-110417700D01*
X124247792Y-103022400D02*
X108127800Y-103022400D01*
D39*
X106997500Y-53815800D02*
X106997500Y-66002500D01*
D35*
X130674992Y-109449600D02*
X124247792Y-103022400D01*
X157604046Y-110417700D02*
X157044998Y-110417700D01*
X156076898Y-109449600D02*
X130674992Y-109449600D01*
X108127800Y-103022400D02*
X107619800Y-102514400D01*
D39*
X106997500Y-66002500D02*
X106990000Y-66010000D01*
X106652900Y-53471200D02*
X106997500Y-53815800D01*
D35*
X157044998Y-110417700D02*
X156076898Y-109449600D01*
%TO.N,RSENSE*%
X157535906Y-111201200D02*
X157581600Y-111201200D01*
X147874900Y-111141600D02*
X149209300Y-109807200D01*
X130879604Y-110660000D02*
X134497900Y-110660000D01*
X155931604Y-109807200D02*
X156897704Y-110773300D01*
X88798400Y-103809800D02*
X124029404Y-103809800D01*
X149209300Y-109807200D02*
X155931604Y-109807200D01*
X134979500Y-111141600D02*
X147874900Y-111141600D01*
X124029404Y-103809800D02*
X130879604Y-110660000D01*
X156897704Y-110773300D02*
X157108006Y-110773300D01*
X87147400Y-105460800D02*
X88798400Y-103809800D01*
X134497900Y-110660000D02*
X134979500Y-111141600D01*
X157108006Y-110773300D02*
X157535906Y-111201200D01*
%TO.N,Net-(IC24-PH)*%
D36*
X206354100Y-135119500D02*
X206354100Y-130611000D01*
%TO.N,CC_LED_OUT*%
D35*
X124431774Y-101697700D02*
X124433188Y-101697700D01*
X81494371Y-98552000D02*
X81811871Y-98869500D01*
X123851474Y-101117400D02*
X124431774Y-101697700D01*
X81811871Y-98869500D02*
X90297000Y-98869500D01*
X157421800Y-108381800D02*
X158570000Y-109530000D01*
X131117288Y-108381800D02*
X157421800Y-108381800D01*
D39*
X81494371Y-98552000D02*
X81434022Y-98491651D01*
D35*
X90297000Y-98869500D02*
X92544900Y-101117400D01*
X158570000Y-112173734D02*
X158315334Y-112428400D01*
X158570000Y-109530000D02*
X158570000Y-112173734D01*
X124433188Y-101697700D02*
X131117288Y-108381800D01*
X92544900Y-101117400D02*
X123851474Y-101117400D01*
%TO.N,Net-(C120-Pad1)*%
X201218800Y-120548400D02*
X201168000Y-120548400D01*
X206832200Y-126161800D02*
X201218800Y-120548400D01*
X213639400Y-126161800D02*
X206832200Y-126161800D01*
%TO.N,PWRGOOD*%
X155970426Y-111810426D02*
X151876426Y-111810426D01*
X210425000Y-130865000D02*
X197104000Y-117544000D01*
X157240000Y-113080000D02*
X155970426Y-111810426D01*
X183011568Y-110340000D02*
X180271568Y-113080000D01*
X197104000Y-108839000D02*
X197104000Y-85674200D01*
X197104000Y-117544000D02*
X197104000Y-108839000D01*
X190590000Y-110300000D02*
X188480000Y-110300000D01*
X197104000Y-108839000D02*
X192051000Y-108839000D01*
X212132600Y-130865000D02*
X210425000Y-130865000D01*
X192051000Y-108839000D02*
X190590000Y-110300000D01*
X194629800Y-83200000D02*
X186811600Y-83200000D01*
X151876426Y-111810426D02*
X150694400Y-110628400D01*
X197104000Y-85674200D02*
X194629800Y-83200000D01*
X183550000Y-110340000D02*
X183011568Y-110340000D01*
X180271568Y-113080000D02*
X157240000Y-113080000D01*
X150694400Y-110628400D02*
X150653026Y-110628400D01*
%TO.N,/DAC\u002C OE\u002C Vref\u002C IOEXP\u002C Temp/~{OE_LED_GREEN}*%
X154180692Y-107400957D02*
X154047735Y-107268000D01*
X81232894Y-102670000D02*
X80890000Y-102670000D01*
X85322894Y-106760000D02*
X81232894Y-102670000D01*
X120190000Y-114150000D02*
X112800000Y-106760000D01*
X147078804Y-107128400D02*
X146435704Y-107771500D01*
X154180692Y-107400957D02*
X153963849Y-107617800D01*
X143010000Y-114150000D02*
X120190000Y-114150000D01*
X146320000Y-112950800D02*
X144209200Y-112950800D01*
X148410200Y-107617800D02*
X147920800Y-107128400D01*
X147920800Y-107128400D02*
X147078804Y-107128400D01*
X153963849Y-107617800D02*
X148410200Y-107617800D01*
X112800000Y-106760000D02*
X85322894Y-106760000D01*
X144209200Y-112950800D02*
X143010000Y-114150000D01*
%TO.N,/DAC\u002C OE\u002C Vref\u002C IOEXP\u002C Temp/~{OE_LED_RED}*%
X146890000Y-113662000D02*
X144028000Y-113662000D01*
X81410000Y-103420000D02*
X80620000Y-103420000D01*
X120040000Y-114510000D02*
X112650000Y-107120000D01*
X154745500Y-108026200D02*
X147878800Y-108026200D01*
X79650000Y-102450000D02*
X79650000Y-101740000D01*
X85110000Y-107120000D02*
X81410000Y-103420000D01*
X144028000Y-113662000D02*
X143180000Y-114510000D01*
X80620000Y-103420000D02*
X79650000Y-102450000D01*
X154746500Y-108025200D02*
X154943900Y-107827800D01*
X143180000Y-114510000D02*
X120040000Y-114510000D01*
D39*
X79820000Y-101910000D02*
X79650000Y-101740000D01*
D35*
X154943900Y-107827800D02*
X154745500Y-108026200D01*
X147632600Y-107780000D02*
X147280000Y-107780000D01*
X112650000Y-107120000D02*
X85110000Y-107120000D01*
X147878800Y-108026200D02*
X147632600Y-107780000D01*
%TO.N,DUTY_100*%
X213815400Y-57609000D02*
X203821000Y-57609000D01*
X203821000Y-57609000D02*
X200177400Y-61252600D01*
X213817200Y-57607200D02*
X213815400Y-57609000D01*
X200177400Y-61252600D02*
X200177400Y-72999600D01*
%TO.N,~{ISO_RESET}*%
X152547500Y-115722500D02*
X151141600Y-117128400D01*
X183318497Y-111270000D02*
X183391311Y-111197186D01*
X178735305Y-115121985D02*
X182587290Y-111270000D01*
X154292215Y-115121985D02*
X178735305Y-115121985D01*
X153691700Y-115722500D02*
X152547500Y-115722500D01*
X182587290Y-111270000D02*
X183318497Y-111270000D01*
X151141600Y-117128400D02*
X151141600Y-117150000D01*
X153691700Y-115722500D02*
X154292215Y-115121985D01*
%TD*%
%TA.AperFunction,Conductor*%
%TO.N,/Power pre-regulator/SW*%
G36*
X222852613Y-74542050D02*
G01*
X222860857Y-74542591D01*
X222869028Y-74543395D01*
X222883476Y-74545297D01*
X222963633Y-74555850D01*
X222979777Y-74559061D01*
X222995599Y-74563301D01*
X223011201Y-74568597D01*
X223087826Y-74600337D01*
X223102597Y-74607620D01*
X223116782Y-74615809D01*
X223130470Y-74624955D01*
X223206179Y-74683049D01*
X223212540Y-74688270D01*
X223218731Y-74693700D01*
X223224743Y-74699332D01*
X223428529Y-74903118D01*
X223434162Y-74909131D01*
X223439598Y-74915329D01*
X223444832Y-74921707D01*
X223502908Y-74997393D01*
X223512064Y-75011096D01*
X223520243Y-75025262D01*
X223527534Y-75040045D01*
X223559269Y-75116660D01*
X223564567Y-75132266D01*
X223568806Y-75148086D01*
X223572021Y-75164251D01*
X223584472Y-75258821D01*
X223585280Y-75267027D01*
X223585818Y-75275235D01*
X223586088Y-75283476D01*
X223586088Y-84783882D01*
X223585481Y-84796234D01*
X223584274Y-84808487D01*
X223582459Y-84820719D01*
X223574830Y-84859068D01*
X223562901Y-84892883D01*
X223555936Y-84906199D01*
X223506640Y-84957290D01*
X223440360Y-84973739D01*
X223421212Y-84973142D01*
X223400558Y-84970782D01*
X223330947Y-84956936D01*
X223312255Y-84953218D01*
X223274873Y-84945782D01*
X223274871Y-84945782D01*
X223274869Y-84945782D01*
X223135307Y-84945782D01*
X223135304Y-84945782D01*
X223135301Y-84945782D01*
X223054062Y-84961942D01*
X223000622Y-84972572D01*
X222998687Y-84972921D01*
X222998419Y-84973010D01*
X222868705Y-85026741D01*
X222851103Y-85032555D01*
X222819766Y-85040405D01*
X222789149Y-85044182D01*
X217316111Y-85044182D01*
X217280610Y-85039077D01*
X217252590Y-85030849D01*
X217198996Y-84999049D01*
X217190122Y-84990175D01*
X217179262Y-84977793D01*
X217128761Y-84911979D01*
X217119611Y-84898284D01*
X217111425Y-84884104D01*
X217104136Y-84869321D01*
X217098525Y-84855773D01*
X217091358Y-84832146D01*
X217086607Y-84808261D01*
X217084188Y-84783688D01*
X217084188Y-82047189D01*
X217086609Y-82022608D01*
X217091358Y-81998733D01*
X217098524Y-81975105D01*
X217104142Y-81961543D01*
X217111420Y-81946783D01*
X217119620Y-81932580D01*
X217128764Y-81918894D01*
X217186862Y-81843180D01*
X217192067Y-81836838D01*
X217197495Y-81830648D01*
X217203105Y-81824658D01*
X218039798Y-80987967D01*
X218188588Y-80839177D01*
X218188588Y-80585933D01*
X218189194Y-80573591D01*
X218191009Y-80555165D01*
X218198588Y-80517063D01*
X218198588Y-80377501D01*
X218191009Y-80339398D01*
X218189195Y-80320979D01*
X218188588Y-80308629D01*
X218188588Y-75283476D01*
X218188858Y-75275237D01*
X218189396Y-75267027D01*
X218190204Y-75258820D01*
X218202655Y-75164242D01*
X218205866Y-75148095D01*
X218210108Y-75132261D01*
X218215398Y-75116678D01*
X218247144Y-75040035D01*
X218254431Y-75025262D01*
X218262615Y-75011087D01*
X218271757Y-74997404D01*
X218329875Y-74921662D01*
X218335075Y-74915329D01*
X218340512Y-74909129D01*
X218346115Y-74903148D01*
X218549954Y-74699309D01*
X218555935Y-74693706D01*
X218562142Y-74688262D01*
X218568468Y-74683069D01*
X218644210Y-74624951D01*
X218657893Y-74615809D01*
X218660136Y-74614513D01*
X218672073Y-74607622D01*
X218686841Y-74600338D01*
X218763484Y-74568592D01*
X218779067Y-74563302D01*
X218794901Y-74559060D01*
X218811044Y-74555849D01*
X218869359Y-74548172D01*
X218893787Y-74544957D01*
X218893787Y-74544956D01*
X218905647Y-74543395D01*
X218913804Y-74542592D01*
X218922068Y-74542050D01*
X218930284Y-74541782D01*
X222844392Y-74541782D01*
X222852613Y-74542050D01*
G37*
%TD.AperFunction*%
%TD*%
%TA.AperFunction,Conductor*%
%TO.N,DIB_3V3*%
G36*
X184406617Y-123442846D02*
G01*
X184443162Y-123493146D01*
X184443162Y-123555320D01*
X184437121Y-123569904D01*
X184353097Y-123734810D01*
X184353096Y-123734812D01*
X184277681Y-123966914D01*
X184277678Y-123966928D01*
X184239500Y-124207968D01*
X184239500Y-124452031D01*
X184277678Y-124693071D01*
X184277681Y-124693085D01*
X184353096Y-124925187D01*
X184353097Y-124925189D01*
X184463886Y-125142626D01*
X184463891Y-125142634D01*
X184463894Y-125142639D01*
X184498975Y-125190924D01*
X184607343Y-125340081D01*
X184607345Y-125340083D01*
X184779917Y-125512655D01*
X184977361Y-125656106D01*
X184977367Y-125656109D01*
X184977373Y-125656113D01*
X185194810Y-125766902D01*
X185194812Y-125766903D01*
X185426914Y-125842318D01*
X185426916Y-125842318D01*
X185426924Y-125842321D01*
X185667968Y-125880499D01*
X185667970Y-125880500D01*
X185832592Y-125880500D01*
X185891723Y-125899713D01*
X185928268Y-125950013D01*
X185928268Y-126012187D01*
X185927560Y-126014286D01*
X185894174Y-126109699D01*
X185891301Y-126140344D01*
X185891300Y-126140352D01*
X185891300Y-127599644D01*
X185891301Y-127599655D01*
X185894173Y-127630298D01*
X185894173Y-127630300D01*
X185894174Y-127630301D01*
X185897316Y-127639279D01*
X185939346Y-127759395D01*
X185995409Y-127835358D01*
X186020562Y-127869438D01*
X186130605Y-127950654D01*
X186259699Y-127995826D01*
X186290347Y-127998700D01*
X187749652Y-127998699D01*
X187780301Y-127995826D01*
X187909395Y-127950654D01*
X188019438Y-127869438D01*
X188100654Y-127759395D01*
X188145826Y-127630301D01*
X188148700Y-127599653D01*
X188148699Y-126781162D01*
X188431300Y-126781162D01*
X188431300Y-126958837D01*
X188459090Y-127134298D01*
X188459093Y-127134310D01*
X188513993Y-127303272D01*
X188594641Y-127461555D01*
X188594646Y-127461563D01*
X188594649Y-127461568D01*
X188640315Y-127524421D01*
X188699074Y-127605297D01*
X188699076Y-127605299D01*
X188824701Y-127730924D01*
X188968432Y-127835351D01*
X188968438Y-127835354D01*
X188968444Y-127835358D01*
X189126728Y-127916006D01*
X189126729Y-127916006D01*
X189126730Y-127916007D01*
X189295695Y-127970908D01*
X189295700Y-127970908D01*
X189295701Y-127970909D01*
X189471162Y-127998699D01*
X189471167Y-127998700D01*
X189471169Y-127998700D01*
X189648833Y-127998700D01*
X189648837Y-127998699D01*
X189824305Y-127970908D01*
X189993270Y-127916007D01*
X190084670Y-127869437D01*
X190151555Y-127835358D01*
X190151557Y-127835356D01*
X190151568Y-127835351D01*
X190295299Y-127730924D01*
X190420924Y-127605299D01*
X190525351Y-127461568D01*
X190562626Y-127388412D01*
X190606006Y-127303272D01*
X190616613Y-127270628D01*
X190660908Y-127134305D01*
X190688700Y-126958831D01*
X190688700Y-126781169D01*
X190660908Y-126605695D01*
X190606007Y-126436730D01*
X190606006Y-126436729D01*
X190606006Y-126436727D01*
X190525358Y-126278444D01*
X190525354Y-126278438D01*
X190525351Y-126278432D01*
X190440890Y-126162182D01*
X190420925Y-126134702D01*
X190295297Y-126009074D01*
X190214006Y-125950013D01*
X190151568Y-125904649D01*
X190151563Y-125904646D01*
X190151555Y-125904641D01*
X189993271Y-125823993D01*
X189993272Y-125823993D01*
X189824310Y-125769093D01*
X189824298Y-125769090D01*
X189648837Y-125741300D01*
X189648831Y-125741300D01*
X189471169Y-125741300D01*
X189471162Y-125741300D01*
X189295701Y-125769090D01*
X189295689Y-125769093D01*
X189126727Y-125823993D01*
X188968444Y-125904641D01*
X188968429Y-125904651D01*
X188824702Y-126009074D01*
X188699074Y-126134702D01*
X188594651Y-126278429D01*
X188594641Y-126278444D01*
X188513993Y-126436727D01*
X188459093Y-126605689D01*
X188459090Y-126605701D01*
X188431300Y-126781162D01*
X188148699Y-126781162D01*
X188148699Y-126140348D01*
X188145826Y-126109699D01*
X188100654Y-125980605D01*
X188019438Y-125870562D01*
X187977887Y-125839896D01*
X187909395Y-125789346D01*
X187780301Y-125744174D01*
X187749653Y-125741300D01*
X187749647Y-125741300D01*
X186794995Y-125741300D01*
X186735864Y-125722087D01*
X186699319Y-125671787D01*
X186699319Y-125609613D01*
X186735864Y-125559313D01*
X186788765Y-125520878D01*
X186800083Y-125512655D01*
X186972655Y-125340083D01*
X187116106Y-125142639D01*
X187193751Y-124990250D01*
X187237713Y-124946289D01*
X187299122Y-124936562D01*
X187354520Y-124964789D01*
X187364772Y-124976793D01*
X187429074Y-125065297D01*
X187429076Y-125065299D01*
X187554701Y-125190924D01*
X187698432Y-125295351D01*
X187698438Y-125295354D01*
X187698444Y-125295358D01*
X187856728Y-125376006D01*
X187856729Y-125376006D01*
X187856730Y-125376007D01*
X188025695Y-125430908D01*
X188025700Y-125430908D01*
X188025701Y-125430909D01*
X188201162Y-125458699D01*
X188201167Y-125458700D01*
X188201169Y-125458700D01*
X188378833Y-125458700D01*
X188378837Y-125458699D01*
X188554305Y-125430908D01*
X188723270Y-125376007D01*
X188793776Y-125340083D01*
X188881555Y-125295358D01*
X188881557Y-125295356D01*
X188881568Y-125295351D01*
X189025299Y-125190924D01*
X189150924Y-125065299D01*
X189255351Y-124921568D01*
X189260645Y-124911179D01*
X189336006Y-124763272D01*
X189348864Y-124723700D01*
X189390908Y-124594305D01*
X189418700Y-124418831D01*
X189418700Y-124241169D01*
X189390908Y-124065695D01*
X189336007Y-123896730D01*
X189336006Y-123896729D01*
X189336006Y-123896727D01*
X189255358Y-123738444D01*
X189255354Y-123738438D01*
X189255351Y-123738432D01*
X189150924Y-123594701D01*
X189150923Y-123594700D01*
X189148358Y-123591696D01*
X189149307Y-123590885D01*
X189123365Y-123539970D01*
X189133091Y-123478562D01*
X189177055Y-123434598D01*
X189222726Y-123423633D01*
X189897274Y-123423633D01*
X189956405Y-123442846D01*
X189992950Y-123493146D01*
X189992950Y-123555320D01*
X189970996Y-123591144D01*
X189971642Y-123591696D01*
X189969076Y-123594700D01*
X189864651Y-123738429D01*
X189864641Y-123738444D01*
X189783993Y-123896727D01*
X189729093Y-124065689D01*
X189729090Y-124065701D01*
X189701300Y-124241162D01*
X189701300Y-124418837D01*
X189729090Y-124594298D01*
X189729093Y-124594310D01*
X189783993Y-124763272D01*
X189864641Y-124921555D01*
X189864646Y-124921563D01*
X189864649Y-124921568D01*
X189914552Y-124990253D01*
X189969074Y-125065297D01*
X189969076Y-125065299D01*
X190094701Y-125190924D01*
X190238432Y-125295351D01*
X190238438Y-125295354D01*
X190238444Y-125295358D01*
X190396728Y-125376006D01*
X190396729Y-125376006D01*
X190396730Y-125376007D01*
X190565695Y-125430908D01*
X190565700Y-125430908D01*
X190565701Y-125430909D01*
X190741162Y-125458699D01*
X190741167Y-125458700D01*
X190741169Y-125458700D01*
X190918833Y-125458700D01*
X190918837Y-125458699D01*
X191094305Y-125430908D01*
X191263270Y-125376007D01*
X191333776Y-125340083D01*
X191421555Y-125295358D01*
X191421557Y-125295356D01*
X191421568Y-125295351D01*
X191565299Y-125190924D01*
X191690924Y-125065299D01*
X191795351Y-124921568D01*
X191800645Y-124911179D01*
X191876006Y-124763272D01*
X191888864Y-124723700D01*
X191930908Y-124594305D01*
X191958700Y-124418831D01*
X191958700Y-124241169D01*
X191930908Y-124065695D01*
X191876007Y-123896730D01*
X191876006Y-123896729D01*
X191876006Y-123896727D01*
X191795358Y-123738444D01*
X191795354Y-123738438D01*
X191795351Y-123738432D01*
X191690924Y-123594701D01*
X191690923Y-123594700D01*
X191688358Y-123591696D01*
X191689307Y-123590885D01*
X191663365Y-123539970D01*
X191673091Y-123478562D01*
X191717055Y-123434598D01*
X191762726Y-123423633D01*
X192437274Y-123423633D01*
X192496405Y-123442846D01*
X192532950Y-123493146D01*
X192532950Y-123555320D01*
X192510996Y-123591144D01*
X192511642Y-123591696D01*
X192509076Y-123594700D01*
X192404651Y-123738429D01*
X192404641Y-123738444D01*
X192323993Y-123896727D01*
X192269093Y-124065689D01*
X192269090Y-124065701D01*
X192241300Y-124241162D01*
X192241300Y-124418837D01*
X192269090Y-124594298D01*
X192269093Y-124594310D01*
X192323993Y-124763272D01*
X192404641Y-124921555D01*
X192404646Y-124921563D01*
X192404649Y-124921568D01*
X192454552Y-124990253D01*
X192509074Y-125065297D01*
X192509076Y-125065299D01*
X192634701Y-125190924D01*
X192778432Y-125295351D01*
X192778438Y-125295354D01*
X192778444Y-125295358D01*
X192936728Y-125376006D01*
X192936729Y-125376006D01*
X192936730Y-125376007D01*
X193105695Y-125430908D01*
X193105700Y-125430908D01*
X193105701Y-125430909D01*
X193281162Y-125458699D01*
X193281167Y-125458700D01*
X193281169Y-125458700D01*
X193458833Y-125458700D01*
X193458837Y-125458699D01*
X193634305Y-125430908D01*
X193803270Y-125376007D01*
X193873776Y-125340083D01*
X193961555Y-125295358D01*
X193961557Y-125295356D01*
X193961568Y-125295351D01*
X194105299Y-125190924D01*
X194230924Y-125065299D01*
X194335351Y-124921568D01*
X194356365Y-124880324D01*
X194400328Y-124836362D01*
X194461737Y-124826635D01*
X194517134Y-124854862D01*
X194545361Y-124910259D01*
X194546600Y-124925997D01*
X194546600Y-125425202D01*
X194527387Y-125484333D01*
X194477087Y-125520878D01*
X194461738Y-125524563D01*
X194283761Y-125552753D01*
X194283747Y-125552756D01*
X194081587Y-125618442D01*
X193892182Y-125714949D01*
X193892181Y-125714950D01*
X193720209Y-125839894D01*
X193569894Y-125990209D01*
X193444950Y-126162181D01*
X193444949Y-126162182D01*
X193348444Y-126351584D01*
X193327775Y-126415195D01*
X193291229Y-126465494D01*
X193232098Y-126484706D01*
X193172967Y-126465492D01*
X193142466Y-126429780D01*
X193065351Y-126278432D01*
X192980890Y-126162182D01*
X192960925Y-126134702D01*
X192835297Y-126009074D01*
X192754006Y-125950013D01*
X192691568Y-125904649D01*
X192691563Y-125904646D01*
X192691555Y-125904641D01*
X192533271Y-125823993D01*
X192533272Y-125823993D01*
X192364310Y-125769093D01*
X192364298Y-125769090D01*
X192188837Y-125741300D01*
X192188831Y-125741300D01*
X192011169Y-125741300D01*
X192011162Y-125741300D01*
X191835701Y-125769090D01*
X191835689Y-125769093D01*
X191666727Y-125823993D01*
X191508444Y-125904641D01*
X191508429Y-125904651D01*
X191364702Y-126009074D01*
X191239074Y-126134702D01*
X191134651Y-126278429D01*
X191134641Y-126278444D01*
X191053993Y-126436727D01*
X190999093Y-126605689D01*
X190999090Y-126605701D01*
X190971300Y-126781162D01*
X190971300Y-126958837D01*
X190999090Y-127134298D01*
X190999093Y-127134310D01*
X191053993Y-127303272D01*
X191134641Y-127461555D01*
X191134646Y-127461563D01*
X191134649Y-127461568D01*
X191180315Y-127524421D01*
X191239074Y-127605297D01*
X191239076Y-127605299D01*
X191364701Y-127730924D01*
X191508432Y-127835351D01*
X191508438Y-127835354D01*
X191508444Y-127835358D01*
X191666728Y-127916006D01*
X191666729Y-127916006D01*
X191666730Y-127916007D01*
X191835695Y-127970908D01*
X191835700Y-127970908D01*
X191835701Y-127970909D01*
X192011162Y-127998699D01*
X192011167Y-127998700D01*
X192011169Y-127998700D01*
X192188833Y-127998700D01*
X192188837Y-127998699D01*
X192364305Y-127970908D01*
X192533270Y-127916007D01*
X192624670Y-127869437D01*
X192691555Y-127835358D01*
X192691557Y-127835356D01*
X192691568Y-127835351D01*
X192835299Y-127730924D01*
X192960924Y-127605299D01*
X193065351Y-127461568D01*
X193142465Y-127310220D01*
X193186427Y-127266258D01*
X193247835Y-127256531D01*
X193303233Y-127284757D01*
X193327775Y-127324805D01*
X193348443Y-127388413D01*
X193444949Y-127577817D01*
X193444950Y-127577818D01*
X193569894Y-127749790D01*
X193720209Y-127900105D01*
X193892181Y-128025049D01*
X193892182Y-128025050D01*
X194081587Y-128121557D01*
X194283747Y-128187243D01*
X194283749Y-128187243D01*
X194283757Y-128187246D01*
X194395176Y-128204893D01*
X194461738Y-128215436D01*
X194517135Y-128243662D01*
X194545361Y-128299060D01*
X194546600Y-128314797D01*
X194546600Y-141399442D01*
X194545739Y-141412577D01*
X194539918Y-141456775D01*
X194531006Y-141524439D01*
X194524203Y-141549815D01*
X194483558Y-141647895D01*
X194470417Y-141670645D01*
X194405763Y-141754857D01*
X194387179Y-141773429D01*
X194302922Y-141838031D01*
X194280163Y-141851157D01*
X194182057Y-141891737D01*
X194156676Y-141898523D01*
X194044812Y-141913182D01*
X194031676Y-141914035D01*
X180889643Y-141905499D01*
X180830524Y-141886248D01*
X180794012Y-141835924D01*
X180794052Y-141773750D01*
X180818570Y-141733768D01*
X180853060Y-141699279D01*
X180919373Y-141584421D01*
X180953700Y-141456313D01*
X180953700Y-141323687D01*
X180919373Y-141195579D01*
X180911433Y-141181827D01*
X180853061Y-141080723D01*
X180853060Y-141080721D01*
X180759279Y-140986940D01*
X180668358Y-140934447D01*
X180644423Y-140920628D01*
X180644422Y-140920627D01*
X180644421Y-140920627D01*
X180584969Y-140904696D01*
X180516315Y-140886300D01*
X180516313Y-140886300D01*
X180383687Y-140886300D01*
X180383684Y-140886300D01*
X180255575Y-140920628D01*
X180140723Y-140986938D01*
X180140722Y-140986939D01*
X180140721Y-140986940D01*
X180046940Y-141080721D01*
X180046939Y-141080722D01*
X180046938Y-141080723D01*
X179980628Y-141195575D01*
X179946300Y-141323684D01*
X179946300Y-141456315D01*
X179971354Y-141549815D01*
X179977947Y-141574421D01*
X179980628Y-141584424D01*
X180046938Y-141699276D01*
X180046940Y-141699279D01*
X180080855Y-141733194D01*
X180109080Y-141788590D01*
X180099354Y-141849998D01*
X180055390Y-141893962D01*
X180009654Y-141904927D01*
X179470565Y-141904577D01*
X179411446Y-141885326D01*
X179374934Y-141835002D01*
X179374974Y-141772828D01*
X179399492Y-141732846D01*
X179443060Y-141689279D01*
X179509373Y-141574421D01*
X179543700Y-141446313D01*
X179543700Y-141313687D01*
X179509373Y-141185579D01*
X179507207Y-141181828D01*
X179443061Y-141070723D01*
X179443060Y-141070721D01*
X179349279Y-140976940D01*
X179325240Y-140963061D01*
X179234424Y-140910628D01*
X179234421Y-140910627D01*
X179200099Y-140901430D01*
X179106315Y-140876300D01*
X179106313Y-140876300D01*
X178973687Y-140876300D01*
X178973684Y-140876300D01*
X178845575Y-140910628D01*
X178730723Y-140976938D01*
X178730722Y-140976939D01*
X178730721Y-140976940D01*
X178636940Y-141070721D01*
X178636939Y-141070722D01*
X178636938Y-141070723D01*
X178570628Y-141185575D01*
X178536300Y-141313684D01*
X178536300Y-141446315D01*
X178570628Y-141574424D01*
X178636938Y-141689276D01*
X178636940Y-141689279D01*
X178679945Y-141732284D01*
X178708170Y-141787680D01*
X178698444Y-141849088D01*
X178654480Y-141893052D01*
X178608744Y-141904017D01*
X166436884Y-141896111D01*
X166377765Y-141876860D01*
X166341253Y-141826536D01*
X166339777Y-141769473D01*
X166353700Y-141717513D01*
X166353700Y-141584887D01*
X166319373Y-141456779D01*
X166319103Y-141456312D01*
X166253718Y-141343061D01*
X166253060Y-141341921D01*
X166159279Y-141248140D01*
X166159276Y-141248138D01*
X166044424Y-141181828D01*
X166044421Y-141181827D01*
X166010099Y-141172630D01*
X165916315Y-141147500D01*
X165916313Y-141147500D01*
X165783687Y-141147500D01*
X165783684Y-141147500D01*
X165655575Y-141181828D01*
X165540723Y-141248138D01*
X165540722Y-141248139D01*
X165540721Y-141248140D01*
X165446940Y-141341921D01*
X165446939Y-141341922D01*
X165446938Y-141341923D01*
X165380628Y-141456775D01*
X165346300Y-141584884D01*
X165346300Y-141717516D01*
X165360018Y-141768710D01*
X165356764Y-141830799D01*
X165317637Y-141879118D01*
X165262781Y-141895348D01*
X155242489Y-141888841D01*
X122447028Y-141867539D01*
X122398181Y-141851633D01*
X122389514Y-141851633D01*
X122381579Y-141851633D01*
X118204591Y-141851633D01*
X118191461Y-141850772D01*
X118155913Y-141846092D01*
X118079650Y-141836051D01*
X118054284Y-141829254D01*
X117956237Y-141788642D01*
X117933494Y-141775512D01*
X117877155Y-141732282D01*
X117849294Y-141710903D01*
X117830729Y-141692338D01*
X117766120Y-141608138D01*
X117752990Y-141585395D01*
X117712378Y-141487348D01*
X117705581Y-141461981D01*
X117690861Y-141350172D01*
X117690000Y-141337041D01*
X117690000Y-139603684D01*
X136286300Y-139603684D01*
X136286300Y-139736315D01*
X136320628Y-139864424D01*
X136386938Y-139979276D01*
X136386940Y-139979279D01*
X136480721Y-140073060D01*
X136480723Y-140073061D01*
X136595575Y-140139371D01*
X136595576Y-140139371D01*
X136595579Y-140139373D01*
X136723687Y-140173700D01*
X136856313Y-140173700D01*
X136984421Y-140139373D01*
X137099279Y-140073060D01*
X137193060Y-139979279D01*
X137259373Y-139864421D01*
X137293700Y-139736313D01*
X137293700Y-139603687D01*
X137293699Y-139603681D01*
X137290686Y-139592437D01*
X137290685Y-139592435D01*
X137285474Y-139572988D01*
X138205604Y-139572988D01*
X138205604Y-139705619D01*
X138239932Y-139833728D01*
X138306242Y-139948580D01*
X138306244Y-139948583D01*
X138400025Y-140042364D01*
X138400027Y-140042365D01*
X138514879Y-140108675D01*
X138514880Y-140108675D01*
X138514883Y-140108677D01*
X138642991Y-140143004D01*
X138775617Y-140143004D01*
X138903725Y-140108677D01*
X138926922Y-140095284D01*
X140765701Y-140095284D01*
X140765701Y-140227915D01*
X140800029Y-140356024D01*
X140866196Y-140470628D01*
X140866341Y-140470879D01*
X140960122Y-140564660D01*
X140960124Y-140564661D01*
X141074976Y-140630971D01*
X141074977Y-140630971D01*
X141074980Y-140630973D01*
X141203088Y-140665300D01*
X141335714Y-140665300D01*
X141463822Y-140630973D01*
X141578680Y-140564660D01*
X141662219Y-140481120D01*
X141717612Y-140452897D01*
X141779021Y-140462622D01*
X141804481Y-140481120D01*
X141888021Y-140564660D01*
X141888023Y-140564661D01*
X142002875Y-140630971D01*
X142002876Y-140630971D01*
X142002879Y-140630973D01*
X142130987Y-140665300D01*
X142263613Y-140665300D01*
X142391721Y-140630973D01*
X142506579Y-140564660D01*
X142600360Y-140470879D01*
X142600361Y-140470876D01*
X142605022Y-140466216D01*
X142606497Y-140467691D01*
X142649914Y-140437845D01*
X142712067Y-140439464D01*
X142761398Y-140477306D01*
X142765609Y-140483978D01*
X142781140Y-140510879D01*
X142874921Y-140604660D01*
X142874923Y-140604661D01*
X142989775Y-140670971D01*
X142989776Y-140670971D01*
X142989779Y-140670973D01*
X143117887Y-140705300D01*
X143250513Y-140705300D01*
X143378621Y-140670973D01*
X143493479Y-140604660D01*
X143587260Y-140510879D01*
X143597187Y-140493684D01*
X167886300Y-140493684D01*
X167886300Y-140626315D01*
X167920628Y-140754424D01*
X167986938Y-140869276D01*
X167986940Y-140869279D01*
X168080721Y-140963060D01*
X168080723Y-140963061D01*
X168195575Y-141029371D01*
X168195576Y-141029371D01*
X168195579Y-141029373D01*
X168323687Y-141063700D01*
X168456313Y-141063700D01*
X168584421Y-141029373D01*
X168699279Y-140963060D01*
X168793060Y-140869279D01*
X168859373Y-140754421D01*
X168893700Y-140626313D01*
X168893700Y-140551722D01*
X169411102Y-140551722D01*
X169411102Y-140684353D01*
X169445430Y-140812462D01*
X169507880Y-140920628D01*
X169511742Y-140927317D01*
X169605523Y-141021098D01*
X169605525Y-141021099D01*
X169720377Y-141087409D01*
X169720378Y-141087409D01*
X169720381Y-141087411D01*
X169848489Y-141121738D01*
X169981115Y-141121738D01*
X170109223Y-141087411D01*
X170224081Y-141021098D01*
X170317862Y-140927317D01*
X170348827Y-140873684D01*
X188376300Y-140873684D01*
X188376300Y-141006315D01*
X188410628Y-141134424D01*
X188445934Y-141195575D01*
X188476940Y-141249279D01*
X188570721Y-141343060D01*
X188609007Y-141365164D01*
X188685575Y-141409371D01*
X188685576Y-141409371D01*
X188685579Y-141409373D01*
X188813687Y-141443700D01*
X188946313Y-141443700D01*
X189074421Y-141409373D01*
X189189279Y-141343060D01*
X189283060Y-141249279D01*
X189349373Y-141134421D01*
X189383700Y-141006313D01*
X189383700Y-140873687D01*
X189349373Y-140745579D01*
X189326117Y-140705299D01*
X189283061Y-140630723D01*
X189283060Y-140630721D01*
X189189279Y-140536940D01*
X189189276Y-140536938D01*
X189074424Y-140470628D01*
X189074421Y-140470627D01*
X189040099Y-140461430D01*
X188946315Y-140436300D01*
X188946313Y-140436300D01*
X188813687Y-140436300D01*
X188813684Y-140436300D01*
X188685575Y-140470628D01*
X188570723Y-140536938D01*
X188570722Y-140536939D01*
X188570721Y-140536940D01*
X188476940Y-140630721D01*
X188476939Y-140630722D01*
X188476938Y-140630723D01*
X188410628Y-140745575D01*
X188376300Y-140873684D01*
X170348827Y-140873684D01*
X170384175Y-140812459D01*
X170418502Y-140684351D01*
X170418502Y-140551725D01*
X170384175Y-140423617D01*
X170317862Y-140308759D01*
X170224081Y-140214978D01*
X170224078Y-140214976D01*
X170109226Y-140148666D01*
X170109223Y-140148665D01*
X170066055Y-140137098D01*
X169981117Y-140114338D01*
X169981115Y-140114338D01*
X169848489Y-140114338D01*
X169848486Y-140114338D01*
X169720377Y-140148666D01*
X169605525Y-140214976D01*
X169605524Y-140214977D01*
X169605523Y-140214978D01*
X169511742Y-140308759D01*
X169511741Y-140308760D01*
X169511740Y-140308761D01*
X169445430Y-140423613D01*
X169411102Y-140551722D01*
X168893700Y-140551722D01*
X168893700Y-140493687D01*
X168859373Y-140365579D01*
X168853856Y-140356024D01*
X168815164Y-140289007D01*
X168793060Y-140250721D01*
X168699279Y-140156940D01*
X168699276Y-140156938D01*
X168584424Y-140090628D01*
X168584421Y-140090627D01*
X168533692Y-140077034D01*
X168456315Y-140056300D01*
X168456313Y-140056300D01*
X168323687Y-140056300D01*
X168323684Y-140056300D01*
X168195575Y-140090628D01*
X168080723Y-140156938D01*
X168080722Y-140156939D01*
X168080721Y-140156940D01*
X167986940Y-140250721D01*
X167986939Y-140250722D01*
X167986938Y-140250723D01*
X167920628Y-140365575D01*
X167886300Y-140493684D01*
X143597187Y-140493684D01*
X143653573Y-140396021D01*
X143687900Y-140267913D01*
X143687900Y-140135287D01*
X143653573Y-140007179D01*
X143644954Y-139992251D01*
X143632027Y-139931438D01*
X143657314Y-139874638D01*
X143660921Y-139870836D01*
X145198075Y-138333683D01*
X150356301Y-138333683D01*
X150356301Y-138466314D01*
X150365496Y-138500628D01*
X150388234Y-138585487D01*
X150390629Y-138594423D01*
X150444043Y-138686938D01*
X150456941Y-138709278D01*
X150550722Y-138803059D01*
X150550724Y-138803060D01*
X150665576Y-138869370D01*
X150665577Y-138869370D01*
X150665580Y-138869372D01*
X150793688Y-138903699D01*
X150926314Y-138903699D01*
X151054422Y-138869372D01*
X151169280Y-138803059D01*
X151263061Y-138709278D01*
X151329374Y-138594420D01*
X151363701Y-138466312D01*
X151363701Y-138333686D01*
X151363700Y-138333683D01*
X154726300Y-138333683D01*
X154726300Y-138466314D01*
X154735495Y-138500628D01*
X154758233Y-138585487D01*
X154760628Y-138594423D01*
X154814042Y-138686938D01*
X154826940Y-138709278D01*
X154920721Y-138803059D01*
X154920723Y-138803060D01*
X155035575Y-138869370D01*
X155035576Y-138869370D01*
X155035579Y-138869372D01*
X155163687Y-138903699D01*
X155296313Y-138903699D01*
X155424421Y-138869372D01*
X155539279Y-138803059D01*
X155633060Y-138709278D01*
X155684242Y-138620628D01*
X155694766Y-138602400D01*
X155740970Y-138560797D01*
X155781888Y-138552100D01*
X165271330Y-138552100D01*
X165330461Y-138571313D01*
X165367006Y-138621613D01*
X165368501Y-138678734D01*
X165343068Y-138773651D01*
X165337700Y-138793686D01*
X165337700Y-138926315D01*
X165355048Y-138991055D01*
X165367175Y-139036315D01*
X165372028Y-139054424D01*
X165435535Y-139164421D01*
X165438340Y-139169279D01*
X165532121Y-139263060D01*
X165560208Y-139279276D01*
X165646975Y-139329371D01*
X165646976Y-139329371D01*
X165646979Y-139329373D01*
X165775087Y-139363700D01*
X165871671Y-139363700D01*
X165930802Y-139382913D01*
X165942806Y-139393165D01*
X166087541Y-139537900D01*
X166136753Y-139566312D01*
X166136754Y-139566314D01*
X166157156Y-139578093D01*
X166157158Y-139578093D01*
X166157159Y-139578094D01*
X166234807Y-139598900D01*
X166234809Y-139598900D01*
X175809801Y-139598900D01*
X175868932Y-139618113D01*
X175905477Y-139668413D01*
X175906966Y-139673439D01*
X175915589Y-139705619D01*
X175920628Y-139724424D01*
X175980324Y-139827820D01*
X175986940Y-139839279D01*
X176080721Y-139933060D01*
X176080723Y-139933061D01*
X176195575Y-139999371D01*
X176195576Y-139999371D01*
X176195579Y-139999373D01*
X176323687Y-140033700D01*
X176456313Y-140033700D01*
X176584421Y-139999373D01*
X176699279Y-139933060D01*
X176793060Y-139839279D01*
X176859373Y-139724421D01*
X176893700Y-139596313D01*
X176893700Y-139463687D01*
X176859373Y-139335579D01*
X176856166Y-139330025D01*
X176793061Y-139220723D01*
X176793060Y-139220721D01*
X176699279Y-139126940D01*
X176647317Y-139096940D01*
X176636293Y-139090575D01*
X176594690Y-139044370D01*
X176588191Y-138982537D01*
X176615456Y-138932320D01*
X176754092Y-138793684D01*
X177536300Y-138793684D01*
X177536300Y-138926315D01*
X177553648Y-138991055D01*
X177565775Y-139036315D01*
X177570628Y-139054424D01*
X177634135Y-139164421D01*
X177636940Y-139169279D01*
X177730721Y-139263060D01*
X177758808Y-139279276D01*
X177845575Y-139329371D01*
X177845576Y-139329371D01*
X177845579Y-139329373D01*
X177973687Y-139363700D01*
X178106313Y-139363700D01*
X178234421Y-139329373D01*
X178349279Y-139263060D01*
X178443060Y-139169279D01*
X178509373Y-139054421D01*
X178517609Y-139023684D01*
X181546300Y-139023684D01*
X181546300Y-139156315D01*
X181567717Y-139236242D01*
X181579248Y-139279276D01*
X181580628Y-139284424D01*
X181637491Y-139382913D01*
X181646940Y-139399279D01*
X181740721Y-139493060D01*
X181740723Y-139493061D01*
X181855575Y-139559371D01*
X181855576Y-139559371D01*
X181855579Y-139559373D01*
X181983687Y-139593700D01*
X182116313Y-139593700D01*
X182244421Y-139559373D01*
X182359279Y-139493060D01*
X182418655Y-139433684D01*
X185556300Y-139433684D01*
X185556300Y-139433687D01*
X185556300Y-139566313D01*
X185590039Y-139692228D01*
X185590628Y-139694424D01*
X185638515Y-139777366D01*
X185656940Y-139809279D01*
X185750721Y-139903060D01*
X185750723Y-139903061D01*
X185865575Y-139969371D01*
X185865576Y-139969371D01*
X185865579Y-139969373D01*
X185993687Y-140003700D01*
X186126313Y-140003700D01*
X186254421Y-139969373D01*
X186369279Y-139903060D01*
X186463060Y-139809279D01*
X186529373Y-139694421D01*
X186563494Y-139567083D01*
X192250380Y-139567083D01*
X192250380Y-139699714D01*
X192284708Y-139827823D01*
X192351018Y-139942675D01*
X192351020Y-139942678D01*
X192444801Y-140036459D01*
X192444803Y-140036460D01*
X192559655Y-140102770D01*
X192559656Y-140102770D01*
X192559659Y-140102772D01*
X192687767Y-140137099D01*
X192820393Y-140137099D01*
X192948501Y-140102772D01*
X193063359Y-140036459D01*
X193157140Y-139942678D01*
X193223453Y-139827820D01*
X193257780Y-139699712D01*
X193257780Y-139567086D01*
X193223453Y-139438978D01*
X193220398Y-139433687D01*
X193178272Y-139360722D01*
X193157140Y-139324120D01*
X193063359Y-139230339D01*
X193046704Y-139220723D01*
X192948504Y-139164027D01*
X192948501Y-139164026D01*
X192914179Y-139154829D01*
X192820395Y-139129699D01*
X192820393Y-139129699D01*
X192687767Y-139129699D01*
X192687764Y-139129699D01*
X192559655Y-139164027D01*
X192444803Y-139230337D01*
X192444802Y-139230338D01*
X192444801Y-139230339D01*
X192351020Y-139324120D01*
X192351019Y-139324121D01*
X192351018Y-139324122D01*
X192284708Y-139438974D01*
X192250380Y-139567083D01*
X186563494Y-139567083D01*
X186563700Y-139566313D01*
X186563700Y-139433687D01*
X186529373Y-139305579D01*
X186517157Y-139284421D01*
X186463061Y-139190723D01*
X186463060Y-139190721D01*
X186369279Y-139096940D01*
X186369276Y-139096938D01*
X186254424Y-139030628D01*
X186254421Y-139030627D01*
X186220099Y-139021430D01*
X186126315Y-138996300D01*
X186126313Y-138996300D01*
X185993687Y-138996300D01*
X185993684Y-138996300D01*
X185865575Y-139030628D01*
X185750723Y-139096938D01*
X185750722Y-139096939D01*
X185750721Y-139096940D01*
X185656940Y-139190721D01*
X185656939Y-139190722D01*
X185656938Y-139190723D01*
X185590628Y-139305575D01*
X185556300Y-139433684D01*
X182418655Y-139433684D01*
X182453060Y-139399279D01*
X182519373Y-139284421D01*
X182553700Y-139156313D01*
X182553700Y-139023687D01*
X182519373Y-138895579D01*
X182504242Y-138869372D01*
X182453061Y-138780723D01*
X182453060Y-138780721D01*
X182359279Y-138686940D01*
X182348511Y-138680723D01*
X182244424Y-138620628D01*
X182244421Y-138620627D01*
X182180358Y-138603461D01*
X182116315Y-138586300D01*
X182116313Y-138586300D01*
X181983687Y-138586300D01*
X181983684Y-138586300D01*
X181855575Y-138620628D01*
X181740723Y-138686938D01*
X181740722Y-138686939D01*
X181740721Y-138686940D01*
X181646940Y-138780721D01*
X181646939Y-138780722D01*
X181646938Y-138780723D01*
X181580628Y-138895575D01*
X181546300Y-139023684D01*
X178517609Y-139023684D01*
X178543700Y-138926313D01*
X178543700Y-138793687D01*
X178509373Y-138665579D01*
X178506569Y-138660723D01*
X178443061Y-138550723D01*
X178443060Y-138550721D01*
X178349279Y-138456940D01*
X178343839Y-138453799D01*
X178234424Y-138390628D01*
X178234421Y-138390627D01*
X178200099Y-138381430D01*
X178106315Y-138356300D01*
X178106313Y-138356300D01*
X177973687Y-138356300D01*
X177973684Y-138356300D01*
X177845575Y-138390628D01*
X177730723Y-138456938D01*
X177730722Y-138456939D01*
X177730721Y-138456940D01*
X177636940Y-138550721D01*
X177636939Y-138550722D01*
X177636938Y-138550723D01*
X177570628Y-138665575D01*
X177536300Y-138793684D01*
X176754092Y-138793684D01*
X177814093Y-137733684D01*
X185796300Y-137733684D01*
X185796300Y-137866315D01*
X185830628Y-137994424D01*
X185886226Y-138090722D01*
X185896940Y-138109279D01*
X185990721Y-138203060D01*
X186014499Y-138216788D01*
X186105575Y-138269371D01*
X186105576Y-138269371D01*
X186105579Y-138269373D01*
X186233687Y-138303700D01*
X186366313Y-138303700D01*
X186494421Y-138269373D01*
X186609279Y-138203060D01*
X186703060Y-138109279D01*
X186769373Y-137994421D01*
X186803700Y-137866313D01*
X186803700Y-137733687D01*
X186769373Y-137605579D01*
X186703060Y-137490721D01*
X186609279Y-137396940D01*
X186587601Y-137384424D01*
X186494424Y-137330628D01*
X186494421Y-137330627D01*
X186460099Y-137321430D01*
X186366315Y-137296300D01*
X186366313Y-137296300D01*
X186233687Y-137296300D01*
X186233684Y-137296300D01*
X186105575Y-137330628D01*
X185990723Y-137396938D01*
X185990722Y-137396939D01*
X185990721Y-137396940D01*
X185896940Y-137490721D01*
X185896939Y-137490722D01*
X185896938Y-137490723D01*
X185830628Y-137605575D01*
X185796300Y-137733684D01*
X177814093Y-137733684D01*
X178498594Y-137049184D01*
X178553992Y-137020958D01*
X178569729Y-137019719D01*
X178666313Y-137019719D01*
X178794421Y-136985392D01*
X178909279Y-136919079D01*
X179003060Y-136825298D01*
X179069373Y-136710440D01*
X179103700Y-136582332D01*
X179104685Y-136578657D01*
X179138548Y-136526513D01*
X179196593Y-136504233D01*
X179254949Y-136519869D01*
X179255011Y-136519763D01*
X179255408Y-136519992D01*
X179256649Y-136520325D01*
X179259612Y-136522419D01*
X179260719Y-136523058D01*
X179260721Y-136523060D01*
X179330407Y-136563293D01*
X179375575Y-136589371D01*
X179375576Y-136589371D01*
X179375579Y-136589373D01*
X179503687Y-136623700D01*
X179636313Y-136623700D01*
X179764421Y-136589373D01*
X179879279Y-136523060D01*
X179925161Y-136477178D01*
X180335500Y-136477178D01*
X180335500Y-136609809D01*
X180369828Y-136737918D01*
X180420277Y-136825298D01*
X180436140Y-136852773D01*
X180529921Y-136946554D01*
X180529923Y-136946555D01*
X180644775Y-137012865D01*
X180644776Y-137012865D01*
X180644779Y-137012867D01*
X180772887Y-137047194D01*
X180905513Y-137047194D01*
X181033621Y-137012867D01*
X181148479Y-136946554D01*
X181242260Y-136852773D01*
X181308573Y-136737915D01*
X181309707Y-136733684D01*
X192876300Y-136733684D01*
X192876300Y-136866315D01*
X192910628Y-136994424D01*
X192960398Y-137080628D01*
X192976940Y-137109279D01*
X193070721Y-137203060D01*
X193070723Y-137203061D01*
X193185575Y-137269371D01*
X193185576Y-137269371D01*
X193185579Y-137269373D01*
X193313687Y-137303700D01*
X193446313Y-137303700D01*
X193574421Y-137269373D01*
X193689279Y-137203060D01*
X193783060Y-137109279D01*
X193849373Y-136994421D01*
X193883700Y-136866313D01*
X193883700Y-136733687D01*
X193849373Y-136605579D01*
X193840015Y-136589371D01*
X193799960Y-136519992D01*
X193783060Y-136490721D01*
X193689279Y-136396940D01*
X193689276Y-136396938D01*
X193574424Y-136330628D01*
X193574421Y-136330627D01*
X193513948Y-136314423D01*
X193446315Y-136296300D01*
X193446313Y-136296300D01*
X193313687Y-136296300D01*
X193313684Y-136296300D01*
X193185575Y-136330628D01*
X193070723Y-136396938D01*
X193070722Y-136396939D01*
X193070721Y-136396940D01*
X192976940Y-136490721D01*
X192976939Y-136490722D01*
X192976938Y-136490723D01*
X192910628Y-136605575D01*
X192876300Y-136733684D01*
X181309707Y-136733684D01*
X181342900Y-136609807D01*
X181342900Y-136477181D01*
X181308573Y-136349073D01*
X181292710Y-136321598D01*
X181242261Y-136234217D01*
X181242260Y-136234215D01*
X181148479Y-136140434D01*
X181148476Y-136140432D01*
X181033624Y-136074122D01*
X181033621Y-136074121D01*
X180960926Y-136054642D01*
X180905515Y-136039794D01*
X180905513Y-136039794D01*
X180772887Y-136039794D01*
X180772884Y-136039794D01*
X180644775Y-136074122D01*
X180529923Y-136140432D01*
X180529922Y-136140433D01*
X180529921Y-136140434D01*
X180436140Y-136234215D01*
X180436139Y-136234216D01*
X180436138Y-136234217D01*
X180369828Y-136349069D01*
X180335500Y-136477178D01*
X179925161Y-136477178D01*
X179973060Y-136429279D01*
X180039373Y-136314421D01*
X180073700Y-136186313D01*
X180073700Y-136053687D01*
X180039373Y-135925579D01*
X179973060Y-135810721D01*
X179946401Y-135784062D01*
X179904765Y-135742425D01*
X179876538Y-135687028D01*
X179875300Y-135671291D01*
X179875300Y-135648129D01*
X179894513Y-135588998D01*
X179904765Y-135576994D01*
X180368060Y-135113699D01*
X180832760Y-134648998D01*
X180888156Y-134620774D01*
X180949564Y-134630500D01*
X180993528Y-134674464D01*
X181001065Y-134694097D01*
X181017778Y-134756469D01*
X181030621Y-134804400D01*
X181030628Y-134804424D01*
X181094334Y-134914765D01*
X181096940Y-134919279D01*
X181190721Y-135013060D01*
X181190723Y-135013061D01*
X181305575Y-135079371D01*
X181305576Y-135079371D01*
X181305579Y-135079373D01*
X181433687Y-135113700D01*
X181566313Y-135113700D01*
X181694421Y-135079373D01*
X181809279Y-135013060D01*
X181903060Y-134919279D01*
X181903060Y-134919278D01*
X181907574Y-134914765D01*
X181962972Y-134886538D01*
X181978709Y-134885300D01*
X185263031Y-134885300D01*
X185322162Y-134904513D01*
X185358707Y-134954813D01*
X185358707Y-135016987D01*
X185322162Y-135067287D01*
X185313331Y-135073022D01*
X185212323Y-135131338D01*
X185212322Y-135131339D01*
X185212321Y-135131340D01*
X185118540Y-135225121D01*
X185118539Y-135225122D01*
X185118538Y-135225123D01*
X185052228Y-135339975D01*
X185017900Y-135468084D01*
X185017900Y-135600715D01*
X185041028Y-135687028D01*
X185049043Y-135716940D01*
X185052228Y-135728824D01*
X185099513Y-135810723D01*
X185118540Y-135843679D01*
X185212321Y-135937460D01*
X185250607Y-135959564D01*
X185327175Y-136003771D01*
X185327176Y-136003771D01*
X185327179Y-136003773D01*
X185455287Y-136038100D01*
X185587913Y-136038100D01*
X185716021Y-136003773D01*
X185830879Y-135937460D01*
X185924660Y-135843679D01*
X185990973Y-135728821D01*
X185991355Y-135727395D01*
X190641300Y-135727395D01*
X190641300Y-135892605D01*
X190652013Y-135946464D01*
X190673531Y-136054642D01*
X190736752Y-136207268D01*
X190736756Y-136207277D01*
X190754757Y-136234217D01*
X190828539Y-136344640D01*
X190945360Y-136461461D01*
X191033457Y-136520325D01*
X191082722Y-136553243D01*
X191082723Y-136553243D01*
X191082727Y-136553246D01*
X191157215Y-136584100D01*
X191235357Y-136616468D01*
X191235358Y-136616468D01*
X191235360Y-136616469D01*
X191397395Y-136648700D01*
X191397396Y-136648700D01*
X191562604Y-136648700D01*
X191562605Y-136648700D01*
X191724640Y-136616469D01*
X191877273Y-136553246D01*
X192014640Y-136461461D01*
X192131461Y-136344640D01*
X192223246Y-136207273D01*
X192286469Y-136054640D01*
X192318700Y-135892605D01*
X192318700Y-135727395D01*
X192286469Y-135565360D01*
X192223246Y-135412727D01*
X192131461Y-135275360D01*
X192014640Y-135158539D01*
X191969265Y-135128220D01*
X191877277Y-135066756D01*
X191877266Y-135066750D01*
X191859611Y-135059437D01*
X191812334Y-135019057D01*
X191797821Y-134958600D01*
X191821616Y-134901160D01*
X191826952Y-134895386D01*
X191883060Y-134839279D01*
X191949373Y-134724421D01*
X191983700Y-134596313D01*
X191983700Y-134463687D01*
X191949373Y-134335579D01*
X191948704Y-134334421D01*
X191883061Y-134220723D01*
X191883060Y-134220721D01*
X191789279Y-134126940D01*
X191789276Y-134126938D01*
X191674424Y-134060628D01*
X191674421Y-134060627D01*
X191640099Y-134051430D01*
X191546315Y-134026300D01*
X191546313Y-134026300D01*
X191413687Y-134026300D01*
X191413684Y-134026300D01*
X191285575Y-134060628D01*
X191170723Y-134126938D01*
X191170722Y-134126939D01*
X191170721Y-134126940D01*
X191076940Y-134220721D01*
X191076939Y-134220722D01*
X191076938Y-134220723D01*
X191010628Y-134335575D01*
X190976300Y-134463684D01*
X190976300Y-134596315D01*
X190991340Y-134652442D01*
X191001597Y-134690723D01*
X191010628Y-134724424D01*
X191076473Y-134838470D01*
X191076940Y-134839279D01*
X191133024Y-134895363D01*
X191161249Y-134950759D01*
X191151523Y-135012167D01*
X191107559Y-135056131D01*
X191100390Y-135059437D01*
X191082727Y-135066754D01*
X191082722Y-135066756D01*
X190986069Y-135131338D01*
X190945360Y-135158539D01*
X190945359Y-135158540D01*
X190945358Y-135158540D01*
X190828540Y-135275358D01*
X190828540Y-135275359D01*
X190828539Y-135275360D01*
X190817059Y-135292541D01*
X190736756Y-135412722D01*
X190736752Y-135412731D01*
X190673531Y-135565357D01*
X190648683Y-135690278D01*
X190641300Y-135727395D01*
X185991355Y-135727395D01*
X186025300Y-135600713D01*
X186025300Y-135468087D01*
X185990973Y-135339979D01*
X185984216Y-135328276D01*
X185924661Y-135225123D01*
X185924660Y-135225121D01*
X185830879Y-135131340D01*
X185800325Y-135113700D01*
X185729869Y-135073022D01*
X185688266Y-135026818D01*
X185681767Y-134964984D01*
X185712855Y-134911140D01*
X185769654Y-134885851D01*
X185780169Y-134885300D01*
X189391291Y-134885300D01*
X189450422Y-134904513D01*
X189462425Y-134914765D01*
X189498420Y-134950759D01*
X189530721Y-134983060D01*
X189566178Y-135003531D01*
X189645575Y-135049371D01*
X189645576Y-135049371D01*
X189645579Y-135049373D01*
X189773687Y-135083700D01*
X189906313Y-135083700D01*
X190034421Y-135049373D01*
X190149279Y-134983060D01*
X190243060Y-134889279D01*
X190309373Y-134774421D01*
X190343700Y-134646313D01*
X190343700Y-134513687D01*
X190309373Y-134385579D01*
X190308614Y-134384265D01*
X190254608Y-134290723D01*
X190243060Y-134270721D01*
X190149279Y-134176940D01*
X190147007Y-134175628D01*
X190034424Y-134110628D01*
X190034421Y-134110627D01*
X189980953Y-134096300D01*
X189906315Y-134076300D01*
X189906313Y-134076300D01*
X189773687Y-134076300D01*
X189773684Y-134076300D01*
X189645575Y-134110628D01*
X189530723Y-134176938D01*
X189530717Y-134176943D01*
X189462425Y-134245235D01*
X189407028Y-134273462D01*
X189391291Y-134274700D01*
X181918709Y-134274700D01*
X181859578Y-134255487D01*
X181847575Y-134245236D01*
X181828717Y-134226378D01*
X181809279Y-134206940D01*
X181809276Y-134206938D01*
X181694424Y-134140628D01*
X181694421Y-134140627D01*
X181627585Y-134122718D01*
X181584097Y-134111065D01*
X181531953Y-134077202D01*
X181509673Y-134019157D01*
X181525765Y-133959101D01*
X181538995Y-133942763D01*
X182487627Y-132994133D01*
X183471267Y-132994133D01*
X183471267Y-133126764D01*
X183487027Y-133185579D01*
X183498761Y-133229371D01*
X183505595Y-133254873D01*
X183563626Y-133355385D01*
X183571907Y-133369728D01*
X183665688Y-133463509D01*
X183665690Y-133463510D01*
X183780542Y-133529820D01*
X183780543Y-133529820D01*
X183780546Y-133529822D01*
X183908654Y-133564149D01*
X184041280Y-133564149D01*
X184169388Y-133529822D01*
X184284246Y-133463509D01*
X184378027Y-133369728D01*
X184438145Y-133265599D01*
X184484349Y-133223997D01*
X184525267Y-133215300D01*
X189431291Y-133215300D01*
X189490422Y-133234513D01*
X189502425Y-133244765D01*
X189542174Y-133284513D01*
X189570721Y-133313060D01*
X189571807Y-133313687D01*
X189685575Y-133379371D01*
X189685576Y-133379371D01*
X189685579Y-133379373D01*
X189813687Y-133413700D01*
X189946313Y-133413700D01*
X190074421Y-133379373D01*
X190189279Y-133313060D01*
X190283060Y-133219279D01*
X190349373Y-133104421D01*
X190383700Y-132976313D01*
X190383700Y-132843687D01*
X190349373Y-132715579D01*
X190283060Y-132600721D01*
X190189279Y-132506940D01*
X190189276Y-132506938D01*
X190074424Y-132440628D01*
X190074421Y-132440627D01*
X190022640Y-132426752D01*
X189946315Y-132406300D01*
X189946313Y-132406300D01*
X189813687Y-132406300D01*
X189813684Y-132406300D01*
X189685575Y-132440628D01*
X189570723Y-132506938D01*
X189570717Y-132506943D01*
X189502425Y-132575235D01*
X189447028Y-132603462D01*
X189431291Y-132604700D01*
X184219941Y-132604700D01*
X184175777Y-132592867D01*
X184175475Y-132593598D01*
X184169928Y-132591300D01*
X184169644Y-132591224D01*
X184169388Y-132591076D01*
X184169383Y-132591074D01*
X184041283Y-132556749D01*
X184041280Y-132556749D01*
X183908654Y-132556749D01*
X183908651Y-132556749D01*
X183780542Y-132591077D01*
X183665690Y-132657387D01*
X183665689Y-132657388D01*
X183665688Y-132657389D01*
X183571907Y-132751170D01*
X183571906Y-132751171D01*
X183571905Y-132751172D01*
X183505595Y-132866024D01*
X183471267Y-132994133D01*
X182487627Y-132994133D01*
X182744301Y-132737459D01*
X182784494Y-132667841D01*
X182791123Y-132643100D01*
X182791124Y-132643099D01*
X182791123Y-132643099D01*
X182805300Y-132590193D01*
X182805300Y-131353684D01*
X185006300Y-131353684D01*
X185006300Y-131486315D01*
X185040628Y-131614424D01*
X185088856Y-131697957D01*
X185106940Y-131729279D01*
X185200721Y-131823060D01*
X185227985Y-131838801D01*
X185315575Y-131889371D01*
X185315576Y-131889371D01*
X185315579Y-131889373D01*
X185443687Y-131923700D01*
X185576313Y-131923700D01*
X185704421Y-131889373D01*
X185819279Y-131823060D01*
X185913060Y-131729279D01*
X185979373Y-131614421D01*
X186013700Y-131486313D01*
X186013700Y-131405930D01*
X186032913Y-131346799D01*
X186083213Y-131310254D01*
X186145387Y-131310254D01*
X186164598Y-131318806D01*
X186165579Y-131319373D01*
X186293687Y-131353700D01*
X186426313Y-131353700D01*
X186554421Y-131319373D01*
X186669279Y-131253060D01*
X186763060Y-131159279D01*
X186829373Y-131044421D01*
X186863700Y-130916313D01*
X186863700Y-130783687D01*
X186829373Y-130655579D01*
X186828764Y-130654525D01*
X186779152Y-130568593D01*
X186763060Y-130540721D01*
X186669279Y-130446940D01*
X186668351Y-130446404D01*
X186554424Y-130380628D01*
X186554421Y-130380627D01*
X186520099Y-130371430D01*
X186426315Y-130346300D01*
X186426313Y-130346300D01*
X186293687Y-130346300D01*
X186293684Y-130346300D01*
X186165575Y-130380628D01*
X186050723Y-130446938D01*
X186050722Y-130446939D01*
X186050721Y-130446940D01*
X185956940Y-130540721D01*
X185956939Y-130540722D01*
X185956938Y-130540723D01*
X185890628Y-130655575D01*
X185856300Y-130783684D01*
X185856300Y-130864069D01*
X185837087Y-130923200D01*
X185786787Y-130959745D01*
X185724613Y-130959745D01*
X185705409Y-130951196D01*
X185704428Y-130950630D01*
X185704425Y-130950628D01*
X185576315Y-130916300D01*
X185576313Y-130916300D01*
X185443687Y-130916300D01*
X185443684Y-130916300D01*
X185315575Y-130950628D01*
X185200723Y-131016938D01*
X185200722Y-131016939D01*
X185200721Y-131016940D01*
X185106940Y-131110721D01*
X185106939Y-131110722D01*
X185106938Y-131110723D01*
X185040628Y-131225575D01*
X185006300Y-131353684D01*
X182805300Y-131353684D01*
X182805300Y-129733684D01*
X190916300Y-129733684D01*
X190916300Y-129866315D01*
X190937868Y-129946806D01*
X190944746Y-129972475D01*
X190950628Y-129994424D01*
X191016938Y-130109276D01*
X191016940Y-130109279D01*
X191110721Y-130203060D01*
X191117121Y-130206755D01*
X191225575Y-130269371D01*
X191225576Y-130269371D01*
X191225579Y-130269373D01*
X191353687Y-130303700D01*
X191486313Y-130303700D01*
X191614421Y-130269373D01*
X191729279Y-130203060D01*
X191823060Y-130109279D01*
X191889373Y-129994421D01*
X191923700Y-129866313D01*
X191923700Y-129733687D01*
X191889373Y-129605579D01*
X191823060Y-129490721D01*
X191729279Y-129396940D01*
X191729276Y-129396938D01*
X191614424Y-129330628D01*
X191614421Y-129330627D01*
X191580099Y-129321430D01*
X191486315Y-129296300D01*
X191486313Y-129296300D01*
X191353687Y-129296300D01*
X191353684Y-129296300D01*
X191225575Y-129330628D01*
X191110723Y-129396938D01*
X191110722Y-129396939D01*
X191110721Y-129396940D01*
X191016940Y-129490721D01*
X191016939Y-129490722D01*
X191016938Y-129490723D01*
X190950628Y-129605575D01*
X190916300Y-129733684D01*
X182805300Y-129733684D01*
X182805300Y-128479807D01*
X182802979Y-128471144D01*
X182784496Y-128402165D01*
X182784494Y-128402162D01*
X182784494Y-128402159D01*
X182775338Y-128386300D01*
X182744301Y-128332541D01*
X179897459Y-125485700D01*
X179850692Y-125458699D01*
X179827842Y-125445506D01*
X179750195Y-125424700D01*
X179750193Y-125424700D01*
X179618709Y-125424700D01*
X179559578Y-125405487D01*
X179547575Y-125395235D01*
X179479282Y-125326943D01*
X179479279Y-125326940D01*
X179479276Y-125326938D01*
X179364424Y-125260628D01*
X179364421Y-125260627D01*
X179330099Y-125251430D01*
X179236315Y-125226300D01*
X179236313Y-125226300D01*
X179103687Y-125226300D01*
X179103684Y-125226300D01*
X178975575Y-125260628D01*
X178860723Y-125326938D01*
X178860722Y-125326939D01*
X178860721Y-125326940D01*
X178766940Y-125420721D01*
X178766939Y-125420722D01*
X178766938Y-125420723D01*
X178700628Y-125535575D01*
X178666300Y-125663684D01*
X178666300Y-125796315D01*
X178700628Y-125924424D01*
X178766938Y-126039276D01*
X178766940Y-126039279D01*
X178860721Y-126133060D01*
X178899007Y-126155164D01*
X178975575Y-126199371D01*
X178975576Y-126199371D01*
X178975579Y-126199373D01*
X179103687Y-126233700D01*
X179236313Y-126233700D01*
X179364421Y-126199373D01*
X179479279Y-126133060D01*
X179509157Y-126103181D01*
X179564550Y-126074957D01*
X179625959Y-126084682D01*
X179651424Y-126103183D01*
X181858087Y-128309846D01*
X181886313Y-128365244D01*
X181876587Y-128426652D01*
X181832623Y-128470616D01*
X181771215Y-128480342D01*
X181736652Y-128468103D01*
X181654424Y-128420628D01*
X181654421Y-128420627D01*
X181615791Y-128410276D01*
X181526315Y-128386300D01*
X181526313Y-128386300D01*
X181393687Y-128386300D01*
X181393684Y-128386300D01*
X181265575Y-128420628D01*
X181150723Y-128486938D01*
X181150722Y-128486939D01*
X181150721Y-128486940D01*
X181056940Y-128580721D01*
X181056939Y-128580722D01*
X181056938Y-128580723D01*
X180990628Y-128695575D01*
X180956300Y-128823684D01*
X180956300Y-128956315D01*
X180990628Y-129084424D01*
X181056938Y-129199276D01*
X181056940Y-129199279D01*
X181150721Y-129293060D01*
X181150723Y-129293061D01*
X181265575Y-129359371D01*
X181265576Y-129359371D01*
X181265579Y-129359373D01*
X181393687Y-129393700D01*
X181526313Y-129393700D01*
X181654421Y-129359373D01*
X181769279Y-129293060D01*
X181863060Y-129199279D01*
X181929373Y-129084421D01*
X181963700Y-128956313D01*
X181963700Y-128823687D01*
X181929373Y-128695579D01*
X181881895Y-128613345D01*
X181868969Y-128552532D01*
X181894257Y-128495733D01*
X181948102Y-128464645D01*
X182009935Y-128471144D01*
X182040153Y-128491912D01*
X182165235Y-128616994D01*
X182193461Y-128672392D01*
X182194700Y-128688129D01*
X182194700Y-132381870D01*
X182175487Y-132441001D01*
X182165235Y-132453005D01*
X179325700Y-135292541D01*
X179325698Y-135292543D01*
X179316751Y-135308041D01*
X179305069Y-135328275D01*
X179298548Y-135339569D01*
X179285506Y-135362157D01*
X179264700Y-135439804D01*
X179264700Y-135671291D01*
X179245487Y-135730422D01*
X179235235Y-135742425D01*
X179166943Y-135810717D01*
X179166938Y-135810723D01*
X179100628Y-135925575D01*
X179065314Y-136057362D01*
X179031450Y-136109505D01*
X178973405Y-136131785D01*
X178915051Y-136116147D01*
X178914989Y-136116256D01*
X178914585Y-136116023D01*
X178913350Y-136115692D01*
X178910393Y-136113602D01*
X178794424Y-136046647D01*
X178794421Y-136046646D01*
X178760099Y-136037449D01*
X178666315Y-136012319D01*
X178666313Y-136012319D01*
X178533687Y-136012319D01*
X178533684Y-136012319D01*
X178405575Y-136046647D01*
X178290723Y-136112957D01*
X178290717Y-136112962D01*
X178229143Y-136174536D01*
X178173746Y-136202763D01*
X178112337Y-136193036D01*
X178086877Y-136174538D01*
X178009279Y-136096940D01*
X178009276Y-136096938D01*
X177894424Y-136030628D01*
X177894421Y-136030627D01*
X177845801Y-136017599D01*
X177766315Y-135996300D01*
X177766313Y-135996300D01*
X177633687Y-135996300D01*
X177633684Y-135996300D01*
X177505575Y-136030628D01*
X177390723Y-136096938D01*
X177359514Y-136128147D01*
X177304116Y-136156373D01*
X177242707Y-136146646D01*
X177217246Y-136128147D01*
X177198604Y-136109505D01*
X177168280Y-136079181D01*
X177159516Y-136074121D01*
X177053425Y-136012869D01*
X177053422Y-136012868D01*
X177019100Y-136003671D01*
X176925316Y-135978541D01*
X176925314Y-135978541D01*
X176792688Y-135978541D01*
X176792685Y-135978541D01*
X176664576Y-136012869D01*
X176549724Y-136079179D01*
X176549723Y-136079180D01*
X176549722Y-136079181D01*
X176455941Y-136172962D01*
X176455940Y-136172963D01*
X176455939Y-136172964D01*
X176389629Y-136287816D01*
X176355301Y-136415925D01*
X176355301Y-136548556D01*
X176372721Y-136613565D01*
X176382135Y-136648700D01*
X176389629Y-136676665D01*
X176455939Y-136791517D01*
X176455941Y-136791520D01*
X176549722Y-136885301D01*
X176549724Y-136885302D01*
X176647432Y-136941714D01*
X176689035Y-136987919D01*
X176695534Y-137049752D01*
X176668267Y-137099971D01*
X175193006Y-138575235D01*
X175137608Y-138603461D01*
X175121871Y-138604700D01*
X174776176Y-138604700D01*
X174717045Y-138585487D01*
X174680500Y-138535187D01*
X174680500Y-138473013D01*
X174692530Y-138448210D01*
X174733243Y-138387277D01*
X174733246Y-138387273D01*
X174796469Y-138234640D01*
X174828700Y-138072605D01*
X174828700Y-137907395D01*
X174796469Y-137745360D01*
X174796081Y-137744424D01*
X174759437Y-137655958D01*
X174733246Y-137592727D01*
X174641461Y-137455360D01*
X174524640Y-137338539D01*
X174472498Y-137303699D01*
X174387277Y-137246756D01*
X174387268Y-137246752D01*
X174234642Y-137183531D01*
X174126616Y-137162043D01*
X174072605Y-137151300D01*
X173907395Y-137151300D01*
X173866886Y-137159357D01*
X173745357Y-137183531D01*
X173592731Y-137246752D01*
X173592722Y-137246756D01*
X173482608Y-137320332D01*
X173455360Y-137338539D01*
X173455359Y-137338540D01*
X173455358Y-137338540D01*
X173338540Y-137455358D01*
X173338540Y-137455359D01*
X173246756Y-137592722D01*
X173246752Y-137592731D01*
X173183531Y-137745357D01*
X173151300Y-137907395D01*
X173151300Y-138072604D01*
X173183531Y-138234642D01*
X173246752Y-138387268D01*
X173246756Y-138387277D01*
X173287470Y-138448210D01*
X173304346Y-138508050D01*
X173282827Y-138566381D01*
X173231131Y-138600923D01*
X173203824Y-138604700D01*
X170199533Y-138604700D01*
X170140402Y-138585487D01*
X170103857Y-138535187D01*
X170103857Y-138473013D01*
X170112408Y-138453804D01*
X170129373Y-138424421D01*
X170163700Y-138296313D01*
X170163700Y-138163687D01*
X170129373Y-138035579D01*
X170063060Y-137920721D01*
X169969279Y-137826940D01*
X169969276Y-137826938D01*
X169854424Y-137760628D01*
X169854421Y-137760627D01*
X169793952Y-137744424D01*
X169726315Y-137726300D01*
X169726313Y-137726300D01*
X169593687Y-137726300D01*
X169593684Y-137726300D01*
X169465575Y-137760628D01*
X169350723Y-137826938D01*
X169350722Y-137826939D01*
X169350721Y-137826940D01*
X169256940Y-137920721D01*
X169256939Y-137920722D01*
X169256938Y-137920723D01*
X169190628Y-138035575D01*
X169156300Y-138163684D01*
X169156300Y-138296315D01*
X169190627Y-138424422D01*
X169197853Y-138436937D01*
X169207589Y-138453800D01*
X169220516Y-138514615D01*
X169195228Y-138571414D01*
X169141384Y-138602501D01*
X169120467Y-138604700D01*
X166928129Y-138604700D01*
X166868998Y-138585487D01*
X166856994Y-138575235D01*
X166284261Y-138002502D01*
X166284259Y-138002500D01*
X166242895Y-137978618D01*
X166214642Y-137962306D01*
X166136995Y-137941500D01*
X166136993Y-137941500D01*
X163401234Y-137941500D01*
X163342103Y-137922287D01*
X163305558Y-137871987D01*
X163305558Y-137809813D01*
X163314112Y-137790600D01*
X163331416Y-137760628D01*
X163340773Y-137744421D01*
X163375100Y-137616313D01*
X163375100Y-137483687D01*
X163340773Y-137355579D01*
X163274460Y-137240721D01*
X163180679Y-137146940D01*
X163180676Y-137146938D01*
X163065824Y-137080628D01*
X163065821Y-137080627D01*
X163031499Y-137071430D01*
X162937715Y-137046300D01*
X162937713Y-137046300D01*
X162805087Y-137046300D01*
X162805084Y-137046300D01*
X162676975Y-137080628D01*
X162562123Y-137146938D01*
X162562122Y-137146939D01*
X162562121Y-137146940D01*
X162468340Y-137240721D01*
X162468339Y-137240722D01*
X162468338Y-137240723D01*
X162402028Y-137355575D01*
X162367700Y-137483684D01*
X162367700Y-137616315D01*
X162379238Y-137659373D01*
X162397171Y-137726300D01*
X162402028Y-137744424D01*
X162428688Y-137790600D01*
X162441615Y-137851416D01*
X162416326Y-137908215D01*
X162362482Y-137939302D01*
X162341566Y-137941500D01*
X155470211Y-137941500D01*
X155431368Y-137931090D01*
X155430515Y-137933150D01*
X155424423Y-137930627D01*
X155424422Y-137930626D01*
X155424421Y-137930626D01*
X155364969Y-137914695D01*
X155296315Y-137896299D01*
X155296313Y-137896299D01*
X155163687Y-137896299D01*
X155163684Y-137896299D01*
X155035575Y-137930627D01*
X154920723Y-137996937D01*
X154920722Y-137996938D01*
X154920721Y-137996939D01*
X154826940Y-138090720D01*
X154826939Y-138090721D01*
X154826938Y-138090722D01*
X154760628Y-138205574D01*
X154726300Y-138333683D01*
X151363700Y-138333683D01*
X151329374Y-138205578D01*
X151327920Y-138203060D01*
X151263062Y-138090722D01*
X151263061Y-138090720D01*
X151169280Y-137996939D01*
X151109294Y-137962306D01*
X151054425Y-137930627D01*
X151054422Y-137930626D01*
X151017457Y-137920721D01*
X150926316Y-137896299D01*
X150926314Y-137896299D01*
X150793688Y-137896299D01*
X150793685Y-137896299D01*
X150665576Y-137930627D01*
X150550724Y-137996937D01*
X150550723Y-137996938D01*
X150550722Y-137996939D01*
X150456941Y-138090720D01*
X150456940Y-138090721D01*
X150456939Y-138090722D01*
X150390629Y-138205574D01*
X150356301Y-138333683D01*
X145198075Y-138333683D01*
X146918195Y-136613565D01*
X146973593Y-136585339D01*
X146989330Y-136584100D01*
X150156607Y-136584100D01*
X150215738Y-136603313D01*
X150252283Y-136653613D01*
X150252283Y-136715787D01*
X150215738Y-136766087D01*
X150206912Y-136771818D01*
X150180721Y-136786940D01*
X150086940Y-136880721D01*
X150086939Y-136880722D01*
X150086938Y-136880723D01*
X150020628Y-136995575D01*
X149986300Y-137123684D01*
X149986300Y-137256315D01*
X150020628Y-137384424D01*
X150082000Y-137490723D01*
X150086940Y-137499279D01*
X150180721Y-137593060D01*
X150180723Y-137593061D01*
X150295575Y-137659371D01*
X150295576Y-137659371D01*
X150295579Y-137659373D01*
X150423687Y-137693700D01*
X150556313Y-137693700D01*
X150684421Y-137659373D01*
X150799279Y-137593060D01*
X150893060Y-137499279D01*
X150959373Y-137384421D01*
X150993700Y-137256313D01*
X150993700Y-137123687D01*
X150959373Y-136995579D01*
X150958704Y-136994421D01*
X150893061Y-136880723D01*
X150893060Y-136880721D01*
X150799279Y-136786940D01*
X150773092Y-136771821D01*
X150731490Y-136725618D01*
X150724991Y-136663784D01*
X150756078Y-136609940D01*
X150812877Y-136584651D01*
X150823393Y-136584100D01*
X171360810Y-136584100D01*
X171419941Y-136603313D01*
X171456486Y-136653613D01*
X171456486Y-136715787D01*
X171419941Y-136766087D01*
X171411110Y-136771822D01*
X171340919Y-136812346D01*
X171340918Y-136812347D01*
X171340917Y-136812348D01*
X171247136Y-136906129D01*
X171247135Y-136906130D01*
X171247134Y-136906131D01*
X171180824Y-137020983D01*
X171146496Y-137149092D01*
X171146496Y-137281723D01*
X171180824Y-137409832D01*
X171247134Y-137524684D01*
X171247136Y-137524687D01*
X171340917Y-137618468D01*
X171340919Y-137618469D01*
X171455771Y-137684779D01*
X171455772Y-137684779D01*
X171455775Y-137684781D01*
X171583883Y-137719108D01*
X171716509Y-137719108D01*
X171844617Y-137684781D01*
X171959475Y-137618468D01*
X172053256Y-137524687D01*
X172119569Y-137409829D01*
X172153896Y-137281721D01*
X172153896Y-137149095D01*
X172119569Y-137020987D01*
X172119552Y-137020958D01*
X172053257Y-136906131D01*
X172053256Y-136906129D01*
X171959475Y-136812348D01*
X171923394Y-136791517D01*
X171889282Y-136771822D01*
X171847679Y-136725617D01*
X171841180Y-136663784D01*
X171872268Y-136609939D01*
X171929067Y-136584651D01*
X171939582Y-136584100D01*
X174097179Y-136584100D01*
X174097181Y-136584100D01*
X174174829Y-136563294D01*
X174190776Y-136554087D01*
X174244447Y-136523100D01*
X174821083Y-135946464D01*
X174876481Y-135918238D01*
X174937889Y-135927964D01*
X174981853Y-135971928D01*
X174992818Y-136017599D01*
X174992818Y-136120674D01*
X175027146Y-136248783D01*
X175085049Y-136349073D01*
X175093458Y-136363638D01*
X175187239Y-136457419D01*
X175187241Y-136457420D01*
X175302093Y-136523730D01*
X175302094Y-136523730D01*
X175302097Y-136523732D01*
X175430205Y-136558059D01*
X175562831Y-136558059D01*
X175690939Y-136523732D01*
X175805797Y-136457419D01*
X175899578Y-136363638D01*
X175965891Y-136248780D01*
X176000218Y-136120672D01*
X176000218Y-135988046D01*
X176000217Y-135988040D01*
X175997372Y-135977423D01*
X176000624Y-135915334D01*
X176039750Y-135867014D01*
X176068507Y-135854211D01*
X176077590Y-135851776D01*
X176082821Y-135850375D01*
X176197679Y-135784062D01*
X176291460Y-135690281D01*
X176357773Y-135575423D01*
X176392100Y-135447315D01*
X176392100Y-135314689D01*
X176391763Y-135313431D01*
X176391811Y-135312499D01*
X176391239Y-135308148D01*
X176392045Y-135308041D01*
X176395012Y-135251344D01*
X176434135Y-135203022D01*
X176494189Y-135186924D01*
X176514965Y-135190213D01*
X176549438Y-135199451D01*
X176682064Y-135199451D01*
X176810172Y-135165124D01*
X176925030Y-135098811D01*
X177018811Y-135005030D01*
X177085124Y-134890172D01*
X177119451Y-134762064D01*
X177119451Y-134629438D01*
X177085124Y-134501330D01*
X177077786Y-134488621D01*
X177029840Y-134405575D01*
X177018811Y-134386472D01*
X176925030Y-134292691D01*
X176925027Y-134292689D01*
X176810173Y-134226378D01*
X176766321Y-134214627D01*
X176714178Y-134180764D01*
X176691899Y-134122718D01*
X176707992Y-134062663D01*
X176721222Y-134046325D01*
X177241456Y-133526090D01*
X177296852Y-133497866D01*
X177358260Y-133507592D01*
X177402224Y-133551555D01*
X177409759Y-133571183D01*
X177410626Y-133574420D01*
X177410627Y-133574422D01*
X177450359Y-133643240D01*
X177476940Y-133689279D01*
X177570721Y-133783060D01*
X177570723Y-133783061D01*
X177685575Y-133849371D01*
X177685576Y-133849371D01*
X177685579Y-133849373D01*
X177813687Y-133883700D01*
X177946313Y-133883700D01*
X178074421Y-133849373D01*
X178189279Y-133783060D01*
X178283060Y-133689279D01*
X178349373Y-133574421D01*
X178383700Y-133446313D01*
X178383700Y-133313687D01*
X178351076Y-133191935D01*
X178354329Y-133129849D01*
X178393456Y-133081530D01*
X178448248Y-133065300D01*
X178698174Y-133065300D01*
X178757305Y-133084513D01*
X178793850Y-133134813D01*
X178793850Y-133196987D01*
X178791119Y-133204392D01*
X178790627Y-133205577D01*
X178756300Y-133333684D01*
X178756300Y-133466315D01*
X178767361Y-133507592D01*
X178783679Y-133568493D01*
X178790628Y-133594424D01*
X178854262Y-133704641D01*
X178856940Y-133709279D01*
X178950721Y-133803060D01*
X178950723Y-133803061D01*
X179065575Y-133869371D01*
X179065576Y-133869371D01*
X179065579Y-133869373D01*
X179193687Y-133903700D01*
X179326313Y-133903700D01*
X179454421Y-133869373D01*
X179569279Y-133803060D01*
X179663060Y-133709279D01*
X179729373Y-133594421D01*
X179763700Y-133466313D01*
X179763700Y-133333687D01*
X179729373Y-133205579D01*
X179729372Y-133205577D01*
X179728881Y-133204392D01*
X179728809Y-133203476D01*
X179727666Y-133199211D01*
X179728456Y-133198999D01*
X179724007Y-133142409D01*
X179756497Y-133089399D01*
X179813940Y-133065610D01*
X179821826Y-133065300D01*
X179941291Y-133065300D01*
X180000422Y-133084513D01*
X180012425Y-133094765D01*
X180046940Y-133129279D01*
X180080721Y-133163060D01*
X180080723Y-133163061D01*
X180195575Y-133229371D01*
X180195576Y-133229371D01*
X180195579Y-133229373D01*
X180323687Y-133263700D01*
X180456313Y-133263700D01*
X180584421Y-133229373D01*
X180699279Y-133163060D01*
X180793060Y-133069279D01*
X180859373Y-132954421D01*
X180893700Y-132826313D01*
X180893700Y-132693687D01*
X180859373Y-132565579D01*
X180816487Y-132491299D01*
X180803561Y-132430485D01*
X180828849Y-132373686D01*
X180853307Y-132353880D01*
X180940030Y-132303811D01*
X181033811Y-132210030D01*
X181100124Y-132095172D01*
X181134451Y-131967064D01*
X181134451Y-131834438D01*
X181100124Y-131706330D01*
X181093964Y-131695661D01*
X181047062Y-131614424D01*
X181033811Y-131591472D01*
X180940030Y-131497691D01*
X180940027Y-131497689D01*
X180825175Y-131431379D01*
X180825172Y-131431378D01*
X180771282Y-131416938D01*
X180697066Y-131397051D01*
X180697064Y-131397051D01*
X180564438Y-131397051D01*
X180564435Y-131397051D01*
X180436326Y-131431379D01*
X180321474Y-131497689D01*
X180321468Y-131497694D01*
X180253176Y-131565986D01*
X180197779Y-131594213D01*
X180182042Y-131595451D01*
X180154581Y-131595451D01*
X180088793Y-131613080D01*
X180085268Y-131614024D01*
X180076938Y-131616256D01*
X180076933Y-131616258D01*
X180007320Y-131656447D01*
X180007319Y-131656448D01*
X179599734Y-132064035D01*
X179544336Y-132092261D01*
X179528599Y-132093500D01*
X179361537Y-132093500D01*
X179302406Y-132074287D01*
X179265861Y-132023987D01*
X179264365Y-131966862D01*
X179272826Y-131935287D01*
X179296667Y-131846313D01*
X179296667Y-131713687D01*
X179262340Y-131585579D01*
X179233542Y-131535700D01*
X179217418Y-131507772D01*
X179196027Y-131470721D01*
X179102246Y-131376940D01*
X179087851Y-131368629D01*
X178987391Y-131310628D01*
X178987388Y-131310627D01*
X178953066Y-131301430D01*
X178859282Y-131276300D01*
X178859280Y-131276300D01*
X178726654Y-131276300D01*
X178726651Y-131276300D01*
X178598542Y-131310628D01*
X178483690Y-131376938D01*
X178483684Y-131376943D01*
X178415392Y-131445235D01*
X178359995Y-131473462D01*
X178344258Y-131474700D01*
X178329484Y-131474700D01*
X178270353Y-131455487D01*
X178233808Y-131405187D01*
X178233808Y-131343013D01*
X178242362Y-131323800D01*
X178283203Y-131253061D01*
X178294773Y-131233021D01*
X178329100Y-131104913D01*
X178329100Y-130979110D01*
X178348313Y-130919979D01*
X178398613Y-130883434D01*
X178403664Y-130881938D01*
X178433383Y-130873975D01*
X178433385Y-130873973D01*
X178433388Y-130873973D01*
X178548246Y-130807660D01*
X178642027Y-130713879D01*
X178684755Y-130639870D01*
X178730959Y-130598268D01*
X178792793Y-130591769D01*
X178846637Y-130622856D01*
X178867149Y-130667345D01*
X178869393Y-130666744D01*
X178905428Y-130801224D01*
X178959651Y-130895140D01*
X178971740Y-130916079D01*
X179065521Y-131009860D01*
X179065523Y-131009861D01*
X179180375Y-131076171D01*
X179180376Y-131076171D01*
X179180379Y-131076173D01*
X179308487Y-131110500D01*
X179441113Y-131110500D01*
X179569221Y-131076173D01*
X179684079Y-131009860D01*
X179760868Y-130933070D01*
X179816261Y-130904847D01*
X179877670Y-130914572D01*
X179898465Y-130929679D01*
X179898491Y-130929646D01*
X179899764Y-130930623D01*
X179903127Y-130933066D01*
X179903721Y-130933660D01*
X179903723Y-130933661D01*
X180018575Y-130999971D01*
X180018576Y-130999971D01*
X180018579Y-130999973D01*
X180146687Y-131034300D01*
X180279313Y-131034300D01*
X180407421Y-130999973D01*
X180522279Y-130933660D01*
X180530131Y-130925807D01*
X180585527Y-130897579D01*
X180646936Y-130907303D01*
X180672402Y-130925804D01*
X180719443Y-130972845D01*
X180745665Y-130987984D01*
X180834297Y-131039156D01*
X180834298Y-131039156D01*
X180834301Y-131039158D01*
X180962409Y-131073485D01*
X181095035Y-131073485D01*
X181223143Y-131039158D01*
X181338001Y-130972845D01*
X181431782Y-130879064D01*
X181498095Y-130764206D01*
X181532422Y-130636098D01*
X181532422Y-130503472D01*
X181498095Y-130375364D01*
X181489641Y-130360722D01*
X181435497Y-130266940D01*
X181431782Y-130260506D01*
X181338001Y-130166725D01*
X181335119Y-130165061D01*
X181223146Y-130100413D01*
X181223143Y-130100412D01*
X181188821Y-130091215D01*
X181095037Y-130066085D01*
X181095035Y-130066085D01*
X180962409Y-130066085D01*
X180962406Y-130066085D01*
X180834297Y-130100413D01*
X180719442Y-130166725D01*
X180711585Y-130174582D01*
X180656186Y-130202806D01*
X180594778Y-130193077D01*
X180569319Y-130174580D01*
X180559800Y-130165061D01*
X180522279Y-130127540D01*
X180522276Y-130127538D01*
X180407424Y-130061228D01*
X180407421Y-130061227D01*
X180373099Y-130052030D01*
X180279315Y-130026900D01*
X180279313Y-130026900D01*
X180146687Y-130026900D01*
X180146684Y-130026900D01*
X180018575Y-130061228D01*
X179903723Y-130127538D01*
X179903721Y-130127540D01*
X179826933Y-130204327D01*
X179771535Y-130232553D01*
X179710126Y-130222826D01*
X179689335Y-130207719D01*
X179689309Y-130207754D01*
X179688007Y-130206755D01*
X179684667Y-130204328D01*
X179684079Y-130203740D01*
X179682903Y-130203061D01*
X179569224Y-130137428D01*
X179569221Y-130137427D01*
X179532315Y-130127538D01*
X179441115Y-130103100D01*
X179441113Y-130103100D01*
X179308487Y-130103100D01*
X179308484Y-130103100D01*
X179180375Y-130137428D01*
X179065523Y-130203738D01*
X179065522Y-130203739D01*
X179065521Y-130203740D01*
X179017011Y-130252250D01*
X178971740Y-130297521D01*
X178929011Y-130371529D01*
X178882806Y-130413131D01*
X178820972Y-130419629D01*
X178767128Y-130388542D01*
X178746625Y-130344052D01*
X178744374Y-130344656D01*
X178724201Y-130269373D01*
X178708340Y-130210179D01*
X178704961Y-130204327D01*
X178642028Y-130095323D01*
X178642027Y-130095321D01*
X178548246Y-130001540D01*
X178535921Y-129994424D01*
X178433391Y-129935228D01*
X178433388Y-129935227D01*
X178382215Y-129921515D01*
X178305282Y-129900900D01*
X178305280Y-129900900D01*
X178172654Y-129900900D01*
X178172650Y-129900900D01*
X178044550Y-129935225D01*
X178038459Y-129937749D01*
X178037667Y-129935838D01*
X177986062Y-129946806D01*
X177929264Y-129921515D01*
X177925446Y-129917892D01*
X177661854Y-129654300D01*
X177661852Y-129654298D01*
X177620488Y-129630416D01*
X177592235Y-129614104D01*
X177514588Y-129593298D01*
X177514586Y-129593298D01*
X173521209Y-129593298D01*
X173521204Y-129593298D01*
X173459968Y-129609707D01*
X173459967Y-129609706D01*
X173443561Y-129614103D01*
X173373942Y-129654298D01*
X172891405Y-130136835D01*
X172836007Y-130165061D01*
X172820270Y-130166300D01*
X172723684Y-130166300D01*
X172595575Y-130200628D01*
X172480723Y-130266938D01*
X172480722Y-130266939D01*
X172480721Y-130266940D01*
X172386940Y-130360721D01*
X172386939Y-130360722D01*
X172386938Y-130360723D01*
X172320628Y-130475575D01*
X172286300Y-130603684D01*
X172286300Y-130736315D01*
X172298993Y-130783684D01*
X172320290Y-130863165D01*
X172320628Y-130864424D01*
X172384194Y-130974523D01*
X172386940Y-130979279D01*
X172480721Y-131073060D01*
X172519007Y-131095164D01*
X172595575Y-131139371D01*
X172595576Y-131139371D01*
X172595579Y-131139373D01*
X172723687Y-131173700D01*
X172856313Y-131173700D01*
X172984421Y-131139373D01*
X173099279Y-131073060D01*
X173193060Y-130979279D01*
X173259373Y-130864421D01*
X173293700Y-130736313D01*
X173293700Y-130639728D01*
X173312913Y-130580597D01*
X173323165Y-130568593D01*
X173658396Y-130233363D01*
X173713794Y-130205137D01*
X173729531Y-130203898D01*
X175468729Y-130203898D01*
X175527860Y-130223111D01*
X175564405Y-130273411D01*
X175565901Y-130330536D01*
X175546300Y-130403683D01*
X175546300Y-130536315D01*
X175571430Y-130630099D01*
X175577976Y-130654529D01*
X175580628Y-130664424D01*
X175638239Y-130764209D01*
X175646940Y-130779279D01*
X175740721Y-130873060D01*
X175769262Y-130889538D01*
X175855575Y-130939371D01*
X175855576Y-130939371D01*
X175855579Y-130939373D01*
X175983687Y-130973700D01*
X176116313Y-130973700D01*
X176244421Y-130939373D01*
X176359279Y-130873060D01*
X176453060Y-130779279D01*
X176519373Y-130664421D01*
X176553700Y-130536313D01*
X176553700Y-130403687D01*
X176538042Y-130345250D01*
X176534099Y-130330536D01*
X176537353Y-130268447D01*
X176576480Y-130220128D01*
X176631271Y-130203898D01*
X177306264Y-130203898D01*
X177365395Y-130223111D01*
X177377399Y-130233363D01*
X177590439Y-130446404D01*
X177618665Y-130501802D01*
X177608939Y-130563211D01*
X177569604Y-130604661D01*
X177516121Y-130635540D01*
X177422340Y-130729321D01*
X177422339Y-130729322D01*
X177422338Y-130729323D01*
X177356028Y-130844175D01*
X177321700Y-130972284D01*
X177321700Y-131104915D01*
X177340131Y-131173699D01*
X177355723Y-131231888D01*
X177356028Y-131233024D01*
X177421716Y-131346799D01*
X177422340Y-131347879D01*
X177426822Y-131352361D01*
X177455047Y-131407757D01*
X177445321Y-131469165D01*
X177405987Y-131510616D01*
X177362540Y-131535700D01*
X173783414Y-135114826D01*
X173728016Y-135143052D01*
X173666608Y-135133326D01*
X173622644Y-135089362D01*
X173612918Y-135027954D01*
X173615101Y-135017676D01*
X173643102Y-134913180D01*
X173643102Y-134780554D01*
X173608775Y-134652446D01*
X173606785Y-134649000D01*
X173542463Y-134537590D01*
X173542462Y-134537588D01*
X173448681Y-134443807D01*
X173448678Y-134443805D01*
X173333826Y-134377495D01*
X173333823Y-134377494D01*
X173299501Y-134368297D01*
X173205717Y-134343167D01*
X173205715Y-134343167D01*
X173073089Y-134343167D01*
X173073086Y-134343167D01*
X172991868Y-134364930D01*
X172944981Y-134377494D01*
X172944979Y-134377494D01*
X172944979Y-134377495D01*
X172854166Y-134429925D01*
X172793351Y-134442851D01*
X172736552Y-134417562D01*
X172732751Y-134413955D01*
X172695377Y-134376581D01*
X172695374Y-134376579D01*
X172580522Y-134310269D01*
X172580519Y-134310268D01*
X172514922Y-134292691D01*
X172452413Y-134275941D01*
X172452411Y-134275941D01*
X172319785Y-134275941D01*
X172319782Y-134275941D01*
X172191673Y-134310269D01*
X172076821Y-134376579D01*
X172076820Y-134376580D01*
X172076819Y-134376581D01*
X171983038Y-134470362D01*
X171983037Y-134470363D01*
X171983036Y-134470364D01*
X171916726Y-134585216D01*
X171882398Y-134713325D01*
X171882398Y-134845956D01*
X171916726Y-134974065D01*
X171980024Y-135083700D01*
X171983038Y-135088920D01*
X171984685Y-135090567D01*
X171985440Y-135092050D01*
X171987052Y-135094150D01*
X171986662Y-135094448D01*
X172012910Y-135145963D01*
X172003184Y-135207371D01*
X171959220Y-135251335D01*
X171913549Y-135262300D01*
X164532329Y-135262300D01*
X164473198Y-135243087D01*
X164436653Y-135192787D01*
X164436653Y-135130613D01*
X164461194Y-135090565D01*
X164708593Y-134843165D01*
X164763990Y-134814939D01*
X164779728Y-134813700D01*
X164876313Y-134813700D01*
X165004421Y-134779373D01*
X165119279Y-134713060D01*
X165213060Y-134619279D01*
X165279373Y-134504421D01*
X165313700Y-134376313D01*
X165313700Y-134243687D01*
X165279373Y-134115579D01*
X165277662Y-134112616D01*
X165213061Y-134000723D01*
X165213060Y-134000721D01*
X165159371Y-133947032D01*
X165131147Y-133891637D01*
X165140873Y-133830229D01*
X165184837Y-133786265D01*
X165230508Y-133775300D01*
X167250191Y-133775300D01*
X167250193Y-133775300D01*
X167327841Y-133754494D01*
X167378406Y-133725300D01*
X167397459Y-133714300D01*
X168976501Y-132135259D01*
X169016694Y-132065641D01*
X169019455Y-132055338D01*
X169027856Y-132023987D01*
X169037499Y-131987997D01*
X169037500Y-131987991D01*
X169037500Y-131935284D01*
X171133232Y-131935284D01*
X171133232Y-132067915D01*
X171167560Y-132196024D01*
X171229791Y-132303811D01*
X171233872Y-132310879D01*
X171327653Y-132404660D01*
X171327655Y-132404661D01*
X171442507Y-132470971D01*
X171442508Y-132470971D01*
X171442511Y-132470973D01*
X171570619Y-132505300D01*
X171703245Y-132505300D01*
X171831353Y-132470973D01*
X171946211Y-132404660D01*
X172039992Y-132310879D01*
X172106305Y-132196021D01*
X172140632Y-132067913D01*
X172140632Y-131935287D01*
X172106305Y-131807179D01*
X172100023Y-131796299D01*
X172039993Y-131692323D01*
X172039992Y-131692321D01*
X171946211Y-131598540D01*
X171940861Y-131595451D01*
X171831356Y-131532228D01*
X171831353Y-131532227D01*
X171797031Y-131523030D01*
X171703247Y-131497900D01*
X171703245Y-131497900D01*
X171570619Y-131497900D01*
X171570616Y-131497900D01*
X171442507Y-131532228D01*
X171327655Y-131598538D01*
X171327654Y-131598539D01*
X171327653Y-131598540D01*
X171233872Y-131692321D01*
X171233871Y-131692322D01*
X171233870Y-131692323D01*
X171167560Y-131807175D01*
X171133232Y-131935284D01*
X169037500Y-131935284D01*
X169037500Y-131741308D01*
X169056713Y-131682177D01*
X169066959Y-131670179D01*
X169135260Y-131601879D01*
X169201573Y-131487021D01*
X169215295Y-131435807D01*
X169249158Y-131383666D01*
X169307203Y-131361385D01*
X169367258Y-131377477D01*
X169406385Y-131425796D01*
X169409636Y-131435801D01*
X169418994Y-131470723D01*
X169421004Y-131478224D01*
X169482986Y-131585579D01*
X169487316Y-131593079D01*
X169581097Y-131686860D01*
X169581099Y-131686861D01*
X169695951Y-131753171D01*
X169695952Y-131753171D01*
X169695955Y-131753173D01*
X169824063Y-131787500D01*
X169956689Y-131787500D01*
X170084797Y-131753173D01*
X170199655Y-131686860D01*
X170293436Y-131593079D01*
X170359749Y-131478221D01*
X170394076Y-131350113D01*
X170394076Y-131217487D01*
X170359749Y-131089379D01*
X170352123Y-131076171D01*
X170293437Y-130974523D01*
X170293436Y-130974521D01*
X170199655Y-130880740D01*
X170199652Y-130880738D01*
X170084800Y-130814428D01*
X170084797Y-130814427D01*
X170035524Y-130801224D01*
X169956691Y-130780100D01*
X169956689Y-130780100D01*
X169824063Y-130780100D01*
X169824060Y-130780100D01*
X169695951Y-130814428D01*
X169581099Y-130880738D01*
X169581098Y-130880739D01*
X169581097Y-130880740D01*
X169487316Y-130974521D01*
X169487315Y-130974522D01*
X169487314Y-130974523D01*
X169421003Y-131089377D01*
X169421003Y-131089378D01*
X169407279Y-131140592D01*
X169373415Y-131192735D01*
X169315370Y-131215014D01*
X169255315Y-131198921D01*
X169216189Y-131150601D01*
X169212941Y-131140605D01*
X169201573Y-131098179D01*
X169135260Y-130983321D01*
X169041479Y-130889540D01*
X169041476Y-130889538D01*
X168926624Y-130823228D01*
X168926621Y-130823227D01*
X168868529Y-130807661D01*
X168798515Y-130788900D01*
X168798513Y-130788900D01*
X168665887Y-130788900D01*
X168665884Y-130788900D01*
X168537775Y-130823228D01*
X168422923Y-130889538D01*
X168422922Y-130889539D01*
X168422921Y-130889540D01*
X168329140Y-130983321D01*
X168329139Y-130983322D01*
X168329138Y-130983323D01*
X168262828Y-131098175D01*
X168228500Y-131226284D01*
X168228500Y-131358915D01*
X168249600Y-131437657D01*
X168258042Y-131469165D01*
X168262828Y-131487024D01*
X168324059Y-131593079D01*
X168329140Y-131601879D01*
X168397436Y-131670175D01*
X168425661Y-131725571D01*
X168426900Y-131741308D01*
X168426900Y-131779670D01*
X168407687Y-131838801D01*
X168397435Y-131850805D01*
X167315435Y-132932805D01*
X167260037Y-132961031D01*
X167198629Y-132951305D01*
X167154665Y-132907341D01*
X167143700Y-132861670D01*
X167143700Y-132753687D01*
X167143699Y-132753684D01*
X167143026Y-132751171D01*
X167109373Y-132625579D01*
X167109174Y-132625235D01*
X167043061Y-132510723D01*
X167043060Y-132510721D01*
X166949279Y-132416940D01*
X166930850Y-132406300D01*
X166834424Y-132350628D01*
X166834421Y-132350627D01*
X166800099Y-132341430D01*
X166706315Y-132316300D01*
X166706313Y-132316300D01*
X166573687Y-132316300D01*
X166573684Y-132316300D01*
X166445575Y-132350628D01*
X166330723Y-132416938D01*
X166330722Y-132416939D01*
X166330721Y-132416940D01*
X166236940Y-132510721D01*
X166236939Y-132510722D01*
X166236938Y-132510723D01*
X166182854Y-132604400D01*
X166136649Y-132646003D01*
X166095732Y-132654700D01*
X166011080Y-132654700D01*
X165951949Y-132635487D01*
X165915404Y-132585187D01*
X165915404Y-132523013D01*
X165923959Y-132503798D01*
X165929373Y-132494421D01*
X165963700Y-132366313D01*
X165963700Y-132233687D01*
X165929373Y-132105579D01*
X165923366Y-132095175D01*
X165863061Y-131990723D01*
X165863060Y-131990721D01*
X165769279Y-131896940D01*
X165756173Y-131889373D01*
X165654424Y-131830628D01*
X165654421Y-131830627D01*
X165598016Y-131815513D01*
X165526315Y-131796300D01*
X165526313Y-131796300D01*
X165475308Y-131796300D01*
X165416177Y-131777087D01*
X165379632Y-131726787D01*
X165379632Y-131664613D01*
X165404171Y-131624567D01*
X165421260Y-131607479D01*
X165487573Y-131492621D01*
X165521900Y-131364513D01*
X165521900Y-131231887D01*
X165520399Y-131226287D01*
X165520398Y-131226284D01*
X166933100Y-131226284D01*
X166933100Y-131358915D01*
X166954200Y-131437657D01*
X166962642Y-131469165D01*
X166967428Y-131487024D01*
X167028659Y-131593079D01*
X167033740Y-131601879D01*
X167127521Y-131695660D01*
X167127523Y-131695661D01*
X167242375Y-131761971D01*
X167242376Y-131761971D01*
X167242379Y-131761973D01*
X167370487Y-131796300D01*
X167503113Y-131796300D01*
X167631221Y-131761973D01*
X167746079Y-131695660D01*
X167839860Y-131601879D01*
X167906173Y-131487021D01*
X167940500Y-131358913D01*
X167940500Y-131226287D01*
X167906173Y-131098179D01*
X167901092Y-131089379D01*
X167839861Y-130983323D01*
X167839860Y-130983321D01*
X167746079Y-130889540D01*
X167746076Y-130889538D01*
X167631224Y-130823228D01*
X167631221Y-130823227D01*
X167573129Y-130807661D01*
X167503115Y-130788900D01*
X167503113Y-130788900D01*
X167370487Y-130788900D01*
X167370484Y-130788900D01*
X167242375Y-130823228D01*
X167127523Y-130889538D01*
X167127522Y-130889539D01*
X167127521Y-130889540D01*
X167033740Y-130983321D01*
X167033739Y-130983322D01*
X167033738Y-130983323D01*
X166967428Y-131098175D01*
X166933100Y-131226284D01*
X165520398Y-131226284D01*
X165511409Y-131192735D01*
X165487573Y-131103779D01*
X165469837Y-131073060D01*
X165421261Y-130988923D01*
X165421260Y-130988921D01*
X165327479Y-130895140D01*
X165327476Y-130895138D01*
X165212624Y-130828828D01*
X165212621Y-130828827D01*
X165158884Y-130814428D01*
X165084515Y-130794500D01*
X165084513Y-130794500D01*
X164951887Y-130794500D01*
X164951884Y-130794500D01*
X164823775Y-130828828D01*
X164708923Y-130895138D01*
X164708922Y-130895139D01*
X164708921Y-130895140D01*
X164615140Y-130988921D01*
X164615139Y-130988922D01*
X164615138Y-130988923D01*
X164548828Y-131103775D01*
X164514500Y-131231884D01*
X164513640Y-131238421D01*
X164511087Y-131238084D01*
X164495287Y-131286712D01*
X164444987Y-131323257D01*
X164387863Y-131324753D01*
X164356318Y-131316300D01*
X164356313Y-131316300D01*
X164223687Y-131316300D01*
X164223684Y-131316300D01*
X164095575Y-131350628D01*
X163980723Y-131416938D01*
X163980722Y-131416939D01*
X163980721Y-131416940D01*
X163886940Y-131510721D01*
X163886939Y-131510722D01*
X163886938Y-131510723D01*
X163820628Y-131625575D01*
X163786300Y-131753684D01*
X163786300Y-131886315D01*
X163807938Y-131967066D01*
X163814276Y-131990721D01*
X163820628Y-132014424D01*
X163886938Y-132129276D01*
X163886940Y-132129279D01*
X163980721Y-132223060D01*
X163999128Y-132233687D01*
X164095575Y-132289371D01*
X164095576Y-132289371D01*
X164095579Y-132289373D01*
X164223687Y-132323700D01*
X164356313Y-132323700D01*
X164484421Y-132289373D01*
X164599279Y-132223060D01*
X164693060Y-132129279D01*
X164759373Y-132014421D01*
X164793700Y-131886313D01*
X164793700Y-131886307D01*
X164794560Y-131879779D01*
X164797112Y-131880114D01*
X164812913Y-131831487D01*
X164863213Y-131794942D01*
X164920336Y-131793446D01*
X164951887Y-131801900D01*
X165002892Y-131801900D01*
X165062023Y-131821113D01*
X165098568Y-131871413D01*
X165098568Y-131933587D01*
X165074028Y-131973632D01*
X165056940Y-131990721D01*
X165056939Y-131990722D01*
X165056938Y-131990723D01*
X164990628Y-132105575D01*
X164956300Y-132233684D01*
X164956300Y-132366315D01*
X164969865Y-132416938D01*
X164984343Y-132470971D01*
X164990628Y-132494423D01*
X164996041Y-132503798D01*
X165008969Y-132564614D01*
X164983682Y-132621413D01*
X164929838Y-132652501D01*
X164908920Y-132654700D01*
X157867730Y-132654700D01*
X157808599Y-132635487D01*
X157796595Y-132625235D01*
X157475171Y-132303811D01*
X157125662Y-131954303D01*
X157097437Y-131898906D01*
X157107163Y-131837498D01*
X157151126Y-131793534D01*
X157212535Y-131783808D01*
X157222837Y-131785997D01*
X157261287Y-131796300D01*
X157393913Y-131796300D01*
X157522021Y-131761973D01*
X157536378Y-131753684D01*
X162176300Y-131753684D01*
X162176300Y-131886315D01*
X162197938Y-131967066D01*
X162204276Y-131990721D01*
X162210628Y-132014424D01*
X162276938Y-132129276D01*
X162276940Y-132129279D01*
X162370721Y-132223060D01*
X162389128Y-132233687D01*
X162485575Y-132289371D01*
X162485576Y-132289371D01*
X162485579Y-132289373D01*
X162613687Y-132323700D01*
X162746313Y-132323700D01*
X162874421Y-132289373D01*
X162989279Y-132223060D01*
X163083060Y-132129279D01*
X163149373Y-132014421D01*
X163183700Y-131886313D01*
X163183700Y-131753687D01*
X163149373Y-131625579D01*
X163143990Y-131616256D01*
X163095476Y-131532227D01*
X163083060Y-131510721D01*
X162989279Y-131416940D01*
X162973374Y-131407757D01*
X162874424Y-131350628D01*
X162874421Y-131350627D01*
X162840099Y-131341430D01*
X162746315Y-131316300D01*
X162746313Y-131316300D01*
X162613687Y-131316300D01*
X162613684Y-131316300D01*
X162485575Y-131350628D01*
X162370723Y-131416938D01*
X162370722Y-131416939D01*
X162370721Y-131416940D01*
X162276940Y-131510721D01*
X162276939Y-131510722D01*
X162276938Y-131510723D01*
X162210628Y-131625575D01*
X162176300Y-131753684D01*
X157536378Y-131753684D01*
X157636879Y-131695660D01*
X157730660Y-131601879D01*
X157796973Y-131487021D01*
X157831300Y-131358913D01*
X157831300Y-131226287D01*
X157796973Y-131098179D01*
X157791892Y-131089379D01*
X157730661Y-130983323D01*
X157730660Y-130983321D01*
X157636879Y-130889540D01*
X157621633Y-130880738D01*
X157591196Y-130863165D01*
X157522024Y-130823228D01*
X157522021Y-130823227D01*
X157463929Y-130807661D01*
X157393915Y-130788900D01*
X157393913Y-130788900D01*
X157261287Y-130788900D01*
X157261284Y-130788900D01*
X157133175Y-130823228D01*
X157018323Y-130889538D01*
X157018322Y-130889539D01*
X157018321Y-130889540D01*
X156924540Y-130983321D01*
X156924539Y-130983322D01*
X156924538Y-130983323D01*
X156858228Y-131098175D01*
X156823900Y-131226284D01*
X156823900Y-131358918D01*
X156834202Y-131397364D01*
X156830948Y-131459453D01*
X156791820Y-131507772D01*
X156731765Y-131523863D01*
X156673720Y-131501582D01*
X156665895Y-131494536D01*
X156565365Y-131394005D01*
X156537138Y-131338607D01*
X156535900Y-131322870D01*
X156535900Y-131226287D01*
X156535899Y-131226284D01*
X156528567Y-131198921D01*
X156501573Y-131098179D01*
X156496492Y-131089379D01*
X156435261Y-130983323D01*
X156435260Y-130983321D01*
X156341479Y-130889540D01*
X156341476Y-130889538D01*
X156226624Y-130823228D01*
X156226621Y-130823227D01*
X156168529Y-130807661D01*
X156098515Y-130788900D01*
X156098513Y-130788900D01*
X155965887Y-130788900D01*
X155965884Y-130788900D01*
X155837775Y-130823228D01*
X155722923Y-130889538D01*
X155722922Y-130889539D01*
X155722921Y-130889540D01*
X155629140Y-130983321D01*
X155629138Y-130983323D01*
X155624478Y-130987984D01*
X155623515Y-130987021D01*
X155578163Y-131018186D01*
X155516010Y-131016552D01*
X155475549Y-130987156D01*
X155474722Y-130987984D01*
X155470061Y-130983323D01*
X155470060Y-130983321D01*
X155376279Y-130889540D01*
X155376276Y-130889538D01*
X155261424Y-130823228D01*
X155261421Y-130823227D01*
X155203329Y-130807661D01*
X155133315Y-130788900D01*
X155133313Y-130788900D01*
X155000687Y-130788900D01*
X155000684Y-130788900D01*
X154872575Y-130823228D01*
X154757723Y-130889538D01*
X154757722Y-130889539D01*
X154757721Y-130889540D01*
X154663940Y-130983321D01*
X154663939Y-130983322D01*
X154663938Y-130983323D01*
X154597628Y-131098175D01*
X154563300Y-131226284D01*
X154563300Y-131358915D01*
X154584400Y-131437657D01*
X154592842Y-131469165D01*
X154597628Y-131487024D01*
X154658859Y-131593079D01*
X154663940Y-131601879D01*
X154757721Y-131695660D01*
X154757723Y-131695661D01*
X154872575Y-131761971D01*
X154872576Y-131761971D01*
X154872579Y-131761973D01*
X155000687Y-131796300D01*
X155133313Y-131796300D01*
X155261421Y-131761973D01*
X155376279Y-131695660D01*
X155470060Y-131601879D01*
X155470061Y-131601876D01*
X155474722Y-131597216D01*
X155475685Y-131598179D01*
X155521028Y-131567016D01*
X155583181Y-131568643D01*
X155623649Y-131598044D01*
X155624478Y-131597216D01*
X155629138Y-131601876D01*
X155629140Y-131601879D01*
X155722921Y-131695660D01*
X155722923Y-131695661D01*
X155837775Y-131761971D01*
X155837776Y-131761971D01*
X155837779Y-131761973D01*
X155965887Y-131796300D01*
X156062471Y-131796300D01*
X156121602Y-131815513D01*
X156133605Y-131825764D01*
X156826379Y-132518539D01*
X157512141Y-133204301D01*
X157574292Y-133240183D01*
X157574291Y-133240183D01*
X157580529Y-133243784D01*
X157581759Y-133244494D01*
X157581762Y-133244495D01*
X157581765Y-133244496D01*
X157659402Y-133265299D01*
X157659404Y-133265299D01*
X157659407Y-133265300D01*
X159846737Y-133265300D01*
X159905868Y-133284513D01*
X159942413Y-133334813D01*
X159942413Y-133396987D01*
X159933859Y-133416200D01*
X159876740Y-133515131D01*
X159842412Y-133643240D01*
X159842412Y-133775871D01*
X159856978Y-133830229D01*
X159873432Y-133891637D01*
X159876740Y-133903980D01*
X159943050Y-134018832D01*
X159943052Y-134018835D01*
X160036833Y-134112616D01*
X160036835Y-134112617D01*
X160151687Y-134178927D01*
X160151688Y-134178927D01*
X160151691Y-134178929D01*
X160279799Y-134213256D01*
X160412425Y-134213256D01*
X160540533Y-134178929D01*
X160655391Y-134112616D01*
X160749172Y-134018835D01*
X160815485Y-133903977D01*
X160849812Y-133775869D01*
X160849812Y-133643243D01*
X160815485Y-133515135D01*
X160804067Y-133495359D01*
X160758365Y-133416200D01*
X160745438Y-133355385D01*
X160770727Y-133298586D01*
X160824571Y-133267498D01*
X160845487Y-133265300D01*
X162315729Y-133265300D01*
X162374860Y-133284513D01*
X162411405Y-133334813D01*
X162411405Y-133396987D01*
X162386864Y-133437035D01*
X162328540Y-133495358D01*
X162328540Y-133495359D01*
X162236756Y-133632722D01*
X162236752Y-133632731D01*
X162173531Y-133785357D01*
X162143361Y-133937035D01*
X162141300Y-133947395D01*
X162141300Y-134112605D01*
X162144285Y-134127613D01*
X162173531Y-134274642D01*
X162236752Y-134427268D01*
X162236756Y-134427277D01*
X162265546Y-134470364D01*
X162328539Y-134564640D01*
X162328540Y-134564641D01*
X162446864Y-134682965D01*
X162475090Y-134738363D01*
X162465364Y-134799771D01*
X162421400Y-134843735D01*
X162375729Y-134854700D01*
X155724326Y-134854700D01*
X155665195Y-134835487D01*
X155628650Y-134785187D01*
X155627154Y-134728062D01*
X155631103Y-134713325D01*
X155643700Y-134666313D01*
X155643700Y-134533687D01*
X155609373Y-134405579D01*
X155597067Y-134384265D01*
X155543061Y-134290723D01*
X155543060Y-134290721D01*
X155449279Y-134196940D01*
X155440811Y-134192051D01*
X155334424Y-134130628D01*
X155334421Y-134130627D01*
X155278262Y-134115579D01*
X155206315Y-134096300D01*
X155206313Y-134096300D01*
X155073687Y-134096300D01*
X155073684Y-134096300D01*
X154945575Y-134130628D01*
X154830723Y-134196938D01*
X154830722Y-134196939D01*
X154830721Y-134196940D01*
X154736940Y-134290721D01*
X154736939Y-134290722D01*
X154736938Y-134290723D01*
X154670628Y-134405575D01*
X154636300Y-134533684D01*
X154636300Y-134666315D01*
X154652846Y-134728062D01*
X154649593Y-134790151D01*
X154610466Y-134838470D01*
X154555674Y-134854700D01*
X153424250Y-134854700D01*
X153365119Y-134835487D01*
X153328574Y-134785187D01*
X153327078Y-134728062D01*
X153346522Y-134655496D01*
X153349334Y-134645003D01*
X153349334Y-134512377D01*
X153315007Y-134384269D01*
X153311095Y-134377494D01*
X153252464Y-134275941D01*
X153248694Y-134269411D01*
X153154913Y-134175630D01*
X153154910Y-134175628D01*
X153040058Y-134109318D01*
X153040055Y-134109317D01*
X152991476Y-134096300D01*
X152911949Y-134074990D01*
X152911947Y-134074990D01*
X152779321Y-134074990D01*
X152779318Y-134074990D01*
X152651209Y-134109318D01*
X152536357Y-134175628D01*
X152536356Y-134175629D01*
X152536355Y-134175630D01*
X152442574Y-134269411D01*
X152442573Y-134269412D01*
X152442572Y-134269413D01*
X152376262Y-134384265D01*
X152341934Y-134512374D01*
X152341934Y-134645006D01*
X152364190Y-134728062D01*
X152360937Y-134790151D01*
X152321809Y-134838470D01*
X152267018Y-134854700D01*
X151015815Y-134854700D01*
X150956684Y-134835487D01*
X150928693Y-134804400D01*
X150863061Y-134690723D01*
X150863060Y-134690721D01*
X150769279Y-134596940D01*
X150769276Y-134596938D01*
X150654424Y-134530628D01*
X150654421Y-134530627D01*
X150620099Y-134521430D01*
X150526315Y-134496300D01*
X150526313Y-134496300D01*
X150393687Y-134496300D01*
X150393683Y-134496300D01*
X150264179Y-134531002D01*
X150202090Y-134527748D01*
X150153771Y-134488621D01*
X150137679Y-134428566D01*
X150151019Y-134383531D01*
X150175996Y-134340270D01*
X150179371Y-134334425D01*
X150179371Y-134334423D01*
X150179373Y-134334421D01*
X150213700Y-134206313D01*
X150213700Y-134073687D01*
X150179373Y-133945579D01*
X150177744Y-133942758D01*
X150123829Y-133849373D01*
X150113060Y-133830721D01*
X150019279Y-133736940D01*
X149999118Y-133725300D01*
X149904424Y-133670628D01*
X149904421Y-133670627D01*
X149870099Y-133661430D01*
X149776315Y-133636300D01*
X149776313Y-133636300D01*
X149643687Y-133636300D01*
X149643684Y-133636300D01*
X149515575Y-133670628D01*
X149400723Y-133736938D01*
X149400722Y-133736939D01*
X149400721Y-133736940D01*
X149306940Y-133830721D01*
X149306939Y-133830722D01*
X149306938Y-133830723D01*
X149240628Y-133945575D01*
X149206300Y-134073684D01*
X149206300Y-134206315D01*
X149240628Y-134334424D01*
X149306938Y-134449276D01*
X149306940Y-134449279D01*
X149400721Y-134543060D01*
X149400723Y-134543061D01*
X149515575Y-134609371D01*
X149515576Y-134609371D01*
X149515579Y-134609373D01*
X149643687Y-134643700D01*
X149776313Y-134643700D01*
X149904421Y-134609373D01*
X149904425Y-134609370D01*
X149905819Y-134608997D01*
X149967908Y-134612250D01*
X150016227Y-134651377D01*
X150032320Y-134711433D01*
X150018980Y-134756469D01*
X149990628Y-134805575D01*
X149956300Y-134933684D01*
X149956300Y-135066316D01*
X149974882Y-135135662D01*
X149971628Y-135197751D01*
X149932501Y-135246070D01*
X149877710Y-135262300D01*
X145832204Y-135262300D01*
X145783467Y-135275360D01*
X145774208Y-135277841D01*
X145770982Y-135278705D01*
X145754558Y-135283105D01*
X145684940Y-135323300D01*
X141379805Y-139628435D01*
X141324407Y-139656661D01*
X141308670Y-139657900D01*
X141203085Y-139657900D01*
X141074976Y-139692228D01*
X140960124Y-139758538D01*
X140960123Y-139758539D01*
X140960122Y-139758540D01*
X140866341Y-139852321D01*
X140866340Y-139852322D01*
X140866339Y-139852323D01*
X140800029Y-139967175D01*
X140765701Y-140095284D01*
X138926922Y-140095284D01*
X139018583Y-140042364D01*
X139112364Y-139948583D01*
X139178677Y-139833725D01*
X139213004Y-139705617D01*
X139213004Y-139572991D01*
X139178677Y-139444883D01*
X139175265Y-139438974D01*
X139130086Y-139360721D01*
X139112364Y-139330025D01*
X139018583Y-139236244D01*
X139018580Y-139236242D01*
X138903728Y-139169932D01*
X138903725Y-139169931D01*
X138869403Y-139160734D01*
X138775619Y-139135604D01*
X138775617Y-139135604D01*
X138642991Y-139135604D01*
X138642988Y-139135604D01*
X138514879Y-139169932D01*
X138400027Y-139236242D01*
X138400026Y-139236243D01*
X138400025Y-139236244D01*
X138306244Y-139330025D01*
X138306243Y-139330026D01*
X138306242Y-139330027D01*
X138239932Y-139444879D01*
X138205604Y-139572988D01*
X137285474Y-139572988D01*
X137259373Y-139475579D01*
X137252505Y-139463684D01*
X137193061Y-139360723D01*
X137193060Y-139360721D01*
X137099279Y-139266940D01*
X137099276Y-139266938D01*
X136984424Y-139200628D01*
X136984421Y-139200627D01*
X136923952Y-139184424D01*
X136856315Y-139166300D01*
X136856313Y-139166300D01*
X136723687Y-139166300D01*
X136723684Y-139166300D01*
X136595575Y-139200628D01*
X136480723Y-139266938D01*
X136480722Y-139266939D01*
X136480721Y-139266940D01*
X136386940Y-139360721D01*
X136386939Y-139360722D01*
X136386938Y-139360723D01*
X136320628Y-139475575D01*
X136286300Y-139603684D01*
X117690000Y-139603684D01*
X117690000Y-138923684D01*
X125476300Y-138923684D01*
X125476300Y-139056315D01*
X125487186Y-139096940D01*
X125505771Y-139166300D01*
X125510628Y-139184424D01*
X125576938Y-139299276D01*
X125576940Y-139299279D01*
X125670721Y-139393060D01*
X125681491Y-139399278D01*
X125785575Y-139459371D01*
X125785576Y-139459371D01*
X125785579Y-139459373D01*
X125913687Y-139493700D01*
X126046313Y-139493700D01*
X126174421Y-139459373D01*
X126289279Y-139393060D01*
X126383060Y-139299279D01*
X126449373Y-139184421D01*
X126483700Y-139056313D01*
X126483700Y-138923687D01*
X126478340Y-138903684D01*
X129666300Y-138903684D01*
X129666300Y-139036315D01*
X129682545Y-139096940D01*
X129700521Y-139164027D01*
X129700628Y-139164424D01*
X129759815Y-139266938D01*
X129766940Y-139279279D01*
X129860721Y-139373060D01*
X129860723Y-139373061D01*
X129975575Y-139439371D01*
X129975576Y-139439371D01*
X129975579Y-139439373D01*
X130103687Y-139473700D01*
X130236313Y-139473700D01*
X130364421Y-139439373D01*
X130479279Y-139373060D01*
X130573060Y-139279279D01*
X130639373Y-139164421D01*
X130673700Y-139036313D01*
X130673700Y-138903687D01*
X130639373Y-138775579D01*
X130573060Y-138660721D01*
X130479279Y-138566940D01*
X130478311Y-138566381D01*
X130364424Y-138500628D01*
X130364421Y-138500627D01*
X130310953Y-138486300D01*
X130236315Y-138466300D01*
X130236313Y-138466300D01*
X130103687Y-138466300D01*
X130103684Y-138466300D01*
X129975575Y-138500628D01*
X129860723Y-138566938D01*
X129860722Y-138566939D01*
X129860721Y-138566940D01*
X129766940Y-138660721D01*
X129766939Y-138660722D01*
X129766938Y-138660723D01*
X129700628Y-138775575D01*
X129666300Y-138903684D01*
X126478340Y-138903684D01*
X126449373Y-138795579D01*
X126440795Y-138780722D01*
X126399546Y-138709275D01*
X126383060Y-138680721D01*
X126289279Y-138586940D01*
X126289276Y-138586938D01*
X126174424Y-138520628D01*
X126174421Y-138520627D01*
X126127484Y-138508050D01*
X126046315Y-138486300D01*
X126046313Y-138486300D01*
X125913687Y-138486300D01*
X125913684Y-138486300D01*
X125785575Y-138520628D01*
X125670723Y-138586938D01*
X125670722Y-138586939D01*
X125670721Y-138586940D01*
X125576940Y-138680721D01*
X125576939Y-138680722D01*
X125576938Y-138680723D01*
X125510628Y-138795575D01*
X125476300Y-138923684D01*
X117690000Y-138923684D01*
X117690000Y-138587244D01*
X117690861Y-138574113D01*
X117693940Y-138550723D01*
X117705581Y-138462302D01*
X117712378Y-138436937D01*
X117732948Y-138387277D01*
X117752991Y-138338888D01*
X117766121Y-138316147D01*
X117834776Y-138226674D01*
X117843444Y-138216788D01*
X122339155Y-133721077D01*
X122349041Y-133712409D01*
X122359165Y-133704641D01*
X122379186Y-133689278D01*
X122438514Y-133643754D01*
X122461255Y-133630624D01*
X122559305Y-133590010D01*
X122584669Y-133583214D01*
X122696480Y-133568493D01*
X122709611Y-133567633D01*
X144154600Y-133567633D01*
X144634838Y-133087395D01*
X150741300Y-133087395D01*
X150741300Y-133252605D01*
X150747647Y-133284513D01*
X150773531Y-133414642D01*
X150836752Y-133567268D01*
X150836756Y-133567277D01*
X150873668Y-133622519D01*
X150928539Y-133704640D01*
X151045360Y-133821461D01*
X151087131Y-133849371D01*
X151182722Y-133913243D01*
X151182723Y-133913243D01*
X151182727Y-133913246D01*
X151265170Y-133947395D01*
X151335357Y-133976468D01*
X151335358Y-133976468D01*
X151335360Y-133976469D01*
X151497395Y-134008700D01*
X151497396Y-134008700D01*
X151662604Y-134008700D01*
X151662605Y-134008700D01*
X151824640Y-133976469D01*
X151977273Y-133913246D01*
X152114640Y-133821461D01*
X152231461Y-133704640D01*
X152323246Y-133567273D01*
X152386469Y-133414640D01*
X152418700Y-133252605D01*
X152418700Y-133087395D01*
X152386469Y-132925360D01*
X152323246Y-132772727D01*
X152231461Y-132635360D01*
X152114640Y-132518539D01*
X152016561Y-132453005D01*
X151977277Y-132426756D01*
X151977268Y-132426752D01*
X151824642Y-132363531D01*
X151716616Y-132342043D01*
X151662605Y-132331300D01*
X151497395Y-132331300D01*
X151456886Y-132339357D01*
X151335357Y-132363531D01*
X151182731Y-132426752D01*
X151182722Y-132426756D01*
X151086126Y-132491300D01*
X151045360Y-132518539D01*
X151045359Y-132518540D01*
X151045358Y-132518540D01*
X150928540Y-132635358D01*
X150928540Y-132635359D01*
X150928539Y-132635360D01*
X150923364Y-132643105D01*
X150836756Y-132772722D01*
X150836752Y-132772731D01*
X150773531Y-132925357D01*
X150744617Y-133070721D01*
X150741300Y-133087395D01*
X144634838Y-133087395D01*
X146368549Y-131353684D01*
X150806300Y-131353684D01*
X150806300Y-131486315D01*
X150840628Y-131614424D01*
X150888856Y-131697957D01*
X150906940Y-131729279D01*
X151000721Y-131823060D01*
X151027985Y-131838801D01*
X151115575Y-131889371D01*
X151115576Y-131889371D01*
X151115579Y-131889373D01*
X151243687Y-131923700D01*
X151376313Y-131923700D01*
X151504421Y-131889373D01*
X151619279Y-131823060D01*
X151713060Y-131729279D01*
X151779373Y-131614421D01*
X151813700Y-131486313D01*
X151813700Y-131353687D01*
X151779373Y-131225579D01*
X151774699Y-131217484D01*
X151713061Y-131110723D01*
X151713060Y-131110721D01*
X151619279Y-131016940D01*
X151607018Y-131009861D01*
X151504424Y-130950628D01*
X151504421Y-130950627D01*
X151462414Y-130939371D01*
X151376315Y-130916300D01*
X151376313Y-130916300D01*
X151243687Y-130916300D01*
X151243684Y-130916300D01*
X151115575Y-130950628D01*
X151000723Y-131016938D01*
X151000722Y-131016939D01*
X151000721Y-131016940D01*
X150906940Y-131110721D01*
X150906939Y-131110722D01*
X150906938Y-131110723D01*
X150840628Y-131225575D01*
X150806300Y-131353684D01*
X146368549Y-131353684D01*
X146446275Y-131275958D01*
X146939599Y-130782634D01*
X158652700Y-130782634D01*
X158652700Y-130915265D01*
X158669853Y-130979278D01*
X158684596Y-131034300D01*
X158687028Y-131043374D01*
X158743157Y-131140592D01*
X158753340Y-131158229D01*
X158847121Y-131252010D01*
X158885407Y-131274114D01*
X158961975Y-131318321D01*
X158961976Y-131318321D01*
X158961979Y-131318323D01*
X159090087Y-131352650D01*
X159222713Y-131352650D01*
X159350821Y-131318323D01*
X159465679Y-131252010D01*
X159559460Y-131158229D01*
X159625773Y-131043371D01*
X159660100Y-130915263D01*
X159660100Y-130782637D01*
X159625773Y-130654529D01*
X159615131Y-130636097D01*
X159573051Y-130563211D01*
X159559460Y-130539671D01*
X159465679Y-130445890D01*
X159465676Y-130445888D01*
X159350824Y-130379578D01*
X159350821Y-130379577D01*
X159316499Y-130370380D01*
X159222715Y-130345250D01*
X159222713Y-130345250D01*
X159090087Y-130345250D01*
X159090084Y-130345250D01*
X158961975Y-130379578D01*
X158847123Y-130445888D01*
X158847122Y-130445889D01*
X158847121Y-130445890D01*
X158753340Y-130539671D01*
X158753339Y-130539672D01*
X158753338Y-130539673D01*
X158687028Y-130654525D01*
X158652700Y-130782634D01*
X146939599Y-130782634D01*
X147727809Y-129994424D01*
X149065155Y-128657077D01*
X149075041Y-128648409D01*
X149164514Y-128579754D01*
X149187255Y-128566624D01*
X149285305Y-128526010D01*
X149310669Y-128519214D01*
X149422480Y-128504493D01*
X149435611Y-128503633D01*
X170565188Y-128503633D01*
X170565190Y-128503633D01*
X170705566Y-128363953D01*
X170705570Y-128363951D01*
X170713823Y-128355738D01*
X170713825Y-128355738D01*
X170896790Y-128173684D01*
X172386300Y-128173684D01*
X172386300Y-128306315D01*
X172420628Y-128434424D01*
X172486938Y-128549276D01*
X172486940Y-128549279D01*
X172580721Y-128643060D01*
X172580723Y-128643061D01*
X172695575Y-128709371D01*
X172695576Y-128709371D01*
X172695579Y-128709373D01*
X172823687Y-128743700D01*
X172956313Y-128743700D01*
X173084421Y-128709373D01*
X173199279Y-128643060D01*
X173293060Y-128549279D01*
X173359373Y-128434421D01*
X173393700Y-128306313D01*
X173393700Y-128173687D01*
X173359373Y-128045579D01*
X173293060Y-127930721D01*
X173199279Y-127836940D01*
X173196522Y-127835348D01*
X173084424Y-127770628D01*
X173084421Y-127770627D01*
X173006658Y-127749790D01*
X172956315Y-127736300D01*
X172956313Y-127736300D01*
X172823687Y-127736300D01*
X172823684Y-127736300D01*
X172695575Y-127770628D01*
X172580723Y-127836938D01*
X172580722Y-127836939D01*
X172580721Y-127836940D01*
X172486940Y-127930721D01*
X172486939Y-127930722D01*
X172486938Y-127930723D01*
X172420628Y-128045575D01*
X172386300Y-128173684D01*
X170896790Y-128173684D01*
X171021818Y-128049278D01*
X171399290Y-127673684D01*
X175036300Y-127673684D01*
X175036300Y-127806315D01*
X175070628Y-127934424D01*
X175134804Y-128045579D01*
X175136940Y-128049279D01*
X175230721Y-128143060D01*
X175230723Y-128143061D01*
X175345575Y-128209371D01*
X175345576Y-128209371D01*
X175345579Y-128209373D01*
X175473687Y-128243700D01*
X175606313Y-128243700D01*
X175734421Y-128209373D01*
X175849279Y-128143060D01*
X175943060Y-128049279D01*
X176009373Y-127934421D01*
X176043700Y-127806313D01*
X176043700Y-127673687D01*
X176009373Y-127545579D01*
X175997157Y-127524421D01*
X175943061Y-127430723D01*
X175943060Y-127430721D01*
X175849279Y-127336940D01*
X175849276Y-127336938D01*
X175734424Y-127270628D01*
X175734421Y-127270627D01*
X175708510Y-127263684D01*
X178606300Y-127263684D01*
X178606300Y-127396315D01*
X178640628Y-127524424D01*
X178706938Y-127639276D01*
X178706940Y-127639279D01*
X178800721Y-127733060D01*
X178800723Y-127733061D01*
X178915575Y-127799371D01*
X178915576Y-127799371D01*
X178915579Y-127799373D01*
X179043687Y-127833700D01*
X179047850Y-127833700D01*
X179106981Y-127852913D01*
X179143526Y-127903213D01*
X179145022Y-127960338D01*
X179125100Y-128034683D01*
X179125100Y-128167315D01*
X179159428Y-128295424D01*
X179221051Y-128402158D01*
X179225740Y-128410279D01*
X179319521Y-128504060D01*
X179319523Y-128504061D01*
X179434375Y-128570371D01*
X179434376Y-128570371D01*
X179434379Y-128570373D01*
X179562487Y-128604700D01*
X179695113Y-128604700D01*
X179823221Y-128570373D01*
X179938079Y-128504060D01*
X180031860Y-128410279D01*
X180098173Y-128295421D01*
X180132500Y-128167313D01*
X180132500Y-128034687D01*
X180098173Y-127906579D01*
X180094435Y-127900105D01*
X180031861Y-127791723D01*
X180031860Y-127791721D01*
X179938079Y-127697940D01*
X179938076Y-127697938D01*
X179823224Y-127631628D01*
X179823221Y-127631627D01*
X179788899Y-127622430D01*
X179695115Y-127597300D01*
X179695113Y-127597300D01*
X179690950Y-127597300D01*
X179631819Y-127578087D01*
X179595274Y-127527787D01*
X179593778Y-127470662D01*
X179613699Y-127396316D01*
X179613700Y-127396312D01*
X179613700Y-127263687D01*
X179613699Y-127263684D01*
X179579373Y-127135579D01*
X179578640Y-127134310D01*
X179513061Y-127020723D01*
X179513060Y-127020721D01*
X179419279Y-126926940D01*
X179419276Y-126926938D01*
X179304424Y-126860628D01*
X179304421Y-126860627D01*
X179270099Y-126851430D01*
X179176315Y-126826300D01*
X179176313Y-126826300D01*
X179043687Y-126826300D01*
X179043684Y-126826300D01*
X178915575Y-126860628D01*
X178800723Y-126926938D01*
X178800722Y-126926939D01*
X178800721Y-126926940D01*
X178706940Y-127020721D01*
X178706939Y-127020722D01*
X178706938Y-127020723D01*
X178640628Y-127135575D01*
X178606300Y-127263684D01*
X175708510Y-127263684D01*
X175681815Y-127256531D01*
X175606315Y-127236300D01*
X175606313Y-127236300D01*
X175473687Y-127236300D01*
X175473684Y-127236300D01*
X175345575Y-127270628D01*
X175230723Y-127336938D01*
X175230722Y-127336939D01*
X175230721Y-127336940D01*
X175136940Y-127430721D01*
X175136939Y-127430722D01*
X175136938Y-127430723D01*
X175070628Y-127545575D01*
X175036300Y-127673684D01*
X171399290Y-127673684D01*
X174936889Y-124153684D01*
X179316300Y-124153684D01*
X179316300Y-124286315D01*
X179350628Y-124414424D01*
X179416938Y-124529276D01*
X179416940Y-124529279D01*
X179510721Y-124623060D01*
X179510723Y-124623061D01*
X179625575Y-124689371D01*
X179625576Y-124689371D01*
X179625579Y-124689373D01*
X179753687Y-124723700D01*
X179886313Y-124723700D01*
X180014421Y-124689373D01*
X180129279Y-124623060D01*
X180223060Y-124529279D01*
X180289373Y-124414421D01*
X180323700Y-124286313D01*
X180323700Y-124153687D01*
X180289373Y-124025579D01*
X180223060Y-123910721D01*
X180129279Y-123816940D01*
X180129276Y-123816938D01*
X180014424Y-123750628D01*
X180014421Y-123750627D01*
X179968954Y-123738444D01*
X179886315Y-123716300D01*
X179886313Y-123716300D01*
X179753687Y-123716300D01*
X179753684Y-123716300D01*
X179625575Y-123750628D01*
X179510723Y-123816938D01*
X179510722Y-123816939D01*
X179510721Y-123816940D01*
X179416940Y-123910721D01*
X179416939Y-123910722D01*
X179416938Y-123910723D01*
X179350628Y-124025575D01*
X179316300Y-124153684D01*
X174936889Y-124153684D01*
X175015181Y-124075781D01*
X175292187Y-123800153D01*
X175517301Y-123576158D01*
X175527169Y-123567543D01*
X175616518Y-123499278D01*
X175639200Y-123486234D01*
X175736997Y-123445869D01*
X175762277Y-123439117D01*
X175854010Y-123427079D01*
X175873755Y-123424488D01*
X175886844Y-123423633D01*
X184347486Y-123423633D01*
X184406617Y-123442846D01*
G37*
%TD.AperFunction*%
%TD*%
%TA.AperFunction,Conductor*%
%TO.N,Net-(C62-Pad1)*%
G36*
X234104460Y-73526860D02*
G01*
X234122976Y-73529297D01*
X234211310Y-73540927D01*
X234243072Y-73549437D01*
X234334952Y-73587495D01*
X234363428Y-73603935D01*
X234448941Y-73669552D01*
X234461323Y-73680412D01*
X236385457Y-75604546D01*
X236396318Y-75616929D01*
X236461932Y-75702439D01*
X236478376Y-75730920D01*
X236516430Y-75822791D01*
X236524943Y-75854562D01*
X236539010Y-75961408D01*
X236540088Y-75977855D01*
X236540088Y-94632208D01*
X236539010Y-94648655D01*
X236524943Y-94755501D01*
X236516430Y-94787272D01*
X236478376Y-94879143D01*
X236461929Y-94907630D01*
X236396324Y-94993127D01*
X236385457Y-95005517D01*
X235667823Y-95723151D01*
X235655432Y-95734018D01*
X235569933Y-95799624D01*
X235541449Y-95816070D01*
X235449578Y-95854124D01*
X235417807Y-95862637D01*
X235310961Y-95876704D01*
X235294514Y-95877782D01*
X229149662Y-95877782D01*
X229133215Y-95876704D01*
X229026368Y-95862637D01*
X228994597Y-95854124D01*
X228902726Y-95816070D01*
X228874245Y-95799626D01*
X228788735Y-95734012D01*
X228776352Y-95723151D01*
X228058718Y-95005517D01*
X228047858Y-94993135D01*
X227982241Y-94907622D01*
X227965801Y-94879146D01*
X227927743Y-94787266D01*
X227919233Y-94755504D01*
X227905166Y-94648654D01*
X227904088Y-94632208D01*
X227904088Y-80309388D01*
X227904087Y-80309386D01*
X227470483Y-79875782D01*
X227470482Y-79875782D01*
X227260062Y-79875782D01*
X225847662Y-79875782D01*
X225831215Y-79874704D01*
X225724368Y-79860637D01*
X225692597Y-79852124D01*
X225600726Y-79814070D01*
X225572245Y-79797626D01*
X225486735Y-79732012D01*
X225474352Y-79721151D01*
X224439218Y-78686017D01*
X224428358Y-78673635D01*
X224362741Y-78588122D01*
X224346301Y-78559646D01*
X224308243Y-78467766D01*
X224299733Y-78436004D01*
X224285666Y-78329154D01*
X224284588Y-78312708D01*
X224284588Y-75088855D01*
X224285666Y-75072409D01*
X224285819Y-75071246D01*
X224299733Y-74965557D01*
X224308242Y-74933799D01*
X224346302Y-74841913D01*
X224362739Y-74813444D01*
X224428364Y-74727920D01*
X224439210Y-74715554D01*
X225474360Y-73680404D01*
X225486726Y-73669558D01*
X225572250Y-73603933D01*
X225600719Y-73587496D01*
X225692605Y-73549436D01*
X225724363Y-73540927D01*
X225815286Y-73528957D01*
X225831216Y-73526860D01*
X225847662Y-73525782D01*
X234088014Y-73525782D01*
X234104460Y-73526860D01*
G37*
%TD.AperFunction*%
%TD*%
%TA.AperFunction,Conductor*%
%TO.N,DC_OUT*%
G36*
X214722981Y-75874904D02*
G01*
X214748626Y-75882434D01*
X214802223Y-75914235D01*
X215814271Y-76926283D01*
X215835762Y-76954990D01*
X215848574Y-76978452D01*
X215863988Y-77038840D01*
X215863988Y-85269879D01*
X215887432Y-85387741D01*
X215887433Y-85387744D01*
X215887436Y-85387752D01*
X215902643Y-85424462D01*
X215907629Y-85449528D01*
X215921826Y-85470775D01*
X215933421Y-85498767D01*
X215933423Y-85498772D01*
X215933424Y-85498773D01*
X215990706Y-85584501D01*
X216000192Y-85598698D01*
X216444692Y-86043198D01*
X216529672Y-86128178D01*
X216629597Y-86194946D01*
X216662117Y-86208416D01*
X216740628Y-86240937D01*
X216819931Y-86256710D01*
X216850752Y-86262841D01*
X216853506Y-86263571D01*
X216856289Y-86264023D01*
X216858276Y-86264382D01*
X216858498Y-86264382D01*
X216978678Y-86264382D01*
X217299169Y-86264382D01*
X217334664Y-86269485D01*
X217348200Y-86273459D01*
X217407925Y-86311844D01*
X217437417Y-86376425D01*
X217439008Y-86387492D01*
X217437870Y-86429996D01*
X217431571Y-86461673D01*
X217431570Y-86461680D01*
X217416588Y-86536997D01*
X217416588Y-86676568D01*
X217443815Y-86813444D01*
X217443816Y-86813447D01*
X217489124Y-86922828D01*
X217497992Y-86957577D01*
X217500849Y-86984156D01*
X217491980Y-87045840D01*
X217443816Y-87162116D01*
X217416588Y-87298994D01*
X217416588Y-87438568D01*
X217443880Y-87575771D01*
X217444099Y-87576450D01*
X217445521Y-87579566D01*
X217497216Y-87704367D01*
X217497221Y-87704378D01*
X217497223Y-87704382D01*
X217497224Y-87704383D01*
X217497348Y-87704631D01*
X217498464Y-87706238D01*
X217574760Y-87820424D01*
X217673446Y-87919110D01*
X217673449Y-87919112D01*
X217673454Y-87919116D01*
X217755097Y-87973667D01*
X217781774Y-87997631D01*
X217790819Y-88008454D01*
X217819155Y-88073551D01*
X217807798Y-88143633D01*
X217807794Y-88143642D01*
X217805498Y-88148440D01*
X217761843Y-88198816D01*
X217736954Y-88215446D01*
X217736938Y-88215460D01*
X217736922Y-88215475D01*
X217638266Y-88314131D01*
X217638260Y-88314138D01*
X217638255Y-88314145D01*
X217560725Y-88430177D01*
X217560724Y-88430178D01*
X217507316Y-88559114D01*
X217480088Y-88695999D01*
X217480088Y-88835568D01*
X217507380Y-88972771D01*
X217507600Y-88973454D01*
X217509020Y-88976565D01*
X217560716Y-89101369D01*
X217560723Y-89101382D01*
X217560757Y-89101445D01*
X217560790Y-89101522D01*
X217562171Y-89104411D01*
X217562041Y-89104472D01*
X217570382Y-89124125D01*
X217575659Y-89140979D01*
X217576925Y-89211964D01*
X217576924Y-89211967D01*
X217573058Y-89226057D01*
X217561794Y-89252472D01*
X217562171Y-89252652D01*
X217561947Y-89253120D01*
X217562080Y-89253193D01*
X217560721Y-89255683D01*
X217507317Y-89384612D01*
X217480088Y-89521499D01*
X217480088Y-89661068D01*
X217507380Y-89798271D01*
X217507600Y-89798954D01*
X217509020Y-89802065D01*
X217560716Y-89926869D01*
X217560723Y-89926882D01*
X217560757Y-89926945D01*
X217560790Y-89927022D01*
X217562171Y-89929911D01*
X217562041Y-89929972D01*
X217570382Y-89949625D01*
X217575659Y-89966479D01*
X217576925Y-90037464D01*
X217576924Y-90037467D01*
X217573058Y-90051557D01*
X217561794Y-90077972D01*
X217562171Y-90078152D01*
X217561947Y-90078620D01*
X217562080Y-90078693D01*
X217560721Y-90081183D01*
X217507317Y-90210112D01*
X217480088Y-90346999D01*
X217480088Y-90486568D01*
X217507380Y-90623771D01*
X217507600Y-90624454D01*
X217509020Y-90627565D01*
X217560716Y-90752369D01*
X217560723Y-90752382D01*
X217560757Y-90752445D01*
X217560790Y-90752522D01*
X217562171Y-90755411D01*
X217562041Y-90755472D01*
X217570382Y-90775125D01*
X217575659Y-90791979D01*
X217576925Y-90862964D01*
X217576924Y-90862967D01*
X217573058Y-90877057D01*
X217561794Y-90903472D01*
X217562171Y-90903652D01*
X217561947Y-90904120D01*
X217562080Y-90904193D01*
X217560721Y-90906683D01*
X217507317Y-91035612D01*
X217480088Y-91172499D01*
X217480088Y-91312068D01*
X217507380Y-91449271D01*
X217507600Y-91449954D01*
X217509020Y-91453065D01*
X217560716Y-91577869D01*
X217560723Y-91577882D01*
X217560757Y-91577945D01*
X217560790Y-91578022D01*
X217562171Y-91580911D01*
X217562041Y-91580972D01*
X217570382Y-91600625D01*
X217575659Y-91617479D01*
X217576925Y-91688464D01*
X217576924Y-91688467D01*
X217573058Y-91702557D01*
X217561794Y-91728972D01*
X217562171Y-91729152D01*
X217561947Y-91729620D01*
X217562080Y-91729693D01*
X217560721Y-91732183D01*
X217507317Y-91861112D01*
X217480088Y-91997999D01*
X217480088Y-92137568D01*
X217507380Y-92274771D01*
X217507600Y-92275454D01*
X217509020Y-92278565D01*
X217560716Y-92403369D01*
X217560723Y-92403382D01*
X217560757Y-92403445D01*
X217560790Y-92403522D01*
X217562171Y-92406411D01*
X217562041Y-92406472D01*
X217570382Y-92426125D01*
X217575659Y-92442979D01*
X217576925Y-92513964D01*
X217576924Y-92513967D01*
X217573058Y-92528057D01*
X217561794Y-92554472D01*
X217562171Y-92554652D01*
X217561947Y-92555120D01*
X217562080Y-92555193D01*
X217560721Y-92557683D01*
X217507317Y-92686612D01*
X217480088Y-92823499D01*
X217480088Y-92963068D01*
X217507380Y-93100271D01*
X217507600Y-93100954D01*
X217509020Y-93104065D01*
X217560716Y-93228869D01*
X217560723Y-93228882D01*
X217560757Y-93228945D01*
X217560790Y-93229022D01*
X217562171Y-93231911D01*
X217562041Y-93231972D01*
X217570382Y-93251625D01*
X217575659Y-93268479D01*
X217576925Y-93339464D01*
X217576924Y-93339467D01*
X217573058Y-93353557D01*
X217561794Y-93379972D01*
X217562171Y-93380152D01*
X217561947Y-93380620D01*
X217562080Y-93380693D01*
X217560721Y-93383183D01*
X217507317Y-93512112D01*
X217480088Y-93648999D01*
X217480088Y-93788568D01*
X217507380Y-93925771D01*
X217507600Y-93926454D01*
X217509020Y-93929565D01*
X217560716Y-94054369D01*
X217560723Y-94054382D01*
X217560757Y-94054445D01*
X217560790Y-94054522D01*
X217562171Y-94057411D01*
X217562041Y-94057472D01*
X217570382Y-94077125D01*
X217575659Y-94093979D01*
X217576925Y-94164964D01*
X217576924Y-94164967D01*
X217573058Y-94179057D01*
X217561794Y-94205472D01*
X217562171Y-94205652D01*
X217561947Y-94206120D01*
X217562080Y-94206193D01*
X217560723Y-94208680D01*
X217507316Y-94337613D01*
X217507227Y-94337881D01*
X217506878Y-94339816D01*
X217496248Y-94393256D01*
X217480088Y-94474495D01*
X217480088Y-94614068D01*
X217507380Y-94751271D01*
X217507600Y-94751954D01*
X217509020Y-94755065D01*
X217560716Y-94879869D01*
X217560723Y-94879882D01*
X217560757Y-94879945D01*
X217560790Y-94880022D01*
X217562171Y-94882911D01*
X217562041Y-94882972D01*
X217570382Y-94902625D01*
X217575659Y-94919479D01*
X217576925Y-94990464D01*
X217576924Y-94990467D01*
X217573058Y-95004557D01*
X217561794Y-95030972D01*
X217562171Y-95031152D01*
X217561947Y-95031620D01*
X217562080Y-95031693D01*
X217560721Y-95034183D01*
X217507317Y-95163112D01*
X217480088Y-95299999D01*
X217480088Y-95439568D01*
X217507380Y-95576771D01*
X217507600Y-95577454D01*
X217509020Y-95580565D01*
X217560716Y-95705369D01*
X217560723Y-95705382D01*
X217560757Y-95705445D01*
X217560790Y-95705522D01*
X217562171Y-95708411D01*
X217562041Y-95708472D01*
X217570382Y-95728125D01*
X217575659Y-95744979D01*
X217576925Y-95815964D01*
X217576924Y-95815967D01*
X217573058Y-95830057D01*
X217561794Y-95856472D01*
X217562171Y-95856652D01*
X217561947Y-95857120D01*
X217562080Y-95857193D01*
X217560721Y-95859683D01*
X217507317Y-95988612D01*
X217480088Y-96125499D01*
X217480088Y-96265068D01*
X217507380Y-96402271D01*
X217507600Y-96402954D01*
X217509020Y-96406065D01*
X217560716Y-96530869D01*
X217560723Y-96530882D01*
X217560757Y-96530945D01*
X217560790Y-96531022D01*
X217562171Y-96533911D01*
X217562041Y-96533972D01*
X217570382Y-96553625D01*
X217575659Y-96570479D01*
X217576925Y-96641464D01*
X217576924Y-96641467D01*
X217573058Y-96655557D01*
X217561794Y-96681972D01*
X217562171Y-96682152D01*
X217561947Y-96682620D01*
X217562080Y-96682693D01*
X217560721Y-96685183D01*
X217507317Y-96814112D01*
X217480088Y-96950999D01*
X217480088Y-97090565D01*
X217488043Y-97130557D01*
X217507380Y-97227770D01*
X217507600Y-97228453D01*
X217509021Y-97231566D01*
X217560716Y-97356367D01*
X217560721Y-97356378D01*
X217560723Y-97356382D01*
X217560724Y-97356383D01*
X217560848Y-97356631D01*
X217561964Y-97358238D01*
X217638260Y-97472424D01*
X217736946Y-97571110D01*
X217813958Y-97622568D01*
X217852982Y-97648643D01*
X217852983Y-97648643D01*
X217852987Y-97648646D01*
X217852991Y-97648648D01*
X217981396Y-97701836D01*
X217981904Y-97702050D01*
X217981923Y-97702053D01*
X217981926Y-97702055D01*
X218118807Y-97729282D01*
X218118808Y-97729282D01*
X218144029Y-97729282D01*
X218179521Y-97734384D01*
X218194765Y-97738860D01*
X218254463Y-97777210D01*
X218255672Y-97778605D01*
X218283593Y-97834362D01*
X218285265Y-97842047D01*
X218288144Y-97868822D01*
X218288250Y-102101097D01*
X218288265Y-102717599D01*
X218288266Y-102717600D01*
X225751685Y-102717600D01*
X225759906Y-102717868D01*
X225768150Y-102718409D01*
X225776321Y-102719213D01*
X225790769Y-102721115D01*
X225870926Y-102731668D01*
X225887070Y-102734879D01*
X225902892Y-102739119D01*
X225918484Y-102744411D01*
X225995121Y-102776155D01*
X226009892Y-102783439D01*
X226024075Y-102791628D01*
X226037772Y-102800781D01*
X226103573Y-102851272D01*
X226115964Y-102862139D01*
X226127526Y-102873701D01*
X226138393Y-102886091D01*
X226188880Y-102951886D01*
X226198035Y-102965587D01*
X226206222Y-102979766D01*
X226213514Y-102994552D01*
X226245247Y-103071163D01*
X226250545Y-103086769D01*
X226254784Y-103102589D01*
X226257999Y-103118754D01*
X226270450Y-103213324D01*
X226271258Y-103221530D01*
X226271796Y-103229738D01*
X226272066Y-103237979D01*
X226272066Y-107785219D01*
X226271796Y-107793460D01*
X226271258Y-107801668D01*
X226270450Y-107809874D01*
X226257999Y-107904444D01*
X226254784Y-107920609D01*
X226250545Y-107936429D01*
X226245247Y-107952035D01*
X226213514Y-108028646D01*
X226206223Y-108043431D01*
X226198034Y-108057614D01*
X226188878Y-108071315D01*
X226138400Y-108137099D01*
X226127533Y-108149490D01*
X226115956Y-108161067D01*
X226103565Y-108171934D01*
X226037781Y-108222412D01*
X226024080Y-108231568D01*
X226009897Y-108239757D01*
X225995112Y-108247048D01*
X225918501Y-108278781D01*
X225902895Y-108284079D01*
X225887075Y-108288318D01*
X225870910Y-108291533D01*
X225776340Y-108303984D01*
X225768134Y-108304792D01*
X225759926Y-108305330D01*
X225751685Y-108305600D01*
X214095446Y-108305600D01*
X214087279Y-108305335D01*
X214079119Y-108304805D01*
X214070995Y-108304011D01*
X213977264Y-108291784D01*
X213961239Y-108288626D01*
X213945558Y-108284464D01*
X213930086Y-108279264D01*
X213921717Y-108275833D01*
X213921710Y-108275830D01*
X213854042Y-108248084D01*
X213839366Y-108240922D01*
X213825273Y-108232875D01*
X213811649Y-108223877D01*
X213743114Y-108171934D01*
X213736307Y-108166775D01*
X213729963Y-108161634D01*
X213723779Y-108156282D01*
X213717796Y-108150754D01*
X213601671Y-108036276D01*
X213355363Y-107793460D01*
X211251394Y-105719322D01*
X210157561Y-104640998D01*
X222098595Y-104640998D01*
X222098597Y-104641000D01*
X223185436Y-104641000D01*
X223253557Y-104661002D01*
X223300050Y-104714658D01*
X223310154Y-104784932D01*
X223294555Y-104830000D01*
X223244091Y-104917404D01*
X223244089Y-104917409D01*
X223203200Y-105070009D01*
X223203200Y-105227991D01*
X223233132Y-105339699D01*
X223244088Y-105380588D01*
X223244091Y-105380595D01*
X223294555Y-105468000D01*
X223311293Y-105536995D01*
X223288073Y-105604087D01*
X223232266Y-105647974D01*
X223185436Y-105657000D01*
X222098595Y-105657000D01*
X222115931Y-105721695D01*
X222115941Y-105721730D01*
X222115946Y-105721745D01*
X222205140Y-105937078D01*
X222205141Y-105937079D01*
X222205151Y-105937100D01*
X222321669Y-106138914D01*
X222321680Y-106138931D01*
X222453787Y-106311095D01*
X222463556Y-106323826D01*
X222463567Y-106323838D01*
X222463600Y-106323873D01*
X222628325Y-106488598D01*
X222628342Y-106488614D01*
X222628352Y-106488624D01*
X222628373Y-106488643D01*
X222813274Y-106630523D01*
X222813280Y-106630527D01*
X222813284Y-106630529D01*
X222813284Y-106630530D01*
X223015098Y-106747047D01*
X223015102Y-106747049D01*
X223015111Y-106747054D01*
X223015121Y-106747059D01*
X223230456Y-106836254D01*
X223230458Y-106836254D01*
X223230464Y-106836257D01*
X223295199Y-106853601D01*
X223295200Y-106853601D01*
X223295200Y-105766764D01*
X223315202Y-105698643D01*
X223368858Y-105652150D01*
X223439132Y-105642046D01*
X223484200Y-105657645D01*
X223571609Y-105708111D01*
X223724209Y-105749000D01*
X223882189Y-105749000D01*
X223882191Y-105749000D01*
X224034791Y-105708111D01*
X224122200Y-105657645D01*
X224191195Y-105640907D01*
X224258287Y-105664127D01*
X224302174Y-105719934D01*
X224311200Y-105766764D01*
X224311200Y-106853600D01*
X224311200Y-106853601D01*
X224375943Y-106836254D01*
X224591278Y-106747059D01*
X224591288Y-106747054D01*
X224793119Y-106630527D01*
X224793125Y-106630523D01*
X224978026Y-106488643D01*
X224978047Y-106488624D01*
X225142824Y-106323847D01*
X225142843Y-106323826D01*
X225284723Y-106138925D01*
X225284727Y-106138919D01*
X225401254Y-105937088D01*
X225401259Y-105937078D01*
X225490453Y-105721745D01*
X225490458Y-105721730D01*
X225507803Y-105657000D01*
X224420964Y-105657000D01*
X224352843Y-105636998D01*
X224306350Y-105583342D01*
X224296246Y-105513068D01*
X224311845Y-105468000D01*
X224314384Y-105463602D01*
X224362311Y-105380591D01*
X224403200Y-105227991D01*
X224403200Y-105070009D01*
X224362311Y-104917409D01*
X224311845Y-104830000D01*
X224295107Y-104761005D01*
X224318327Y-104693913D01*
X224374134Y-104650026D01*
X224420964Y-104641000D01*
X225507803Y-104641000D01*
X225507803Y-104640998D01*
X225507802Y-104640995D01*
X225490467Y-104576303D01*
X225490458Y-104576269D01*
X225490453Y-104576254D01*
X225401259Y-104360921D01*
X225401254Y-104360911D01*
X225401249Y-104360902D01*
X225401247Y-104360898D01*
X225284729Y-104159084D01*
X225284727Y-104159080D01*
X225284723Y-104159074D01*
X225142843Y-103974173D01*
X225142824Y-103974152D01*
X225142814Y-103974142D01*
X225142798Y-103974125D01*
X224978073Y-103809400D01*
X224978055Y-103809383D01*
X224978047Y-103809375D01*
X224978026Y-103809356D01*
X224965295Y-103799587D01*
X224793131Y-103667480D01*
X224793114Y-103667469D01*
X224793114Y-103667468D01*
X224591300Y-103550951D01*
X224591290Y-103550946D01*
X224591288Y-103550945D01*
X224591278Y-103550940D01*
X224375945Y-103461746D01*
X224375943Y-103461745D01*
X224375930Y-103461741D01*
X224375895Y-103461731D01*
X224311200Y-103444395D01*
X224311200Y-104531235D01*
X224291198Y-104599356D01*
X224237542Y-104645849D01*
X224167268Y-104655953D01*
X224122201Y-104640355D01*
X224034793Y-104589890D01*
X224034788Y-104589888D01*
X223983960Y-104576269D01*
X223882191Y-104549000D01*
X223882189Y-104549000D01*
X223724211Y-104549000D01*
X223724209Y-104549000D01*
X223642433Y-104570911D01*
X223571611Y-104589888D01*
X223571606Y-104589890D01*
X223484199Y-104640355D01*
X223415204Y-104657092D01*
X223348112Y-104633871D01*
X223304225Y-104578064D01*
X223295200Y-104531235D01*
X223295200Y-103444396D01*
X223295199Y-103444396D01*
X223295195Y-103444396D01*
X223230503Y-103461731D01*
X223230468Y-103461741D01*
X223230455Y-103461745D01*
X223230453Y-103461746D01*
X223015119Y-103550941D01*
X223015098Y-103550951D01*
X222813284Y-103667468D01*
X222813284Y-103667469D01*
X222813267Y-103667480D01*
X222628389Y-103809343D01*
X222628360Y-103809367D01*
X222628325Y-103809400D01*
X222463600Y-103974125D01*
X222463567Y-103974160D01*
X222463543Y-103974189D01*
X222321680Y-104159067D01*
X222321669Y-104159084D01*
X222321668Y-104159084D01*
X222205151Y-104360898D01*
X222205141Y-104360919D01*
X222115946Y-104576253D01*
X222115945Y-104576255D01*
X222115941Y-104576268D01*
X222115931Y-104576303D01*
X222098595Y-104640998D01*
X210157561Y-104640998D01*
X209481145Y-103974173D01*
X208357430Y-102866390D01*
X207590030Y-102109871D01*
X207584305Y-102103842D01*
X207578787Y-102097633D01*
X207573473Y-102091240D01*
X207514414Y-102015216D01*
X207505099Y-102001433D01*
X207496773Y-101987167D01*
X207489359Y-101972289D01*
X207457064Y-101895099D01*
X207451676Y-101879380D01*
X207447359Y-101863420D01*
X207444087Y-101847125D01*
X207431410Y-101751707D01*
X207430590Y-101743467D01*
X207430039Y-101735137D01*
X207429766Y-101726838D01*
X207429766Y-79661249D01*
X207434868Y-79625757D01*
X207442401Y-79600102D01*
X207474199Y-79546510D01*
X208217216Y-78803493D01*
X211914188Y-78803493D01*
X211914188Y-78962871D01*
X211928680Y-79016957D01*
X211935927Y-79044002D01*
X211955436Y-79116816D01*
X211955441Y-79116825D01*
X212035123Y-79254839D01*
X212035124Y-79254840D01*
X212035125Y-79254841D01*
X212035133Y-79254851D01*
X212035139Y-79254857D01*
X212035147Y-79254866D01*
X212147814Y-79367533D01*
X212147818Y-79367536D01*
X212147823Y-79367540D01*
X212147825Y-79367542D01*
X212285851Y-79447232D01*
X212439799Y-79488482D01*
X212439801Y-79488482D01*
X212599175Y-79488482D01*
X212599177Y-79488482D01*
X212753125Y-79447232D01*
X212891151Y-79367542D01*
X213003848Y-79254845D01*
X213083538Y-79116819D01*
X213124788Y-78962871D01*
X213124788Y-78803493D01*
X213083538Y-78649545D01*
X213059864Y-78608541D01*
X213003850Y-78511522D01*
X213003839Y-78511508D01*
X212891172Y-78398841D01*
X212891163Y-78398833D01*
X212891157Y-78398827D01*
X212891147Y-78398819D01*
X212891146Y-78398818D01*
X212891145Y-78398817D01*
X212758632Y-78322311D01*
X212755462Y-78320261D01*
X212754231Y-78319599D01*
X212753251Y-78319133D01*
X212751295Y-78318641D01*
X212711872Y-78308078D01*
X212711871Y-78308078D01*
X212599177Y-78277882D01*
X212599176Y-78277882D01*
X212439798Y-78277882D01*
X212357300Y-78299986D01*
X212357301Y-78299987D01*
X212285851Y-78319131D01*
X212285843Y-78319135D01*
X212147829Y-78398817D01*
X212147828Y-78398818D01*
X212147802Y-78398841D01*
X212035147Y-78511496D01*
X212035124Y-78511522D01*
X212035123Y-78511523D01*
X211955444Y-78649531D01*
X211955439Y-78649541D01*
X211955438Y-78649545D01*
X211914188Y-78803493D01*
X208217216Y-78803493D01*
X210269714Y-76750995D01*
X210298417Y-76729507D01*
X210321883Y-76716693D01*
X210382268Y-76701282D01*
X211147813Y-76701282D01*
X211183311Y-76706386D01*
X211208956Y-76713916D01*
X211253981Y-76740631D01*
X211255167Y-76739187D01*
X211259938Y-76743102D01*
X211259946Y-76743110D01*
X211336958Y-76794568D01*
X211375982Y-76820643D01*
X211375983Y-76820643D01*
X211375987Y-76820646D01*
X211375991Y-76820648D01*
X211504396Y-76873836D01*
X211504904Y-76874050D01*
X211504923Y-76874053D01*
X211504926Y-76874055D01*
X211641807Y-76901282D01*
X211641808Y-76901282D01*
X211781368Y-76901282D01*
X211781369Y-76901282D01*
X211918250Y-76874055D01*
X212047189Y-76820646D01*
X212163230Y-76743110D01*
X212231550Y-76674789D01*
X212260245Y-76653308D01*
X212283719Y-76640490D01*
X212344097Y-76625082D01*
X212657502Y-76625082D01*
X212767450Y-76595621D01*
X212866027Y-76538708D01*
X213485223Y-75919510D01*
X213513929Y-75898022D01*
X213537394Y-75885209D01*
X213597775Y-75869800D01*
X214687483Y-75869800D01*
X214722981Y-75874904D01*
G37*
%TD.AperFunction*%
%TD*%
%TA.AperFunction,Conductor*%
%TO.N,Net-(F1-Pad2)*%
G36*
X108212187Y-131573078D02*
G01*
X108230703Y-131575515D01*
X108319037Y-131587145D01*
X108350799Y-131595655D01*
X108442679Y-131633713D01*
X108471158Y-131650156D01*
X108550053Y-131710694D01*
X108573305Y-131733946D01*
X108633841Y-131812837D01*
X108650288Y-131841323D01*
X108688342Y-131933194D01*
X108696855Y-131964965D01*
X108710922Y-132071811D01*
X108712000Y-132088258D01*
X108712000Y-136941321D01*
X108710922Y-136957768D01*
X108696855Y-137064614D01*
X108688342Y-137096385D01*
X108650288Y-137188256D01*
X108633841Y-137216743D01*
X108568236Y-137302240D01*
X108557369Y-137314630D01*
X107533130Y-138338869D01*
X107520739Y-138349736D01*
X107435240Y-138415342D01*
X107406756Y-138431788D01*
X107314885Y-138469842D01*
X107283114Y-138478355D01*
X107176268Y-138492422D01*
X107159821Y-138493500D01*
X87376000Y-138493500D01*
X87376000Y-143373741D01*
X87374922Y-143390188D01*
X87360855Y-143497034D01*
X87352342Y-143528805D01*
X87314288Y-143620676D01*
X87297841Y-143649162D01*
X87237308Y-143728050D01*
X87214050Y-143751308D01*
X87135162Y-143811841D01*
X87106676Y-143828288D01*
X87014805Y-143866342D01*
X86983034Y-143874855D01*
X86876188Y-143888922D01*
X86859741Y-143890000D01*
X83120259Y-143890000D01*
X83103812Y-143888922D01*
X82996965Y-143874855D01*
X82965194Y-143866342D01*
X82873323Y-143828288D01*
X82844839Y-143811842D01*
X82765946Y-143751305D01*
X82742694Y-143728053D01*
X82682156Y-143649158D01*
X82665713Y-143620679D01*
X82627655Y-143528799D01*
X82619145Y-143497037D01*
X82605078Y-143390187D01*
X82604000Y-143373741D01*
X82604000Y-141224000D01*
X82096000Y-141224000D01*
X80526259Y-141224000D01*
X80509812Y-141222922D01*
X80402965Y-141208855D01*
X80371194Y-141200342D01*
X80279323Y-141162288D01*
X80250839Y-141145842D01*
X80171946Y-141085305D01*
X80148694Y-141062053D01*
X80088156Y-140983158D01*
X80071713Y-140954679D01*
X80033655Y-140862799D01*
X80025145Y-140831037D01*
X80011078Y-140724187D01*
X80010000Y-140707741D01*
X80010000Y-138140678D01*
X80011078Y-138124232D01*
X80011231Y-138123069D01*
X80025145Y-138017380D01*
X80033654Y-137985622D01*
X80071714Y-137893736D01*
X80088151Y-137865267D01*
X80153776Y-137779743D01*
X80164622Y-137767377D01*
X83474877Y-134457122D01*
X83487243Y-134446276D01*
X83572767Y-134380651D01*
X83601236Y-134364214D01*
X83693122Y-134326154D01*
X83724880Y-134317645D01*
X83821531Y-134304921D01*
X83831733Y-134303578D01*
X83848179Y-134302500D01*
X97700674Y-134302500D01*
X97725255Y-134304920D01*
X97827205Y-134325200D01*
X97827206Y-134325200D01*
X98006794Y-134325200D01*
X98006795Y-134325200D01*
X98108744Y-134304920D01*
X98133326Y-134302500D01*
X102362000Y-134302500D01*
X102362000Y-132088258D01*
X102363078Y-132071812D01*
X102363231Y-132070649D01*
X102377145Y-131964960D01*
X102385654Y-131933202D01*
X102423714Y-131841316D01*
X102440153Y-131812844D01*
X102500698Y-131733941D01*
X102523941Y-131710698D01*
X102602844Y-131650153D01*
X102631316Y-131633714D01*
X102723202Y-131595654D01*
X102754960Y-131587145D01*
X102845883Y-131575175D01*
X102861813Y-131573078D01*
X102878259Y-131572000D01*
X108195741Y-131572000D01*
X108212187Y-131573078D01*
G37*
%TD.AperFunction*%
%TD*%
%TA.AperFunction,Conductor*%
%TO.N,PREG_OUT-*%
G36*
X146743039Y-50419685D02*
G01*
X146788794Y-50472489D01*
X146800000Y-50524000D01*
X146800000Y-51376000D01*
X146780315Y-51443039D01*
X146727511Y-51488794D01*
X146676000Y-51500000D01*
X142624000Y-51500000D01*
X142556961Y-51480315D01*
X142511206Y-51427511D01*
X142500000Y-51376000D01*
X142500000Y-50524000D01*
X142519685Y-50456961D01*
X142572489Y-50411206D01*
X142624000Y-50400000D01*
X146676000Y-50400000D01*
X146743039Y-50419685D01*
G37*
%TD.AperFunction*%
%TD*%
M02*
