M48
; DRILL file KiCad 10.0.4-10.0.4~ubuntu24.04.1 date 2026-06-26T19:12:10
; FORMAT={-:-/ absolute / metric / decimal}
; #@! TF.CreationDate,2026-06-26T19:12:10+02:00
; #@! TF.GenerationSoftware,Kicad,Pcbnew,10.0.4-10.0.4~ubuntu24.04.1
; #@! TF.FileFunction,Plated,1,4,PTH
FMAT,2
METRIC
; #@! TA.AperFunction,Plated,PTH,ViaDrill
T1C0.300
; #@! TA.AperFunction,Plated,PTH,ViaDrill
T2C0.400
; #@! TA.AperFunction,Plated,PTH,ComponentDrill
T3C0.610
; #@! TA.AperFunction,Plated,PTH,ComponentDrill
T4C0.800
; #@! TA.AperFunction,Plated,PTH,ComponentDrill
T5C0.900
; #@! TA.AperFunction,Plated,PTH,ComponentDrill
T6C1.000
; #@! TA.AperFunction,Plated,PTH,ComponentDrill
T7C1.016
; #@! TA.AperFunction,Plated,PTH,ComponentDrill
T8C1.200
; #@! TA.AperFunction,Plated,PTH,ComponentDrill
T9C1.400
; #@! TA.AperFunction,Plated,PTH,ComponentDrill
T10C1.500
; #@! TA.AperFunction,Plated,PTH,ComponentDrill
T11C1.810
; #@! TA.AperFunction,Plated,PTH,ComponentDrill
T12C1.940
; #@! TA.AperFunction,Plated,PTH,ComponentDrill
T13C3.200
%
G90
G05
T1
X91.073Y-75.04
X91.723Y-74.51
X95.072Y-100.305
X96.02Y-92.47
X96.56Y-91.4
X97.87Y-130.29
X104.15Y-91.01
X107.167Y-79.84
X107.62Y-102.514
X108.611Y-102.371
X112.483Y-96.027
X116.2Y-142.9
X117.61Y-126.746
X118.22Y-146.3
X119.215Y-124.602
X119.37Y-141.09
X120.07Y-141.09
X122.22Y-146.29
X125.98Y-138.99
X126.111Y-100.482
X126.21Y-146.33
X128.358Y-56.593
X129.057Y-56.593
X129.19Y-146.29
X129.755Y-56.593
X130.073Y-101.615
X130.17Y-138.97
X131.025Y-99.71
X132.461Y-107.163
X133.88Y-111.38
X133.883Y-117.577
X136.05Y-106.975
X136.55Y-103.966
X136.79Y-139.67
X137.396Y-107.151
X137.578Y-146.35
X138.063Y-113.45
X138.197Y-144.21
X138.709Y-139.639
X139.197Y-144.23
X139.325Y-106.6
X139.929Y-104.817
X140.022Y-113.45
X141.269Y-140.162
X141.49Y-99.02
X141.63Y-107.67
X141.757Y-93.116
X142.0Y-113.45
X142.197Y-140.162
X142.367Y-104.546
X142.958Y-100.421
X143.184Y-140.202
X143.28Y-146.29
X144.8Y-98.76
X144.907Y-114.93
X145.719Y-105.699
X145.974Y-101.829
X146.32Y-112.951
X146.436Y-107.771
X146.89Y-113.662
X147.137Y-110.503
X147.28Y-107.78
X147.68Y-104.388
X148.2Y-146.29
X148.45Y-104.66
X149.018Y-117.462
X149.073Y-110.807
X149.085Y-119.024
X149.49Y-111.47
X149.71Y-134.14
X149.76Y-112.19
X149.868Y-112.945
X150.168Y-116.421
X150.305Y-131.548
X150.43Y-113.45
X150.46Y-137.067
X150.58Y-134.22
X150.653Y-110.628
X150.86Y-138.4
X151.142Y-117.15
X151.17Y-115.5
X151.31Y-131.42
X151.961Y-114.862
X152.146Y-118.551
X152.512Y-87.655
X152.974Y-88.368
X153.01Y-132.48
X153.21Y-117.05
X153.225Y-111.163
X153.225Y-112.878
X153.678Y-88.675
X153.692Y-115.722
X154.181Y-107.401
X154.292Y-116.308
X154.407Y-117.602
X154.864Y-111.15
X154.864Y-112.827
X154.918Y-115.732
X154.944Y-107.828
X155.05Y-79.87
X155.067Y-131.293
X155.23Y-138.4
X155.499Y-87.046
X155.53Y-117.01
X156.032Y-131.293
X156.083Y-119.48
X156.654Y-114.408
X157.315Y-109.766
X157.328Y-131.293
X157.522Y-112.328
X157.582Y-111.201
X157.637Y-110.451
X157.717Y-114.102
X158.315Y-112.428
X159.05Y-121.863
X159.156Y-130.849
X159.17Y-111.23
X159.24Y-118.551
X159.6Y-134.265
X160.346Y-133.71
X161.074Y-116.84
X161.66Y-118.551
X161.747Y-131.86
X162.75Y-117.462
X163.0Y-132.02
X163.614Y-108.16
X163.627Y-105.782
X163.85Y-137.64
X164.32Y-132.04
X164.897Y-131.42
X165.46Y-132.3
X166.116Y-131.445
X166.268Y-87.073
X166.84Y-141.68
X167.134Y-138.898
X167.437Y-131.394
X168.398Y-140.91
X168.732Y-131.293
X168.91Y-132.86
X168.981Y-141.492
X169.633Y-87.01
X169.633Y-89.296
X169.87Y-92.81
X169.89Y-131.284
X169.977Y-119.634
X170.04Y-95.1
X170.15Y-98.69
X170.536Y-137.236
X170.55Y-138.01
X170.59Y-103.93
X170.649Y-87.2
X170.699Y-101.464
X171.637Y-132.002
X171.65Y-137.215
X171.704Y-116.815
X171.9Y-94.06
X172.069Y-102.184
X172.3Y-82.692
X172.386Y-134.78
X172.681Y-117.26
X172.89Y-128.24
X173.139Y-134.847
X174.4Y-128.19
X174.97Y-140.66
X175.343Y-125.829
X175.497Y-136.054
X175.51Y-88.69
X175.54Y-127.74
X175.75Y-99.25
X175.888Y-135.381
X176.0Y-140.008
X176.02Y-116.18
X176.05Y-130.47
X176.38Y-93.55
X176.4Y-91.42
X176.616Y-134.696
X176.66Y-117.26
X176.859Y-136.482
X176.97Y-113.99
X177.1Y-75.11
X177.15Y-102.636
X177.19Y-87.46
X177.42Y-101.236
X177.7Y-136.5
X177.825Y-131.039
X177.88Y-133.38
X178.04Y-138.86
X178.239Y-130.405
X178.4Y-91.49
X178.6Y-136.516
X178.61Y-116.19
X178.793Y-131.78
X178.962Y-78.437
X179.27Y-95.34
X179.375Y-130.607
X179.57Y-136.12
X179.629Y-128.101
X180.07Y-90.57
X180.213Y-130.531
X180.35Y-104.11
X180.36Y-118.94
X180.39Y-132.76
X180.4Y-124.22
X180.47Y-108.73
X180.53Y-100.52
X180.55Y-141.42
X180.631Y-131.901
X180.839Y-136.543
X180.91Y-89.45
X181.029Y-130.57
X181.191Y-139.979
X181.254Y-77.739
X181.36Y-118.2
X181.36Y-127.21
X181.46Y-128.89
X181.52Y-92.75
X181.81Y-130.06
X182.05Y-139.09
X182.33Y-105.75
X182.497Y-104.729
X182.514Y-108.86
X182.532Y-100.08
X182.57Y-76.86
X182.632Y-80.493
X182.65Y-87.07
X182.65Y-87.63
X182.68Y-97.54
X182.68Y-98.23
X183.17Y-108.32
X183.34Y-113.93
X183.391Y-111.197
X183.47Y-109.06
X183.55Y-110.34
X183.975Y-133.06
X184.2Y-126.51
X184.41Y-137.79
X185.258Y-105.886
X185.51Y-131.42
X185.522Y-135.534
X185.66Y-109.1
X185.79Y-141.56
X185.83Y-95.14
X185.903Y-125.095
X186.06Y-139.5
X186.123Y-98.928
X186.133Y-130.443
X186.137Y-103.191
X186.3Y-92.73
X186.3Y-137.8
X186.312Y-108.43
X186.44Y-97.68
X186.45Y-104.94
X186.709Y-98.431
X186.75Y-101.29
X186.812Y-83.2
X186.96Y-107.99
X187.05Y-106.238
X187.089Y-95.817
X187.13Y-100.04
X187.703Y-100.606
X187.786Y-73.343
X188.02Y-103.98
X188.48Y-110.3
X188.633Y-105.559
X188.692Y-123.813
X188.826Y-108.956
X188.88Y-140.94
X190.05Y-132.91
X190.19Y-96.42
X190.21Y-87.26
X190.21Y-90.185
X190.269Y-89.26
X190.3Y-137.32
X191.055Y-87.25
X191.055Y-90.175
X191.26Y-135.72
X191.9Y-87.255
X191.9Y-90.18
X192.16Y-132.14
X192.5Y-133.84
X192.754Y-139.633
X192.821Y-123.814
X194.361Y-75.413
X194.564Y-88.011
X196.342Y-74.778
X200.177Y-73.0
X201.168Y-120.548
X201.61Y-61.18
X202.907Y-80.086
X202.93Y-82.69
X202.971Y-111.303
X203.796Y-61.165
X210.109Y-70.764
X211.912Y-64.897
X212.133Y-130.865
X212.519Y-78.883
X212.9Y-67.491
X213.639Y-126.162
X213.817Y-57.607
X213.995Y-59.36
X215.522Y-74.224
X223.934Y-57.79
X223.936Y-56.51
X224.551Y-57.79
X224.553Y-56.51
X225.167Y-57.788
X225.17Y-56.508
X225.958Y-123.009
X228.85Y-123.016
X231.546Y-123.009
T2
X70.04Y-83.84
X71.687Y-94.526
X72.629Y-122.872
X73.304Y-103.556
X73.6Y-79.24
X73.661Y-95.402
X75.847Y-92.88
X77.267Y-102.108
X77.766Y-75.52
X77.84Y-78.55
X78.28Y-73.02
X78.859Y-79.89
X78.866Y-76.464
X79.0Y-70.75
X79.65Y-101.74
X79.887Y-96.205
X80.33Y-98.849
X80.89Y-102.67
X81.434Y-98.492
X81.746Y-78.17
X82.251Y-94.443
X83.016Y-72.751
X83.248Y-120.904
X83.255Y-87.891
X83.27Y-83.418
X83.689Y-80.129
X84.286Y-72.751
X84.292Y-75.989
X84.391Y-86.169
X84.522Y-82.87
X85.342Y-85.643
X85.471Y-124.079
X85.835Y-76.967
X85.983Y-92.903
X86.254Y-72.052
X86.445Y-86.423
X87.147Y-105.461
X88.075Y-113.919
X89.471Y-79.629
X89.55Y-69.54
X90.084Y-94.582
X90.377Y-83.352
X90.67Y-92.676
X90.805Y-115.722
X91.203Y-93.654
X91.44Y-125.158
X91.698Y-94.645
X91.973Y-110.439
X92.519Y-132.588
X92.583Y-128.143
X92.727Y-99.826
X92.799Y-110.439
X92.83Y-98.836
X92.841Y-73.155
X92.928Y-76.624
X93.624Y-110.439
X94.437Y-104.571
X94.805Y-131.381
X94.81Y-120.92
X95.102Y-97.487
X95.24Y-105.258
X97.917Y-133.413
X102.989Y-73.144
X104.02Y-92.86
X104.424Y-102.489
X105.346Y-91.885
X105.791Y-81.335
X106.653Y-53.471
X106.99Y-66.01
X107.76Y-61.48
X108.33Y-60.35
X108.516Y-82.402
X109.245Y-97.487
X109.791Y-64.507
X110.09Y-81.79
X110.271Y-53.459
X110.285Y-69.143
X110.34Y-71.18
X110.351Y-67.75
X110.85Y-84.383
X112.23Y-74.627
X112.253Y-71.239
X112.34Y-79.17
X112.4Y-81.94
X113.403Y-85.907
X113.409Y-76.179
X115.302Y-87.202
X116.26Y-81.081
X116.26Y-89.704
X116.883Y-75.01
X116.94Y-70.172
X117.035Y-96.118
X117.75Y-95.338
X118.064Y-92.219
X118.413Y-64.635
X118.413Y-66.603
X118.686Y-94.721
X119.278Y-76.913
X119.81Y-84.383
X120.82Y-60.24
X121.19Y-81.66
X121.525Y-50.918
X121.525Y-51.807
X121.525Y-52.76
X121.525Y-53.712
X122.318Y-59.671
X122.35Y-50.918
X122.35Y-51.807
X122.35Y-52.76
X122.35Y-53.712
X123.176Y-50.918
X123.176Y-51.807
X123.176Y-52.76
X123.176Y-53.712
X123.487Y-62.376
X123.487Y-85.907
X123.659Y-95.026
X124.001Y-50.918
X124.001Y-51.807
X124.001Y-52.76
X124.001Y-53.712
X124.04Y-88.257
X124.04Y-90.86
X124.29Y-59.65
X126.136Y-76.89
X127.813Y-121.203
X128.401Y-82.364
X129.04Y-104.32
X130.478Y-106.278
X130.61Y-103.27
X131.691Y-104.309
X132.402Y-116.793
X132.656Y-105.109
X133.272Y-88.002
X133.272Y-92.892
X133.604Y-107.569
X134.358Y-74.642
X134.358Y-75.493
X134.358Y-76.344
X134.358Y-77.195
X134.358Y-78.046
X134.582Y-97.487
X134.599Y-103.09
X134.612Y-106.481
X135.466Y-123.503
X136.15Y-117.052
X137.101Y-120.83
X137.726Y-102.445
X138.32Y-92.892
X140.081Y-96.037
X140.088Y-100.327
X141.69Y-117.99
X142.539Y-122.038
X143.108Y-95.419
X143.114Y-50.855
X143.362Y-62.412
X143.362Y-72.127
X143.876Y-50.855
X144.638Y-50.855
X145.4Y-50.855
X145.44Y-96.118
X146.162Y-50.855
X146.22Y-55.236
X147.153Y-88.155
X147.383Y-95.098
X148.855Y-88.015
X149.504Y-62.412
X149.852Y-76.217
X151.058Y-88.726
X154.703Y-103.77
X156.633Y-89.316
X156.73Y-73.24
X159.301Y-73.118
X162.183Y-83.028
X162.222Y-96.207
X162.33Y-99.65
X164.579Y-94.691
X164.863Y-76.191
X165.07Y-103.99
X166.603Y-96.207
X167.848Y-86.91
X169.316Y-59.265
X171.094Y-61.612
X172.427Y-75.326
X173.056Y-59.324
X174.096Y-75.633
X178.333Y-61.165
X181.254Y-74.246
X184.198Y-60.547
X186.397Y-61.864
X190.225Y-54.919
X190.225Y-55.871
X190.225Y-56.887
X190.225Y-57.84
X191.012Y-62.082
X191.012Y-72.077
X191.051Y-54.919
X191.051Y-55.871
X191.051Y-56.887
X191.051Y-57.84
X191.876Y-54.919
X191.876Y-55.871
X191.876Y-56.887
X191.876Y-57.84
X192.702Y-54.919
X192.702Y-55.871
X192.702Y-56.887
X192.702Y-57.84
X193.065Y-99.456
X194.564Y-101.651
X195.153Y-59.872
X195.697Y-109.583
X195.697Y-110.726
X195.697Y-111.933
X195.697Y-113.076
X196.266Y-107.29
X198.11Y-109.583
X198.11Y-110.726
X198.11Y-111.933
X198.11Y-113.139
X198.12Y-107.061
X199.57Y-108.758
X200.322Y-126.039
X201.084Y-126.039
X201.219Y-104.75
X201.752Y-114.935
X201.825Y-118.9
X201.846Y-126.039
X201.854Y-73.254
X204.2Y-117.025
X204.235Y-118.947
X205.029Y-107.239
X205.81Y-97.55
X206.354Y-130.611
X206.354Y-135.119
X206.934Y-105.232
X207.284Y-113.332
X208.069Y-138.441
X208.408Y-111.397
X208.709Y-74.883
X208.727Y-72.637
X208.775Y-118.95
X209.252Y-80.384
X209.252Y-81.209
X209.252Y-82.035
X209.252Y-82.86
X209.252Y-83.686
X209.252Y-84.511
X209.252Y-85.337
X209.252Y-86.162
X209.362Y-113.332
X210.164Y-132.96
X210.164Y-133.722
X210.926Y-132.96
X210.926Y-133.722
X210.965Y-80.384
X210.965Y-81.209
X210.965Y-82.035
X210.965Y-82.86
X210.965Y-83.686
X210.965Y-84.511
X210.965Y-85.337
X210.965Y-86.162
X211.712Y-76.193
X212.855Y-88.766
X212.855Y-89.591
X212.855Y-90.417
X212.855Y-91.242
X212.855Y-92.068
X212.855Y-92.893
X212.855Y-93.719
X212.855Y-94.544
X212.855Y-95.37
X212.855Y-96.195
X212.855Y-97.021
X213.045Y-100.894
X213.045Y-103.053
X213.299Y-71.43
X213.299Y-73.081
X213.934Y-100.894
X213.934Y-103.053
X214.061Y-86.607
X214.061Y-87.369
X214.887Y-75.113
X215.331Y-71.113
X215.331Y-71.938
X215.494Y-122.288
X215.494Y-123.088
X215.494Y-123.901
X216.157Y-71.113
X216.157Y-71.938
X216.789Y-122.276
X216.789Y-123.09
X216.789Y-123.927
X216.982Y-71.113
X216.982Y-71.938
X217.49Y-80.447
X217.871Y-74.351
X218.125Y-86.607
X218.125Y-87.369
X218.189Y-88.766
X218.189Y-89.591
X218.189Y-90.417
X218.189Y-91.242
X218.189Y-92.068
X218.189Y-92.893
X218.189Y-93.719
X218.189Y-94.544
X218.189Y-95.37
X218.189Y-96.195
X218.189Y-97.021
X218.697Y-79.114
X218.697Y-79.939
X218.951Y-71.43
X219.078Y-70.097
X219.312Y-87.366
X219.312Y-88.065
X219.522Y-79.114
X219.522Y-79.939
X220.074Y-87.366
X220.074Y-88.065
X220.348Y-79.114
X220.348Y-79.939
X220.411Y-72.192
X220.836Y-87.366
X220.836Y-88.065
X221.173Y-79.114
X221.173Y-79.939
X221.237Y-73.526
X221.598Y-87.366
X221.598Y-88.065
X221.999Y-73.526
X221.999Y-79.114
X221.999Y-79.939
X222.36Y-87.366
X222.36Y-88.065
X222.761Y-73.526
X223.205Y-85.654
X223.523Y-73.526
X224.475Y-94.163
X224.475Y-96.449
X224.666Y-80.257
X224.666Y-81.019
X224.666Y-81.844
X224.666Y-82.67
X224.666Y-83.495
X224.666Y-84.321
X224.666Y-85.146
X224.666Y-85.972
X224.666Y-86.797
X224.666Y-87.623
X224.666Y-88.448
X224.666Y-89.274
X225.301Y-94.163
X225.301Y-96.449
X227.861Y-64.194
X227.861Y-65.972
X227.861Y-66.797
X228.603Y-64.191
X228.623Y-65.972
X228.623Y-66.797
X229.385Y-64.194
X229.385Y-65.972
X229.385Y-66.797
X230.063Y-81.019
X230.063Y-81.844
X230.063Y-82.67
X230.063Y-83.495
X230.063Y-84.321
X230.063Y-85.146
X230.063Y-85.972
X230.063Y-86.797
X230.063Y-87.623
X230.063Y-88.448
X230.063Y-89.274
X230.635Y-75.431
X230.635Y-76.256
X230.635Y-77.082
X230.635Y-77.844
T3
X68.58Y-85.09
X68.58Y-92.71
X103.73Y-81.99
X147.9Y-100.16
X151.58Y-133.17
X176.33Y-74.0
X186.94Y-115.87
X192.278Y-104.14
X192.278Y-115.824
X193.04Y-60.452
X199.39Y-100.97
X199.39Y-104.14
X211.61Y-57.62
X213.868Y-109.22
X213.868Y-115.824
T4
X189.42Y-76.13
X189.42Y-81.16
X189.43Y-78.64
X191.42Y-76.13
X191.42Y-81.16
X191.43Y-78.64
X202.759Y-75.184
X204.759Y-75.184
T5
X64.54Y-101.0
X66.445Y-101.0
X68.35Y-101.0
T6
X62.93Y-72.73
X62.93Y-75.27
X62.93Y-79.73
X62.93Y-82.27
X65.47Y-72.73
X65.47Y-75.27
X65.47Y-79.73
X65.47Y-82.27
X68.01Y-79.73
X68.01Y-82.27
X76.14Y-140.0
X76.14Y-142.54
X78.68Y-140.0
X78.68Y-142.54
X81.22Y-140.0
X81.22Y-142.54
X83.76Y-140.0
X83.76Y-142.54
X86.3Y-140.0
X86.3Y-142.54
X88.84Y-140.0
X88.84Y-142.54
X91.38Y-140.0
X91.38Y-142.54
X93.92Y-140.0
X93.92Y-142.54
X96.46Y-140.0
X96.46Y-142.54
X99.0Y-140.0
X99.0Y-142.54
T7
X129.646Y-60.697
X134.726Y-60.697
X142.092Y-60.24
X144.632Y-60.24
X147.172Y-60.24
T8
X223.803Y-105.149
X223.803Y-120.149
X233.803Y-105.149
X233.803Y-120.149
T9
X64.8Y-87.0
X64.8Y-90.5
X64.8Y-94.0
T10
X106.362Y-111.36
X106.362Y-133.86
T11
X222.686Y-129.08
X222.686Y-133.04
X222.686Y-137.0
X222.686Y-140.96
T12
X60.6Y-111.95
X60.6Y-131.0
X75.9Y-111.95
X75.9Y-131.0
X83.5Y-111.95
X83.5Y-131.0
T13
X69.5Y-63.0
X69.5Y-147.0
T5
G00X154.048Y-60.213
M15
G01X152.348Y-60.213
M16
G05
G00X159.998Y-60.213
M15
G01X157.298Y-60.213
M16
G05
G00X164.948Y-60.213
M15
G01X163.248Y-60.213
M16
G05
M30
